# Blender 3.6.1
# www.blender.org
mtllib Red Flower.mtl
o Red_Flower
v -0.700000 0.900000 0.100000
v -0.700000 1.000000 0.200000
v -0.700000 1.800000 0.100000
v -0.700000 1.800000 -0.100000
v -0.700000 1.900000 0.100000
v -0.600000 0.800000 0.100000
v -0.600000 1.900000 -0.200000
v -0.600000 2.000000 0.100000
v -0.500000 1.800000 0.300000
v -0.500000 1.800000 -0.300000
v -0.500000 2.000000 0.200000
v -0.500000 2.000000 -0.100000
v -0.400000 1.000000 0.100000
v -0.400000 1.800000 0.400000
v -0.400000 1.900000 0.400000
v -0.400000 1.900000 0.300000
v -0.400000 1.900000 -0.200000
v -0.400000 2.000000 0.300000
v -0.400000 2.000000 -0.300000
v -0.400000 2.100000 -0.100000
v -0.400000 2.100000 -0.200000
v -0.400000 2.200000 0.100000
v -0.300000 1.100000 -0.300000
v -0.300000 1.100000 -0.500000
v -0.300000 1.200000 -0.000000
v -0.300000 1.200000 -0.300000
v -0.300000 1.300000 0.100000
v -0.300000 1.900000 0.500000
v -0.300000 1.900000 -0.500000
v -0.300000 2.000000 0.400000
v -0.300000 2.000000 -0.200000
v -0.300000 2.100000 0.300000
v -0.300000 2.100000 0.200000
v -0.300000 2.100000 -0.100000
v -0.300000 2.100000 -0.200000
v -0.300000 2.200000 -0.100000
v -0.200000 0.000000 0.100000
v -0.200000 1.200000 0.100000
v -0.200000 1.200000 -0.200000
v -0.200000 1.300000 0.100000
v 0.200000 0.800000 0.200000
v -0.500000 0.800000 0.100000
v -0.400000 0.900000 0.200000
v -0.400000 0.900000 0.100000
v -0.300000 1.000000 0.100000
v -0.300000 1.100000 -0.000000
v -0.100000 1.000000 -0.200000
v -0.100000 1.100000 -0.300000
v -0.100000 1.200000 -0.200000
v -0.100000 1.200000 -0.300000
v 0.000000 0.000000 0.100000
v 0.000000 -0.000000 -0.100000
v 0.000000 0.700000 0.100000
v 0.100000 0.700000 0.100000
v 0.100000 1.900000 0.400000
v 0.100000 1.900000 0.300000
v 0.100000 1.900000 -0.400000
v 0.100000 2.000000 0.300000
v 0.100000 2.000000 0.200000
v 0.100000 2.100000 -0.100000
v 0.100000 2.200000 -0.100000
v 0.200000 0.600000 0.200000
v 0.200000 0.700000 0.200000
v 0.200000 0.700000 0.100000
v 0.200000 1.800000 0.400000
v 0.200000 1.800000 -0.300000
v 0.200000 1.900000 0.400000
v 0.200000 1.900000 0.300000
v 0.200000 1.900000 -0.300000
v 0.200000 2.000000 0.100000
v 0.200000 2.000000 -0.100000
v 0.200000 2.000000 -0.200000
v 0.200000 2.000000 -0.300000
v 0.200000 2.100000 -0.200000
v 0.300000 0.800000 0.200000
v 0.300000 1.800000 0.300000
v 0.300000 1.800000 -0.200000
v 0.300000 1.900000 0.300000
v 0.300000 2.000000 0.100000
v 0.300000 2.000000 -0.200000
v 0.400000 2.000000 -0.100000
v 0.500000 1.800000 -0.100000
v 0.100000 1.800000 0.500000
v 0.100000 1.800000 0.400000
v -0.400000 1.800000 0.300000
v -0.300000 1.900000 0.300000
v 0.200000 2.000000 0.300000
v -0.600000 0.800000 0.200000
v -0.600000 1.800000 0.200000
v -0.500000 1.000000 0.200000
v -0.500000 1.800000 0.200000
v -0.500000 1.900000 0.200000
v -0.400000 1.000000 0.200000
v -0.300000 1.000000 0.200000
v -0.300000 2.000000 0.200000
v -0.300000 2.200000 0.200000
v 0.100000 0.600000 0.200000
v 0.100000 0.700000 0.200000
v 0.100000 2.200000 0.200000
v 0.300000 1.800000 0.200000
v 0.400000 1.800000 0.200000
v -0.600000 1.800000 0.100000
v -0.600000 1.900000 0.100000
v -0.500000 2.100000 0.100000
v -0.400000 1.200000 0.100000
v -0.400000 2.000000 0.100000
v -0.300000 2.200000 0.100000
v -0.300000 2.300000 0.100000
v -0.200000 1.800000 0.100000
v 0.100000 2.100000 0.100000
v 0.200000 2.200000 0.100000
v 0.300000 1.900000 0.100000
v 0.400000 1.900000 0.100000
v 0.500000 1.800000 0.100000
v 0.500000 1.900000 0.100000
v -0.200000 1.100000 -0.300000
v -0.400000 1.100000 -0.400000
v -0.700000 1.000000 0.100000
v -0.600000 1.000000 0.100000
v -0.500000 1.000000 0.100000
v -0.400000 1.100000 0.100000
v -0.300000 1.100000 0.100000
v 0.200000 0.600000 0.100000
v 0.200000 0.800000 0.100000
v 0.300000 0.800000 0.100000
v -0.400000 1.200000 -0.000000
v -0.200000 1.200000 -0.000000
v 0.000000 0.700000 -0.000000
v 0.100000 0.700000 -0.000000
v -0.700000 1.900000 -0.100000
v -0.200000 1.000000 -0.100000
v -0.200000 1.100000 -0.100000
v -0.200000 1.800000 -0.100000
v -0.100000 1.000000 -0.100000
v -0.100000 1.100000 -0.100000
v 0.100000 2.300000 -0.100000
v 0.200000 2.100000 -0.100000
v 0.200000 2.200000 -0.100000
v 0.300000 1.900000 -0.100000
v 0.300000 2.100000 -0.100000
v -0.600000 1.800000 -0.200000
v -0.500000 2.000000 -0.200000
v -0.300000 2.200000 -0.200000
v 0.100000 2.100000 -0.200000
v 0.100000 2.200000 -0.200000
v 0.300000 1.900000 -0.200000
v -0.300000 1.900000 -0.300000
v -0.300000 2.100000 -0.300000
v 0.100000 1.900000 -0.300000
v 0.300000 1.900000 -0.300000
v -0.400000 1.800000 -0.400000
v -0.300000 1.100000 -0.400000
v -0.300000 1.200000 -0.400000
v -0.300000 1.900000 -0.400000
v -0.300000 2.000000 -0.400000
v -0.200000 1.100000 -0.400000
v 0.100000 1.800000 -0.400000
v 0.100000 2.000000 -0.400000
v 0.200000 1.900000 -0.400000
v -0.400000 1.100000 -0.500000
v -0.400000 1.200000 -0.500000
v -0.300000 1.200000 -0.500000
v -0.200000 1.000000 -0.500000
v -0.200000 1.100000 -0.500000
v -0.200000 -0.000000 -0.100000
v 0.000000 0.600000 0.100000
v 0.100000 0.600000 0.100000
v 0.000000 0.600000 -0.000000
v 0.100000 0.600000 -0.000000
v 0.300000 0.700000 0.200000
v 0.300000 0.700000 0.100000
v -0.500000 0.800000 0.200000
v -0.700000 0.900000 0.200000
v -0.200000 1.000000 -0.200000
v -0.300000 1.000000 -0.400000
v -0.200000 1.000000 -0.400000
v -0.300000 1.000000 -0.500000
v -0.400000 1.100000 -0.000000
v -0.200000 1.100000 -0.200000
v -0.100000 1.100000 -0.200000
v -0.300000 1.200000 0.100000
v -0.300000 1.800000 0.500000
v -0.300000 1.800000 0.400000
v 0.200000 1.800000 0.300000
v 0.000000 1.800000 0.100000
v 0.400000 1.800000 0.100000
v -0.600000 1.800000 -0.100000
v 0.000000 1.800000 -0.100000
v 0.400000 1.800000 -0.100000
v -0.500000 1.800000 -0.200000
v 0.400000 1.800000 -0.200000
v -0.400000 1.800000 -0.300000
v 0.300000 1.800000 -0.300000
v -0.300000 1.800000 -0.400000
v 0.200000 1.800000 -0.400000
v -0.300000 1.800000 -0.500000
v 0.100000 1.800000 -0.500000
v -0.600000 0.900000 0.200000
v -0.500000 0.900000 0.200000
v -0.600000 0.900000 0.100000
v -0.500000 0.900000 0.100000
v -0.600000 1.000000 0.200000
v -0.400000 1.100000 0.200000
v -0.300000 1.100000 0.200000
v -0.200000 1.200000 -0.300000
v -0.400000 1.200000 -0.400000
v -0.200000 1.200000 -0.400000
v -0.300000 1.300000 -0.000000
v -0.200000 1.300000 -0.000000
v 0.100000 1.900000 0.500000
v -0.300000 1.900000 0.400000
v -0.500000 1.900000 0.300000
v -0.600000 1.900000 0.200000
v -0.400000 1.900000 0.200000
v 0.200000 1.900000 0.200000
v 0.300000 1.900000 0.200000
v 0.400000 1.900000 0.200000
v -0.500000 1.900000 0.100000
v -0.600000 1.900000 -0.100000
v -0.500000 1.900000 -0.100000
v 0.400000 1.900000 -0.100000
v 0.500000 1.900000 -0.100000
v -0.500000 1.900000 -0.200000
v 0.200000 1.900000 -0.200000
v 0.400000 1.900000 -0.200000
v -0.500000 1.900000 -0.300000
v -0.400000 1.900000 -0.300000
v -0.400000 1.900000 -0.400000
v 0.100000 1.900000 -0.500000
v 0.100000 2.000000 0.400000
v -0.300000 2.000000 0.300000
v -0.400000 2.000000 0.200000
v 0.200000 2.000000 0.200000
v 0.300000 2.000000 0.200000
v -0.500000 2.000000 0.100000
v 0.400000 2.000000 0.100000
v -0.600000 2.000000 -0.100000
v -0.400000 2.000000 -0.100000
v 0.300000 2.000000 -0.100000
v -0.400000 2.000000 -0.200000
v 0.100000 2.000000 -0.200000
v -0.300000 2.000000 -0.300000
v 0.100000 2.000000 -0.300000
v 0.100000 2.100000 0.300000
v -0.400000 2.100000 0.200000
v 0.100000 2.100000 0.200000
v 0.200000 2.100000 0.200000
v -0.400000 2.100000 0.100000
v -0.300000 2.100000 0.100000
v 0.200000 2.100000 0.100000
v 0.300000 2.100000 0.100000
v -0.500000 2.100000 -0.100000
v 0.100000 2.100000 -0.300000
v 0.100000 2.200000 0.100000
v -0.400000 2.200000 -0.100000
v 0.100000 2.300000 0.100000
v -0.300000 2.300000 -0.100000
vn -1.0000 -0.0000 -0.0000
vn 1.0000 -0.0000 -0.0000
vn -0.0000 -0.0000 1.0000
vn -0.0000 -0.0000 -1.0000
vn -0.0000 -1.0000 -0.0000
vn -0.0000 1.0000 -0.0000
vt 0.841797 0.500000
vt 0.794922 0.500000
s 0
usemtl palette
f 2/1/1 1/1/1 173/1/1
f 118/1/1 1/1/1 2/1/1
f 5/1/1 4/1/1 3/1/1
f 130/1/1 4/1/1 5/1/1
f 198/1/1 6/1/1 88/1/1
f 200/1/1 6/1/1 198/1/1
f 213/1/1 102/1/1 89/1/1
f 103/1/1 102/1/1 213/1/1
f 219/1/1 141/1/1 187/1/1
f 7/1/1 141/1/1 219/1/1
f 8/1/1 219/1/1 103/1/1
f 237/1/1 219/1/1 8/1/1
f 90/2/1 201/2/1 199/2/1
f 120/2/1 201/2/1 90/2/1
f 212/1/1 91/1/1 9/1/1
f 92/1/1 91/1/1 212/1/1
f 223/1/1 10/1/1 190/1/1
f 226/1/1 10/1/1 223/1/1
f 11/1/1 218/1/1 92/1/1
f 235/1/1 218/1/1 11/1/1
f 12/1/1 223/1/1 220/1/1
f 142/1/1 223/1/1 12/1/1
f 104/1/1 12/1/1 235/1/1
f 252/1/1 12/1/1 104/1/1
f 203/2/1 13/2/1 93/2/1
f 121/2/1 13/2/1 203/2/1
f 105/2/1 178/2/1 121/2/1
f 126/2/1 178/2/1 105/2/1
f 206/1/1 160/1/1 117/1/1
f 161/1/1 160/1/1 206/1/1
f 15/1/1 85/1/1 14/1/1
f 16/1/1 85/1/1 15/1/1
f 227/1/1 151/1/1 192/1/1
f 228/1/1 151/1/1 227/1/1
f 18/1/1 214/1/1 16/1/1
f 232/1/1 214/1/1 18/1/1
f 240/1/1 227/1/1 17/1/1
f 19/1/1 227/1/1 240/1/1
f 245/1/1 106/1/1 232/1/1
f 248/1/1 106/1/1 245/1/1
f 20/1/1 240/1/1 238/1/1
f 21/1/1 240/1/1 20/1/1
f 22/1/1 20/1/1 248/1/1
f 255/1/1 20/1/1 22/1/1
f 152/1/1 177/1/1 175/1/1
f 24/1/1 177/1/1 152/1/1
f 26/2/1 152/2/1 23/2/1
f 153/2/1 152/2/1 26/2/1
f 27/2/1 25/2/1 181/2/1
f 208/2/1 25/2/1 27/2/1
f 28/1/1 183/1/1 182/1/1
f 211/1/1 183/1/1 28/1/1
f 154/1/1 196/1/1 194/1/1
f 29/1/1 196/1/1 154/1/1
f 30/1/1 86/1/1 211/1/1
f 231/1/1 86/1/1 30/1/1
f 242/1/1 154/1/1 147/1/1
f 155/1/1 154/1/1 242/1/1
f 32/1/1 95/1/1 231/1/1
f 33/1/1 95/1/1 32/1/1
f 35/1/1 242/1/1 31/1/1
f 148/1/1 242/1/1 35/1/1
f 96/1/1 249/1/1 33/1/1
f 107/1/1 249/1/1 96/1/1
f 36/1/1 35/1/1 34/1/1
f 143/1/1 35/1/1 36/1/1
f 108/1/1 36/1/1 107/1/1
f 257/1/1 36/1/1 108/1/1
f 131/2/1 165/2/1 37/2/1
f 132/2/1 131/2/1 37/2/1
f 132/2/1 174/2/1 131/2/1
f 179/2/1 174/2/1 132/2/1
f 38/2/1 132/2/1 37/2/1
f 127/2/1 132/2/1 38/2/1
f 39/2/1 116/2/1 179/2/1
f 205/2/1 116/2/1 39/2/1
f 209/2/1 132/2/1 127/2/1
f 109/2/1 209/2/1 40/2/1
f 133/2/1 132/2/1 209/2/1
f 133/2/1 209/2/1 109/2/1
f 98/2/1 167/2/1 97/2/1
f 54/2/1 167/2/1 98/2/1
f 41/1/1 64/1/1 63/1/1
f 124/1/1 64/1/1 41/1/1
f 198/1/2 200/1/2 202/1/2
f 202/1/2 200/1/2 119/1/2
f 172/1/2 42/1/2 199/1/2
f 199/1/2 42/1/2 201/1/2
f 43/2/2 44/2/2 93/2/2
f 93/2/2 44/2/2 13/2/2
f 94/2/2 45/2/2 204/2/2
f 204/2/2 45/2/2 122/2/2
f 122/2/2 46/2/2 181/2/2
f 181/2/2 46/2/2 25/2/2
f 152/1/2 24/1/2 153/1/2
f 153/1/2 24/1/2 162/1/2
f 176/1/2 163/1/2 156/1/2
f 156/1/2 163/1/2 164/1/2
f 116/2/2 156/2/2 205/2/2
f 205/2/2 156/2/2 207/2/2
f 134/2/2 47/2/2 135/2/2
f 135/2/2 47/2/2 180/2/2
f 180/2/2 48/2/2 49/2/2
f 49/2/2 48/2/2 50/2/2
f 51/2/2 52/2/2 166/2/2
f 166/2/2 52/2/2 168/2/2
f 168/2/2 52/2/2 128/2/2
f 53/2/2 128/2/2 185/2/2
f 128/2/2 52/2/2 188/2/2
f 185/2/2 128/2/2 188/2/2
f 167/2/2 169/2/2 54/2/2
f 54/2/2 169/2/2 129/2/2
f 83/1/2 84/1/2 210/1/2
f 210/1/2 84/1/2 55/1/2
f 157/1/2 197/1/2 57/1/2
f 57/1/2 197/1/2 229/1/2
f 55/1/2 56/1/2 230/1/2
f 230/1/2 56/1/2 58/1/2
f 149/1/2 57/1/2 243/1/2
f 243/1/2 57/1/2 158/1/2
f 58/1/2 59/1/2 244/1/2
f 244/1/2 59/1/2 246/1/2
f 241/1/2 243/1/2 144/1/2
f 144/1/2 243/1/2 253/1/2
f 246/1/2 110/1/2 99/1/2
f 99/1/2 110/1/2 254/1/2
f 60/1/2 144/1/2 61/1/2
f 61/1/2 144/1/2 145/1/2
f 254/1/2 61/1/2 256/1/2
f 256/1/2 61/1/2 136/1/2
f 62/2/2 123/2/2 63/2/2
f 63/2/2 123/2/2 64/2/2
f 65/1/2 184/1/2 67/1/2
f 67/1/2 184/1/2 68/1/2
f 66/1/2 195/1/2 69/1/2
f 69/1/2 195/1/2 159/1/2
f 68/1/2 215/1/2 87/1/2
f 87/1/2 215/1/2 233/1/2
f 224/1/2 69/1/2 72/1/2
f 72/1/2 69/1/2 73/1/2
f 233/1/2 70/1/2 247/1/2
f 247/1/2 70/1/2 250/1/2
f 71/1/2 72/1/2 137/1/2
f 137/1/2 72/1/2 74/1/2
f 250/1/2 137/1/2 111/1/2
f 111/1/2 137/1/2 138/1/2
f 170/1/2 171/1/2 75/1/2
f 75/1/2 171/1/2 125/1/2
f 76/1/2 100/1/2 78/1/2
f 78/1/2 100/1/2 216/1/2
f 77/1/2 193/1/2 146/1/2
f 146/1/2 193/1/2 150/1/2
f 216/1/2 112/1/2 234/1/2
f 234/1/2 112/1/2 79/1/2
f 139/1/2 146/1/2 239/1/2
f 239/1/2 146/1/2 80/1/2
f 79/1/2 239/1/2 251/1/2
f 251/1/2 239/1/2 140/1/2
f 101/1/2 186/1/2 217/1/2
f 217/1/2 186/1/2 113/1/2
f 189/1/2 191/1/2 221/1/2
f 221/1/2 191/1/2 225/1/2
f 113/1/2 221/1/2 236/1/2
f 236/1/2 221/1/2 81/1/2
f 114/1/2 82/1/2 115/1/2
f 115/1/2 82/1/2 222/1/2
f 83/1/3 28/1/3 182/1/3
f 210/1/3 28/1/3 83/1/3
f 183/1/3 15/1/3 14/1/3
f 211/1/3 15/1/3 183/1/3
f 55/1/3 30/1/3 211/1/3
f 230/1/3 30/1/3 55/1/3
f 65/1/3 55/1/3 84/1/3
f 67/1/3 55/1/3 65/1/3
f 85/1/3 212/1/3 9/1/3
f 16/1/3 212/1/3 85/1/3
f 86/1/3 18/1/3 16/1/3
f 231/1/3 18/1/3 86/1/3
f 58/1/3 32/1/3 231/1/3
f 244/1/3 32/1/3 58/1/3
f 68/1/3 58/1/3 56/1/3
f 87/1/3 58/1/3 68/1/3
f 76/1/3 68/1/3 184/1/3
f 78/1/3 68/1/3 76/1/3
f 198/1/3 2/1/3 173/1/3
f 202/1/3 2/1/3 198/1/3
f 172/1/3 198/1/3 88/1/3
f 199/1/3 198/1/3 172/1/3
f 91/1/3 213/1/3 89/1/3
f 92/1/3 213/1/3 91/1/3
f 43/2/3 90/2/3 199/2/3
f 93/2/3 90/2/3 43/2/3
f 214/1/3 11/1/3 92/1/3
f 232/1/3 11/1/3 214/1/3
f 94/2/3 203/2/3 93/2/3
f 204/2/3 203/2/3 94/2/3
f 95/1/3 245/1/3 232/1/3
f 33/1/3 245/1/3 95/1/3
f 246/1/3 96/1/3 33/1/3
f 99/1/3 96/1/3 246/1/3
f 62/2/3 98/2/3 97/2/3
f 63/2/3 98/2/3 62/2/3
f 233/1/3 246/1/3 59/1/3
f 247/1/3 246/1/3 233/1/3
f 170/1/3 41/1/3 63/1/3
f 75/1/3 41/1/3 170/1/3
f 216/1/3 233/1/3 215/1/3
f 234/1/3 233/1/3 216/1/3
f 101/1/3 216/1/3 100/1/3
f 217/1/3 216/1/3 101/1/3
f 102/1/3 5/1/3 3/1/3
f 103/1/3 5/1/3 102/1/3
f 218/1/3 8/1/3 103/1/3
f 235/1/3 8/1/3 218/1/3
f 106/1/3 104/1/3 235/1/3
f 248/1/3 104/1/3 106/1/3
f 122/2/3 105/2/3 121/2/3
f 181/2/3 105/2/3 122/2/3
f 249/1/3 22/1/3 248/1/3
f 107/1/3 22/1/3 249/1/3
f 38/2/3 27/2/3 181/2/3
f 40/2/3 27/2/3 38/2/3
f 51/2/3 38/2/3 37/2/3
f 51/2/3 109/2/3 40/2/3
f 51/2/3 40/2/3 38/2/3
f 166/2/3 109/2/3 51/2/3
f 53/2/3 109/2/3 166/2/3
f 185/2/3 109/2/3 53/2/3
f 167/2/3 53/2/3 166/2/3
f 54/2/3 53/2/3 167/2/3
f 254/1/3 108/1/3 107/1/3
f 256/1/3 108/1/3 254/1/3
f 250/1/3 254/1/3 110/1/3
f 111/1/3 254/1/3 250/1/3
f 79/1/3 250/1/3 70/1/3
f 251/1/3 250/1/3 79/1/3
f 113/1/3 79/1/3 112/1/3
f 236/1/3 79/1/3 113/1/3
f 114/1/3 113/1/3 186/1/3
f 115/1/3 113/1/3 114/1/3
f 180/2/3 39/2/3 179/2/3
f 49/2/3 39/2/3 180/2/3
f 116/2/3 26/2/3 23/2/3
f 205/2/3 26/2/3 116/2/3
f 152/1/3 206/1/3 117/1/3
f 153/1/3 206/1/3 152/1/3
f 176/1/3 152/1/3 175/1/3
f 156/1/3 152/1/3 176/1/3
f 1/1/4 118/1/4 200/1/4
f 200/1/4 118/1/4 119/1/4
f 6/1/4 200/1/4 42/1/4
f 42/1/4 200/1/4 201/1/4
f 201/2/4 120/2/4 44/2/4
f 44/2/4 120/2/4 13/2/4
f 13/2/4 121/2/4 45/2/4
f 45/2/4 121/2/4 122/2/4
f 167/2/4 54/2/4 123/2/4
f 123/2/4 54/2/4 64/2/4
f 64/1/4 124/1/4 171/1/4
f 171/1/4 124/1/4 125/1/4
f 178/2/4 126/2/4 46/2/4
f 46/2/4 126/2/4 25/2/4
f 25/2/4 208/2/4 127/2/4
f 127/2/4 208/2/4 209/2/4
f 168/2/4 128/2/4 169/2/4
f 169/2/4 128/2/4 129/2/4
f 4/1/4 130/1/4 187/1/4
f 187/1/4 130/1/4 219/1/4
f 219/1/4 237/1/4 220/1/4
f 220/1/4 237/1/4 12/1/4
f 12/1/4 252/1/4 238/1/4
f 238/1/4 252/1/4 20/1/4
f 20/1/4 255/1/4 34/1/4
f 34/1/4 255/1/4 36/1/4
f 165/2/4 131/2/4 134/2/4
f 132/2/4 133/2/4 135/2/4
f 165/2/4 134/2/4 52/2/4
f 134/2/4 135/2/4 52/2/4
f 135/2/4 133/2/4 188/2/4
f 52/2/4 135/2/4 188/2/4
f 36/1/4 257/1/4 61/1/4
f 61/1/4 257/1/4 136/1/4
f 60/1/4 61/1/4 137/1/4
f 137/1/4 61/1/4 138/1/4
f 71/1/4 137/1/4 239/1/4
f 239/1/4 137/1/4 140/1/4
f 139/1/4 239/1/4 221/1/4
f 221/1/4 239/1/4 81/1/4
f 189/1/4 221/1/4 82/1/4
f 82/1/4 221/1/4 222/1/4
f 141/1/4 7/1/4 190/1/4
f 190/1/4 7/1/4 223/1/4
f 223/1/4 142/1/4 17/1/4
f 17/1/4 142/1/4 240/1/4
f 240/1/4 21/1/4 31/1/4
f 31/1/4 21/1/4 35/1/4
f 174/2/4 179/2/4 47/2/4
f 47/2/4 179/2/4 180/2/4
f 35/1/4 143/1/4 144/1/4
f 144/1/4 143/1/4 145/1/4
f 241/1/4 144/1/4 72/1/4
f 72/1/4 144/1/4 74/1/4
f 224/1/4 72/1/4 146/1/4
f 146/1/4 72/1/4 80/1/4
f 77/1/4 146/1/4 191/1/4
f 191/1/4 146/1/4 225/1/4
f 10/1/4 226/1/4 192/1/4
f 192/1/4 226/1/4 227/1/4
f 227/1/4 19/1/4 147/1/4
f 147/1/4 19/1/4 242/1/4
f 116/2/4 205/2/4 48/2/4
f 48/2/4 205/2/4 50/2/4
f 242/1/4 148/1/4 243/1/4
f 243/1/4 148/1/4 253/1/4
f 149/1/4 243/1/4 69/1/4
f 69/1/4 243/1/4 73/1/4
f 66/1/4 69/1/4 193/1/4
f 193/1/4 69/1/4 150/1/4
f 151/1/4 228/1/4 194/1/4
f 194/1/4 228/1/4 154/1/4
f 152/2/4 153/2/4 156/2/4
f 156/2/4 153/2/4 207/2/4
f 154/1/4 155/1/4 57/1/4
f 57/1/4 155/1/4 158/1/4
f 157/1/4 57/1/4 195/1/4
f 195/1/4 57/1/4 159/1/4
f 160/1/4 161/1/4 24/1/4
f 24/1/4 161/1/4 162/1/4
f 177/1/4 24/1/4 163/1/4
f 163/1/4 24/1/4 164/1/4
f 196/1/4 29/1/4 197/1/4
f 197/1/4 29/1/4 229/1/4
f 165/2/5 51/2/5 37/2/5
f 52/2/5 51/2/5 165/2/5
f 167/2/5 62/2/5 97/2/5
f 123/2/5 62/2/5 167/2/5
f 168/2/5 167/2/5 166/2/5
f 169/2/5 167/2/5 168/2/5
f 64/1/5 170/1/5 63/1/5
f 171/1/5 170/1/5 64/1/5
f 6/1/5 172/1/5 88/1/5
f 42/1/5 172/1/5 6/1/5
f 1/1/5 198/1/5 173/1/5
f 200/1/5 198/1/5 1/1/5
f 201/2/5 43/2/5 199/2/5
f 44/2/5 43/2/5 201/2/5
f 13/2/5 94/2/5 93/2/5
f 45/2/5 94/2/5 13/2/5
f 174/2/5 134/2/5 131/2/5
f 47/2/5 134/2/5 174/2/5
f 177/1/5 176/1/5 175/1/5
f 163/1/5 176/1/5 177/1/5
f 178/2/5 122/2/5 121/2/5
f 46/2/5 122/2/5 178/2/5
f 116/2/5 180/2/5 179/2/5
f 48/2/5 180/2/5 116/2/5
f 152/2/5 116/2/5 23/2/5
f 156/2/5 116/2/5 152/2/5
f 160/1/5 152/1/5 117/1/5
f 24/1/5 152/1/5 160/1/5
f 25/2/5 38/2/5 181/2/5
f 127/2/5 38/2/5 25/2/5
f 183/1/5 83/1/5 182/1/5
f 84/1/5 83/1/5 183/1/5
f 85/1/5 183/1/5 14/1/5
f 85/1/5 65/1/5 84/1/5
f 85/1/5 84/1/5 183/1/5
f 184/1/5 65/1/5 85/1/5
f 91/1/5 85/1/5 9/1/5
f 91/1/5 76/1/5 184/1/5
f 91/1/5 184/1/5 85/1/5
f 100/1/5 76/1/5 91/1/5
f 102/1/5 91/1/5 89/1/5
f 102/1/5 101/1/5 100/1/5
f 102/1/5 100/1/5 91/1/5
f 109/1/5 101/1/5 102/1/5
f 185/1/5 101/1/5 109/1/5
f 186/1/5 101/1/5 185/1/5
f 4/1/5 102/1/5 3/1/5
f 4/1/5 109/1/5 102/1/5
f 187/1/5 109/1/5 4/1/5
f 133/1/5 109/1/5 187/1/5
f 188/1/5 114/1/5 186/1/5
f 188/1/5 186/1/5 185/1/5
f 189/1/5 114/1/5 188/1/5
f 82/1/5 114/1/5 189/1/5
f 141/1/5 133/1/5 187/1/5
f 141/1/5 189/1/5 188/1/5
f 141/1/5 188/1/5 133/1/5
f 190/1/5 189/1/5 141/1/5
f 77/1/5 189/1/5 190/1/5
f 191/1/5 189/1/5 77/1/5
f 10/1/5 77/1/5 190/1/5
f 192/1/5 77/1/5 10/1/5
f 66/1/5 77/1/5 192/1/5
f 193/1/5 77/1/5 66/1/5
f 151/1/5 66/1/5 192/1/5
f 194/1/5 66/1/5 151/1/5
f 157/1/5 66/1/5 194/1/5
f 195/1/5 66/1/5 157/1/5
f 196/1/5 157/1/5 194/1/5
f 197/1/5 157/1/5 196/1/5
f 98/2/6 63/2/6 54/2/6
f 54/2/6 63/2/6 64/2/6
f 53/2/6 54/2/6 128/2/6
f 128/2/6 54/2/6 129/2/6
f 41/1/6 75/1/6 124/1/6
f 124/1/6 75/1/6 125/1/6
f 198/1/6 199/1/6 200/1/6
f 200/1/6 199/1/6 201/1/6
f 2/1/6 202/1/6 118/1/6
f 118/1/6 202/1/6 119/1/6
f 90/2/6 93/2/6 120/2/6
f 120/2/6 93/2/6 13/2/6
f 203/2/6 204/2/6 121/2/6
f 121/2/6 204/2/6 122/2/6
f 132/2/6 135/2/6 179/2/6
f 179/2/6 135/2/6 180/2/6
f 152/1/6 156/1/6 24/1/6
f 24/1/6 156/1/6 164/1/6
f 105/2/6 181/2/6 126/2/6
f 126/2/6 181/2/6 25/2/6
f 39/2/6 49/2/6 205/2/6
f 205/2/6 49/2/6 50/2/6
f 26/2/6 205/2/6 153/2/6
f 153/2/6 205/2/6 207/2/6
f 206/1/6 153/1/6 161/1/6
f 161/1/6 153/1/6 162/1/6
f 27/2/6 40/2/6 208/2/6
f 208/2/6 40/2/6 209/2/6
f 28/1/6 210/1/6 211/1/6
f 211/1/6 210/1/6 55/1/6
f 15/1/6 211/1/6 16/1/6
f 16/1/6 211/1/6 86/1/6
f 55/1/6 67/1/6 56/1/6
f 56/1/6 67/1/6 68/1/6
f 212/1/6 16/1/6 92/1/6
f 92/1/6 16/1/6 214/1/6
f 68/1/6 78/1/6 215/1/6
f 215/1/6 78/1/6 216/1/6
f 213/1/6 92/1/6 103/1/6
f 103/1/6 92/1/6 218/1/6
f 216/1/6 217/1/6 112/1/6
f 112/1/6 217/1/6 113/1/6
f 5/1/6 103/1/6 130/1/6
f 130/1/6 103/1/6 219/1/6
f 113/1/6 115/1/6 221/1/6
f 221/1/6 115/1/6 222/1/6
f 219/1/6 220/1/6 7/1/6
f 7/1/6 220/1/6 223/1/6
f 139/1/6 221/1/6 146/1/6
f 146/1/6 221/1/6 225/1/6
f 223/1/6 17/1/6 226/1/6
f 226/1/6 17/1/6 227/1/6
f 224/1/6 146/1/6 69/1/6
f 69/1/6 146/1/6 150/1/6
f 227/1/6 147/1/6 228/1/6
f 228/1/6 147/1/6 154/1/6
f 149/1/6 69/1/6 57/1/6
f 57/1/6 69/1/6 159/1/6
f 154/1/6 57/1/6 29/1/6
f 29/1/6 57/1/6 229/1/6
f 30/1/6 230/1/6 231/1/6
f 231/1/6 230/1/6 58/1/6
f 18/1/6 231/1/6 232/1/6
f 232/1/6 231/1/6 95/1/6
f 58/1/6 87/1/6 59/1/6
f 59/1/6 87/1/6 233/1/6
f 11/1/6 232/1/6 235/1/6
f 235/1/6 232/1/6 106/1/6
f 233/1/6 234/1/6 70/1/6
f 70/1/6 234/1/6 79/1/6
f 8/1/6 235/1/6 237/1/6
f 237/1/6 235/1/6 12/1/6
f 79/1/6 236/1/6 239/1/6
f 239/1/6 236/1/6 81/1/6
f 12/1/6 238/1/6 142/1/6
f 142/1/6 238/1/6 240/1/6
f 71/1/6 239/1/6 72/1/6
f 72/1/6 239/1/6 80/1/6
f 240/1/6 31/1/6 19/1/6
f 19/1/6 31/1/6 242/1/6
f 241/1/6 72/1/6 243/1/6
f 243/1/6 72/1/6 73/1/6
f 242/1/6 243/1/6 155/1/6
f 155/1/6 243/1/6 158/1/6
f 32/1/6 244/1/6 33/1/6
f 33/1/6 244/1/6 246/1/6
f 245/1/6 33/1/6 248/1/6
f 248/1/6 33/1/6 249/1/6
f 246/1/6 247/1/6 110/1/6
f 110/1/6 247/1/6 250/1/6
f 104/1/6 248/1/6 252/1/6
f 252/1/6 248/1/6 20/1/6
f 250/1/6 251/1/6 137/1/6
f 137/1/6 251/1/6 140/1/6
f 20/1/6 34/1/6 21/1/6
f 21/1/6 34/1/6 35/1/6
f 60/1/6 137/1/6 144/1/6
f 144/1/6 137/1/6 74/1/6
f 35/1/6 144/1/6 148/1/6
f 148/1/6 144/1/6 253/1/6
f 96/1/6 99/1/6 107/1/6
f 107/1/6 99/1/6 254/1/6
f 22/1/6 107/1/6 255/1/6
f 255/1/6 107/1/6 36/1/6
f 254/1/6 111/1/6 61/1/6
f 61/1/6 111/1/6 138/1/6
f 36/1/6 61/1/6 143/1/6
f 143/1/6 61/1/6 145/1/6
f 108/1/6 256/1/6 257/1/6
f 257/1/6 256/1/6 136/1/6
