# Blender 3.6.1
# www.blender.org
mtllib Wood Roof Cone.mtl
o Roof_Cone
v -2.000000 0.000000 2.000000
v -2.000000 0.100000 2.000000
v -1.900000 0.100000 1.900000
v -1.900000 0.100000 -1.900000
v -1.900000 0.200000 -1.900000
v -1.800000 0.200000 1.800000
v -1.800000 0.200000 -1.800000
v -1.800000 0.300000 1.800000
v -1.700000 0.300000 1.700000
v -1.700000 0.400000 -1.700000
v -1.600000 0.500000 1.600000
v -1.400000 0.600000 -1.400000
v -1.300000 0.700000 -1.300000
v -1.300000 0.800000 -1.300000
v -1.200000 0.900000 -1.200000
v -1.100000 1.000000 1.100000
v -0.700000 1.400000 0.700000
v -0.500000 1.500000 0.500000
v -0.400000 1.600000 -0.400000
v -0.400000 1.700000 -0.400000
v -0.300000 1.700000 -0.300000
v -0.300000 1.800000 -0.300000
v 0.100000 1.600000 0.100000
v 0.200000 1.500000 0.200000
v 0.200000 1.600000 0.200000
v 0.300000 1.400000 -0.300000
v 0.300000 1.500000 -0.300000
v 0.400000 1.300000 0.400000
v 0.400000 1.400000 0.400000
v 0.400000 1.400000 -0.400000
v 0.500000 1.200000 -0.500000
v 0.500000 1.300000 0.500000
v 0.600000 1.100000 -0.600000
v 0.600000 1.200000 -0.600000
v 0.800000 1.000000 0.800000
v 0.800000 1.000000 -0.800000
v 0.900000 0.800000 0.900000
v 0.900000 0.900000 -0.900000
v 1.000000 0.700000 1.000000
v 1.000000 0.700000 -1.000000
v 1.000000 0.800000 1.000000
v 1.100000 0.600000 1.100000
v 1.100000 0.700000 1.100000
v 1.100000 0.700000 -1.100000
v 1.200000 0.500000 1.200000
v 1.200000 0.600000 1.200000
v 1.300000 0.400000 1.300000
v 1.400000 0.300000 1.400000
v 1.500000 0.200000 1.500000
v 1.500000 0.300000 1.500000
v 1.600000 0.100000 -1.600000
v 1.700000 0.100000 1.700000
v -1.700000 -0.000000 -1.700000
v -1.700000 0.100000 -1.700000
v -1.600000 0.100000 1.600000
v -1.500000 0.200000 1.500000
v -1.500000 0.200000 -1.500000
v -1.500000 0.300000 -1.500000
v -1.400000 0.300000 -1.400000
v -1.300000 0.400000 1.300000
v -1.300000 0.400000 -1.300000
v -1.300000 0.500000 -1.300000
v -1.100000 0.700000 1.100000
v -1.100000 0.700000 -1.100000
v -1.000000 0.800000 1.000000
v -0.900000 0.800000 -0.900000
v -0.800000 0.900000 0.800000
v -0.800000 0.900000 -0.800000
v -0.800000 1.000000 0.800000
v -0.800000 1.000000 -0.800000
v -0.700000 1.000000 -0.700000
v -0.600000 1.100000 -0.600000
v -0.500000 1.200000 0.500000
v -0.400000 1.300000 0.400000
v -0.400000 1.300000 -0.400000
v -0.400000 1.400000 0.400000
v -0.400000 1.400000 -0.400000
v -0.300000 1.400000 0.300000
v -0.300000 1.400000 -0.300000
v -0.300000 1.500000 0.300000
v -0.300000 1.500000 -0.300000
v -0.200000 1.600000 -0.200000
v -0.100000 1.700000 -0.100000
v 0.100000 1.900000 0.100000
v 0.100000 1.900000 -0.100000
v 0.100000 2.000000 0.100000
v 0.200000 1.800000 0.200000
v 0.200000 1.800000 -0.200000
v 0.200000 1.900000 0.200000
v 0.300000 1.700000 -0.300000
v 0.300000 1.800000 -0.300000
v 0.400000 1.600000 0.400000
v 0.400000 1.600000 -0.400000
v 0.500000 1.600000 0.500000
v 0.600000 1.400000 0.600000
v 0.700000 1.300000 -0.700000
v 0.800000 1.200000 0.800000
v 1.000000 1.000000 -1.000000
v 1.100000 1.000000 1.100000
v 1.100000 1.000000 -1.100000
v 1.200000 0.900000 1.200000
v 1.200000 0.900000 -1.200000
v 1.400000 0.700000 -1.400000
v 1.600000 0.500000 -1.600000
v 1.800000 0.300000 1.800000
v 2.000000 0.100000 -2.000000
v 2.000000 0.100000 2.000000
v -1.900000 0.200000 1.900000
v 1.900000 0.100000 1.900000
v 1.900000 0.200000 1.900000
v -1.700000 0.400000 1.700000
v 1.600000 0.400000 1.600000
v -1.500000 0.500000 1.500000
v 1.500000 0.500000 1.500000
v -1.400000 0.600000 1.400000
v -1.400000 0.700000 1.400000
v 1.400000 0.600000 1.400000
v 1.400000 0.700000 1.400000
v -1.300000 0.700000 1.300000
v 1.300000 0.800000 1.300000
v -1.100000 0.900000 1.100000
v 1.000000 1.000000 1.000000
v 1.000000 1.100000 1.000000
v -0.900000 1.200000 0.900000
v 0.900000 1.100000 0.900000
v -0.600000 1.400000 0.600000
v -0.400000 1.600000 0.400000
v -0.300000 1.700000 0.300000
v 0.300000 1.700000 0.300000
v 0.300000 1.800000 0.300000
v -0.200000 1.800000 0.200000
v 0.100000 1.700000 -0.100000
v 0.200000 1.500000 -0.200000
v 0.200000 1.600000 -0.200000
v 0.400000 1.300000 -0.400000
v -0.500000 1.200000 -0.500000
v 0.700000 1.000000 -0.700000
v 0.900000 0.800000 -0.900000
v -1.000000 0.800000 -1.000000
v -1.100000 0.600000 -1.100000
v 1.100000 0.600000 -1.100000
v 1.300000 0.400000 -1.300000
v 1.300000 0.500000 -1.300000
v 1.400000 0.300000 -1.400000
v -1.600000 0.100000 -1.600000
v -1.600000 0.200000 -1.600000
v -1.600000 0.200000 1.600000
v 1.600000 0.200000 1.600000
v -1.400000 0.400000 1.400000
v -1.200000 0.500000 1.200000
v -1.100000 0.600000 1.100000
v 0.900000 0.900000 0.900000
v -0.700000 1.000000 0.700000
v -0.700000 1.100000 0.700000
v 0.700000 1.100000 0.700000
v -0.600000 1.100000 0.600000
v -0.600000 1.200000 0.600000
v -0.500000 1.300000 0.500000
v 0.500000 1.200000 0.500000
v 0.300000 1.400000 0.300000
v -0.200000 1.600000 0.200000
v -0.100000 1.600000 0.100000
v 0.100000 1.700000 0.100000
v -0.200000 1.800000 -0.200000
v 0.200000 1.900000 -0.200000
v -0.600000 1.500000 -0.600000
v 0.600000 1.400000 -0.600000
v 0.600000 1.500000 -0.600000
v 0.700000 1.400000 -0.700000
v 0.800000 1.300000 -0.800000
v -0.900000 1.100000 -0.900000
v -0.900000 1.200000 -0.900000
v 0.900000 1.100000 -0.900000
v -1.000000 1.000000 -1.000000
v 1.000000 1.100000 -1.000000
v -1.100000 1.000000 -1.100000
v -1.200000 0.800000 -1.200000
v 1.200000 0.800000 -1.200000
v 1.300000 0.700000 -1.300000
v 1.400000 0.600000 -1.400000
v -1.500000 0.600000 -1.500000
v 1.600000 0.400000 -1.600000
v -1.700000 0.300000 -1.700000
v 1.700000 0.300000 -1.700000
v 1.700000 0.400000 -1.700000
v 1.800000 0.200000 -1.800000
v 1.900000 0.100000 -1.900000
v 1.900000 0.200000 -1.900000
v -2.000000 -0.000000 -2.000000
v 2.000000 -0.000000 -2.000000
v 2.000000 0.000000 2.000000
v -1.700000 0.000000 1.700000
v 1.700000 0.000000 1.700000
v 1.700000 -0.000000 -1.700000
v -1.700000 0.100000 1.700000
v 1.600000 0.100000 1.600000
v 1.700000 0.100000 -1.700000
v 1.500000 0.200000 -1.500000
v 1.600000 0.200000 -1.600000
v -1.500000 0.300000 1.500000
v -1.400000 0.300000 1.400000
v 1.500000 0.300000 -1.500000
v 1.400000 0.400000 1.400000
v -1.400000 0.400000 -1.400000
v 1.400000 0.400000 -1.400000
v -1.300000 0.500000 1.300000
v 1.300000 0.500000 1.300000
v -1.200000 0.500000 -1.200000
v 1.200000 0.500000 -1.200000
v -1.200000 0.600000 1.200000
v -1.200000 0.600000 -1.200000
v 1.200000 0.600000 -1.200000
v -1.000000 0.700000 1.000000
v -1.000000 0.700000 -1.000000
v -0.900000 0.800000 0.900000
v 1.000000 0.800000 -1.000000
v -0.900000 0.900000 0.900000
v 0.800000 0.900000 0.800000
v 0.800000 0.900000 -0.800000
v -0.900000 0.900000 -0.900000
v 0.700000 1.000000 0.700000
v 0.600000 1.100000 0.600000
v -0.700000 1.100000 -0.700000
v 0.700000 1.100000 -0.700000
v 0.600000 1.200000 0.600000
v -0.600000 1.200000 -0.600000
v -0.500000 1.300000 -0.500000
v 0.500000 1.300000 -0.500000
v 0.300000 1.500000 0.300000
v -0.200000 1.500000 0.200000
v -0.200000 1.500000 -0.200000
v -0.100000 1.600000 -0.100000
v 0.100000 1.600000 -0.100000
v -0.100000 1.700000 0.100000
v -2.000000 0.100000 -2.000000
v 1.800000 0.200000 1.800000
v 1.700000 0.300000 1.700000
v -1.800000 0.300000 -1.800000
v 1.800000 0.300000 -1.800000
v 1.700000 0.400000 1.700000
v -1.600000 0.400000 1.600000
v -1.600000 0.400000 -1.600000
v 1.600000 0.500000 1.600000
v -1.500000 0.500000 -1.500000
v 1.500000 0.500000 -1.500000
v -1.600000 0.500000 -1.600000
v -1.500000 0.600000 1.500000
v 1.500000 0.600000 1.500000
v 1.500000 0.600000 -1.500000
v 1.300000 0.700000 1.300000
v -1.400000 0.700000 -1.400000
v -1.300000 0.800000 1.300000
v -1.200000 0.800000 1.200000
v 1.200000 0.800000 1.200000
v 1.300000 0.800000 -1.300000
v -1.200000 0.900000 1.200000
v 1.100000 0.900000 1.100000
v -1.100000 0.900000 -1.100000
v 1.100000 0.900000 -1.100000
v -1.000000 1.000000 1.000000
v -1.000000 1.100000 1.000000
v -0.900000 1.100000 0.900000
v -1.000000 1.100000 -1.000000
v 0.900000 1.200000 0.900000
v -0.800000 1.200000 0.800000
v -0.800000 1.200000 -0.800000
v 0.800000 1.200000 -0.800000
v 0.900000 1.200000 -0.900000
v -0.800000 1.300000 0.800000
v 0.800000 1.300000 0.800000
v -0.700000 1.300000 0.700000
v 0.700000 1.300000 0.700000
v -0.700000 1.300000 -0.700000
v -0.800000 1.300000 -0.800000
v 0.700000 1.400000 0.700000
v -0.600000 1.400000 -0.600000
v -0.700000 1.400000 -0.700000
v -0.600000 1.500000 0.600000
v 0.600000 1.500000 0.600000
v 0.500000 1.500000 0.500000
v -0.500000 1.500000 -0.500000
v 0.500000 1.500000 -0.500000
v -0.500000 1.600000 0.500000
v -0.500000 1.600000 -0.500000
v 0.500000 1.600000 -0.500000
v -0.400000 1.700000 0.400000
v 0.400000 1.700000 0.400000
v 0.400000 1.700000 -0.400000
v -0.300000 1.800000 0.300000
v -0.200000 1.900000 0.200000
v -0.100000 1.900000 0.100000
v -0.100000 1.900000 -0.100000
v -0.200000 1.900000 -0.200000
v -0.100000 2.000000 0.100000
v -0.100000 2.000000 -0.100000
v 0.100000 2.000000 -0.100000
vn -1.0000 -0.0000 -0.0000
vn 1.0000 -0.0000 -0.0000
vn -0.0000 -0.0000 1.0000
vn -0.0000 -0.0000 -1.0000
vn -0.0000 -1.0000 -0.0000
vn -0.0000 1.0000 -0.0000
vt 0.888672 0.500000
s 0
usemtl palette.004
f 2/1/1 189/1/1 1/1/1
f 235/1/1 189/1/1 2/1/1
f 108/1/1 4/1/1 3/1/1
f 5/1/1 4/1/1 108/1/1
f 8/1/1 7/1/1 6/1/1
f 238/1/1 7/1/1 8/1/1
f 111/1/1 183/1/1 9/1/1
f 10/1/1 183/1/1 111/1/1
f 11/1/1 242/1/1 241/1/1
f 246/1/1 242/1/1 11/1/1
f 247/1/1 244/1/1 113/1/1
f 181/1/1 244/1/1 247/1/1
f 116/1/1 12/1/1 115/1/1
f 251/1/1 12/1/1 116/1/1
f 252/1/1 13/1/1 119/1/1
f 14/1/1 13/1/1 252/1/1
f 256/1/1 177/1/1 253/1/1
f 15/1/1 177/1/1 256/1/1
f 16/1/1 258/1/1 121/1/1
f 176/1/1 258/1/1 16/1/1
f 261/1/1 174/1/1 260/1/1
f 263/1/1 174/1/1 261/1/1
f 124/1/1 171/1/1 262/1/1
f 172/1/1 171/1/1 124/1/1
f 269/1/1 266/1/1 265/1/1
f 274/1/1 266/1/1 269/1/1
f 17/1/1 273/1/1 271/1/1
f 277/1/1 273/1/1 17/1/1
f 278/1/1 276/1/1 126/1/1
f 166/1/1 276/1/1 278/1/1
f 283/1/1 281/1/1 18/1/1
f 284/1/1 281/1/1 283/1/1
f 286/1/1 19/1/1 127/1/1
f 20/1/1 19/1/1 286/1/1
f 289/1/1 21/1/1 128/1/1
f 22/1/1 21/1/1 289/1/1
f 290/1/1 164/1/1 131/1/1
f 293/1/1 164/1/1 290/1/1
f 294/1/1 292/1/1 291/1/1
f 295/1/1 292/1/1 294/1/1
f 163/1/1 233/1/1 23/1/1
f 132/1/1 233/1/1 163/1/1
f 25/1/1 133/1/1 24/1/1
f 134/1/1 133/1/1 25/1/1
f 229/1/1 26/1/1 160/1/1
f 27/1/1 26/1/1 229/1/1
f 29/1/1 135/1/1 28/1/1
f 30/1/1 135/1/1 29/1/1
f 32/1/1 31/1/1 159/1/1
f 228/1/1 31/1/1 32/1/1
f 225/1/1 33/1/1 222/1/1
f 34/1/1 33/1/1 225/1/1
f 155/1/1 137/1/1 221/1/1
f 224/1/1 137/1/1 155/1/1
f 35/1/1 219/1/1 218/1/1
f 36/1/1 219/1/1 35/1/1
f 152/1/1 138/1/1 37/1/1
f 38/1/1 138/1/1 152/1/1
f 41/1/1 40/1/1 39/1/1
f 216/1/1 40/1/1 41/1/1
f 43/1/1 141/1/1 42/1/1
f 44/1/1 141/1/1 43/1/1
f 46/1/1 209/1/1 45/1/1
f 212/1/1 209/1/1 46/1/1
f 207/1/1 142/1/1 47/1/1
f 143/1/1 142/1/1 207/1/1
f 203/1/1 144/1/1 48/1/1
f 205/1/1 144/1/1 203/1/1
f 50/1/1 198/1/1 49/1/1
f 202/1/1 198/1/1 50/1/1
f 148/1/1 51/1/1 196/1/1
f 199/1/1 51/1/1 148/1/1
f 52/1/1 194/1/1 193/1/1
f 197/1/1 194/1/1 52/1/1
f 192/1/2 53/1/2 195/1/2
f 195/1/2 53/1/2 54/1/2
f 55/1/2 145/1/2 147/1/2
f 147/1/2 145/1/2 146/1/2
f 56/1/2 57/1/2 200/1/2
f 200/1/2 57/1/2 58/1/2
f 201/1/2 59/1/2 149/1/2
f 149/1/2 59/1/2 204/1/2
f 60/1/2 61/1/2 206/1/2
f 206/1/2 61/1/2 62/1/2
f 150/1/2 208/1/2 210/1/2
f 210/1/2 208/1/2 211/1/2
f 151/1/2 140/1/2 63/1/2
f 63/1/2 140/1/2 64/1/2
f 213/1/2 214/1/2 65/1/2
f 65/1/2 214/1/2 139/1/2
f 215/1/2 66/1/2 217/1/2
f 217/1/2 66/1/2 220/1/2
f 67/1/2 68/1/2 69/1/2
f 69/1/2 68/1/2 70/1/2
f 153/1/2 71/1/2 154/1/2
f 154/1/2 71/1/2 223/1/2
f 156/1/2 72/1/2 157/1/2
f 157/1/2 72/1/2 226/1/2
f 73/1/2 136/1/2 158/1/2
f 158/1/2 136/1/2 227/1/2
f 74/1/2 75/1/2 76/1/2
f 76/1/2 75/1/2 77/1/2
f 78/1/2 79/1/2 80/1/2
f 80/1/2 79/1/2 81/1/2
f 230/1/2 231/1/2 161/1/2
f 161/1/2 231/1/2 82/1/2
f 162/1/2 232/1/2 234/1/2
f 234/1/2 232/1/2 83/1/2
f 84/1/2 85/1/2 86/1/2
f 86/1/2 85/1/2 296/1/2
f 87/1/2 88/1/2 89/1/2
f 89/1/2 88/1/2 165/1/2
f 129/1/2 90/1/2 130/1/2
f 130/1/2 90/1/2 91/1/2
f 92/1/2 93/1/2 287/1/2
f 287/1/2 93/1/2 288/1/2
f 280/1/2 282/1/2 94/1/2
f 94/1/2 282/1/2 285/1/2
f 95/1/2 167/1/2 279/1/2
f 279/1/2 167/1/2 168/1/2
f 272/1/2 96/1/2 275/1/2
f 275/1/2 96/1/2 169/1/2
f 97/1/2 267/1/2 270/1/2
f 270/1/2 267/1/2 170/1/2
f 125/1/2 173/1/2 264/1/2
f 264/1/2 173/1/2 268/1/2
f 122/1/2 98/1/2 123/1/2
f 123/1/2 98/1/2 175/1/2
f 257/1/2 259/1/2 99/1/2
f 99/1/2 259/1/2 100/1/2
f 254/1/2 178/1/2 101/1/2
f 101/1/2 178/1/2 102/1/2
f 250/1/2 179/1/2 120/1/2
f 120/1/2 179/1/2 255/1/2
f 117/1/2 180/1/2 118/1/2
f 118/1/2 180/1/2 103/1/2
f 114/1/2 245/1/2 248/1/2
f 248/1/2 245/1/2 249/1/2
f 112/1/2 182/1/2 243/1/2
f 243/1/2 182/1/2 104/1/2
f 237/1/2 184/1/2 240/1/2
f 240/1/2 184/1/2 185/1/2
f 236/1/2 186/1/2 105/1/2
f 105/1/2 186/1/2 239/1/2
f 109/1/2 187/1/2 110/1/2
f 110/1/2 187/1/2 188/1/2
f 191/1/2 190/1/2 107/1/2
f 107/1/2 190/1/2 106/1/2
f 191/1/3 2/1/3 1/1/3
f 107/1/3 2/1/3 191/1/3
f 109/1/3 108/1/3 3/1/3
f 110/1/3 108/1/3 109/1/3
f 236/1/3 8/1/3 6/1/3
f 105/1/3 8/1/3 236/1/3
f 237/1/3 111/1/3 9/1/3
f 240/1/3 111/1/3 237/1/3
f 112/1/3 11/1/3 241/1/3
f 243/1/3 11/1/3 112/1/3
f 114/1/3 247/1/3 113/1/3
f 248/1/3 247/1/3 114/1/3
f 117/1/3 116/1/3 115/1/3
f 118/1/3 116/1/3 117/1/3
f 250/1/3 252/1/3 119/1/3
f 120/1/3 252/1/3 250/1/3
f 254/1/3 256/1/3 253/1/3
f 101/1/3 256/1/3 254/1/3
f 257/1/3 16/1/3 121/1/3
f 99/1/3 16/1/3 257/1/3
f 122/1/3 261/1/3 260/1/3
f 123/1/3 261/1/3 122/1/3
f 125/1/3 124/1/3 262/1/3
f 264/1/3 124/1/3 125/1/3
f 97/1/3 269/1/3 265/1/3
f 270/1/3 269/1/3 97/1/3
f 272/1/3 17/1/3 271/1/3
f 275/1/3 17/1/3 272/1/3
f 95/1/3 278/1/3 126/1/3
f 279/1/3 278/1/3 95/1/3
f 280/1/3 283/1/3 18/1/3
f 94/1/3 283/1/3 280/1/3
f 92/1/3 286/1/3 127/1/3
f 287/1/3 286/1/3 92/1/3
f 129/1/3 289/1/3 128/1/3
f 130/1/3 289/1/3 129/1/3
f 87/1/3 290/1/3 131/1/3
f 89/1/3 290/1/3 87/1/3
f 84/1/3 294/1/3 291/1/3
f 86/1/3 294/1/3 84/1/3
f 233/1/3 83/1/3 232/1/3
f 132/1/3 83/1/3 233/1/3
f 133/1/3 82/1/3 231/1/3
f 134/1/3 82/1/3 133/1/3
f 26/1/3 81/1/3 79/1/3
f 27/1/3 81/1/3 26/1/3
f 135/1/3 77/1/3 75/1/3
f 30/1/3 77/1/3 135/1/3
f 31/1/3 227/1/3 136/1/3
f 228/1/3 227/1/3 31/1/3
f 33/1/3 226/1/3 72/1/3
f 34/1/3 226/1/3 33/1/3
f 137/1/3 223/1/3 71/1/3
f 224/1/3 223/1/3 137/1/3
f 219/1/3 70/1/3 68/1/3
f 36/1/3 70/1/3 219/1/3
f 138/1/3 220/1/3 66/1/3
f 38/1/3 220/1/3 138/1/3
f 40/1/3 139/1/3 214/1/3
f 216/1/3 139/1/3 40/1/3
f 141/1/3 64/1/3 140/1/3
f 44/1/3 64/1/3 141/1/3
f 209/1/3 211/1/3 208/1/3
f 212/1/3 211/1/3 209/1/3
f 142/1/3 62/1/3 61/1/3
f 143/1/3 62/1/3 142/1/3
f 144/1/3 204/1/3 59/1/3
f 205/1/3 204/1/3 144/1/3
f 198/1/3 58/1/3 57/1/3
f 202/1/3 58/1/3 198/1/3
f 51/1/3 146/1/3 145/1/3
f 199/1/3 146/1/3 51/1/3
f 194/1/3 54/1/3 53/1/3
f 197/1/3 54/1/3 194/1/3
f 192/1/4 195/1/4 193/1/4
f 193/1/4 195/1/4 52/1/4
f 55/1/4 147/1/4 196/1/4
f 196/1/4 147/1/4 148/1/4
f 56/1/4 200/1/4 49/1/4
f 49/1/4 200/1/4 50/1/4
f 201/1/4 149/1/4 48/1/4
f 48/1/4 149/1/4 203/1/4
f 60/1/4 206/1/4 47/1/4
f 47/1/4 206/1/4 207/1/4
f 150/1/4 210/1/4 45/1/4
f 45/1/4 210/1/4 46/1/4
f 151/1/4 63/1/4 42/1/4
f 42/1/4 63/1/4 43/1/4
f 213/1/4 65/1/4 39/1/4
f 39/1/4 65/1/4 41/1/4
f 215/1/4 217/1/4 37/1/4
f 37/1/4 217/1/4 152/1/4
f 67/1/4 69/1/4 218/1/4
f 218/1/4 69/1/4 35/1/4
f 153/1/4 154/1/4 221/1/4
f 221/1/4 154/1/4 155/1/4
f 156/1/4 157/1/4 222/1/4
f 222/1/4 157/1/4 225/1/4
f 73/1/4 158/1/4 159/1/4
f 159/1/4 158/1/4 32/1/4
f 74/1/4 76/1/4 28/1/4
f 28/1/4 76/1/4 29/1/4
f 78/1/4 80/1/4 160/1/4
f 160/1/4 80/1/4 229/1/4
f 230/1/4 161/1/4 24/1/4
f 24/1/4 161/1/4 25/1/4
f 162/1/4 234/1/4 23/1/4
f 23/1/4 234/1/4 163/1/4
f 292/1/4 295/1/4 85/1/4
f 85/1/4 295/1/4 296/1/4
f 164/1/4 293/1/4 88/1/4
f 88/1/4 293/1/4 165/1/4
f 21/1/4 22/1/4 90/1/4
f 90/1/4 22/1/4 91/1/4
f 19/1/4 20/1/4 93/1/4
f 93/1/4 20/1/4 288/1/4
f 281/1/4 284/1/4 282/1/4
f 282/1/4 284/1/4 285/1/4
f 276/1/4 166/1/4 167/1/4
f 167/1/4 166/1/4 168/1/4
f 273/1/4 277/1/4 96/1/4
f 96/1/4 277/1/4 169/1/4
f 266/1/4 274/1/4 267/1/4
f 267/1/4 274/1/4 170/1/4
f 171/1/4 172/1/4 173/1/4
f 173/1/4 172/1/4 268/1/4
f 174/1/4 263/1/4 98/1/4
f 98/1/4 263/1/4 175/1/4
f 258/1/4 176/1/4 259/1/4
f 259/1/4 176/1/4 100/1/4
f 177/1/4 15/1/4 178/1/4
f 178/1/4 15/1/4 102/1/4
f 13/1/4 14/1/4 179/1/4
f 179/1/4 14/1/4 255/1/4
f 12/1/4 251/1/4 180/1/4
f 180/1/4 251/1/4 103/1/4
f 244/1/4 181/1/4 245/1/4
f 245/1/4 181/1/4 249/1/4
f 242/1/4 246/1/4 182/1/4
f 182/1/4 246/1/4 104/1/4
f 183/1/4 10/1/4 184/1/4
f 184/1/4 10/1/4 185/1/4
f 7/1/4 238/1/4 186/1/4
f 186/1/4 238/1/4 239/1/4
f 4/1/4 5/1/4 187/1/4
f 187/1/4 5/1/4 188/1/4
f 189/1/4 235/1/4 190/1/4
f 190/1/4 235/1/4 106/1/4
f 192/1/5 191/1/5 1/1/5
f 193/1/5 191/1/5 192/1/5
f 53/1/5 192/1/5 1/1/5
f 194/1/5 191/1/5 193/1/5
f 189/1/5 53/1/5 1/1/5
f 189/1/5 194/1/5 53/1/5
f 190/1/5 191/1/5 194/1/5
f 190/1/5 194/1/5 189/1/5
f 55/1/5 52/1/5 195/1/5
f 196/1/5 52/1/5 55/1/5
f 145/1/5 55/1/5 195/1/5
f 51/1/5 52/1/5 196/1/5
f 54/1/5 145/1/5 195/1/5
f 54/1/5 51/1/5 145/1/5
f 197/1/5 52/1/5 51/1/5
f 197/1/5 51/1/5 54/1/5
f 56/1/5 148/1/5 147/1/5
f 49/1/5 148/1/5 56/1/5
f 57/1/5 56/1/5 147/1/5
f 198/1/5 148/1/5 49/1/5
f 146/1/5 57/1/5 147/1/5
f 146/1/5 198/1/5 57/1/5
f 199/1/5 148/1/5 198/1/5
f 199/1/5 198/1/5 146/1/5
f 201/1/5 50/1/5 200/1/5
f 48/1/5 50/1/5 201/1/5
f 59/1/5 201/1/5 200/1/5
f 144/1/5 50/1/5 48/1/5
f 58/1/5 59/1/5 200/1/5
f 58/1/5 144/1/5 59/1/5
f 202/1/5 50/1/5 144/1/5
f 202/1/5 144/1/5 58/1/5
f 60/1/5 203/1/5 149/1/5
f 47/1/5 203/1/5 60/1/5
f 61/1/5 60/1/5 149/1/5
f 142/1/5 203/1/5 47/1/5
f 204/1/5 61/1/5 149/1/5
f 204/1/5 142/1/5 61/1/5
f 205/1/5 203/1/5 142/1/5
f 205/1/5 142/1/5 204/1/5
f 150/1/5 207/1/5 206/1/5
f 45/1/5 207/1/5 150/1/5
f 208/1/5 150/1/5 206/1/5
f 209/1/5 207/1/5 45/1/5
f 62/1/5 208/1/5 206/1/5
f 62/1/5 209/1/5 208/1/5
f 143/1/5 207/1/5 209/1/5
f 143/1/5 209/1/5 62/1/5
f 151/1/5 46/1/5 210/1/5
f 42/1/5 46/1/5 151/1/5
f 140/1/5 151/1/5 210/1/5
f 141/1/5 46/1/5 42/1/5
f 211/1/5 140/1/5 210/1/5
f 211/1/5 141/1/5 140/1/5
f 212/1/5 46/1/5 141/1/5
f 212/1/5 141/1/5 211/1/5
f 213/1/5 43/1/5 63/1/5
f 39/1/5 43/1/5 213/1/5
f 214/1/5 213/1/5 63/1/5
f 40/1/5 43/1/5 39/1/5
f 64/1/5 214/1/5 63/1/5
f 64/1/5 40/1/5 214/1/5
f 44/1/5 43/1/5 40/1/5
f 44/1/5 40/1/5 64/1/5
f 215/1/5 41/1/5 65/1/5
f 37/1/5 41/1/5 215/1/5
f 66/1/5 215/1/5 65/1/5
f 138/1/5 41/1/5 37/1/5
f 139/1/5 66/1/5 65/1/5
f 139/1/5 138/1/5 66/1/5
f 216/1/5 41/1/5 138/1/5
f 216/1/5 138/1/5 139/1/5
f 67/1/5 152/1/5 217/1/5
f 218/1/5 152/1/5 67/1/5
f 68/1/5 67/1/5 217/1/5
f 219/1/5 152/1/5 218/1/5
f 220/1/5 68/1/5 217/1/5
f 220/1/5 219/1/5 68/1/5
f 38/1/5 152/1/5 219/1/5
f 38/1/5 219/1/5 220/1/5
f 153/1/5 35/1/5 69/1/5
f 221/1/5 35/1/5 153/1/5
f 71/1/5 153/1/5 69/1/5
f 137/1/5 35/1/5 221/1/5
f 70/1/5 71/1/5 69/1/5
f 70/1/5 137/1/5 71/1/5
f 36/1/5 35/1/5 137/1/5
f 36/1/5 137/1/5 70/1/5
f 156/1/5 155/1/5 154/1/5
f 222/1/5 155/1/5 156/1/5
f 72/1/5 156/1/5 154/1/5
f 33/1/5 155/1/5 222/1/5
f 223/1/5 72/1/5 154/1/5
f 223/1/5 33/1/5 72/1/5
f 224/1/5 155/1/5 33/1/5
f 224/1/5 33/1/5 223/1/5
f 73/1/5 225/1/5 157/1/5
f 159/1/5 225/1/5 73/1/5
f 136/1/5 73/1/5 157/1/5
f 31/1/5 225/1/5 159/1/5
f 226/1/5 136/1/5 157/1/5
f 226/1/5 31/1/5 136/1/5
f 34/1/5 225/1/5 31/1/5
f 34/1/5 31/1/5 226/1/5
f 74/1/5 32/1/5 158/1/5
f 28/1/5 32/1/5 74/1/5
f 75/1/5 74/1/5 158/1/5
f 135/1/5 32/1/5 28/1/5
f 227/1/5 75/1/5 158/1/5
f 227/1/5 135/1/5 75/1/5
f 228/1/5 32/1/5 135/1/5
f 228/1/5 135/1/5 227/1/5
f 78/1/5 29/1/5 76/1/5
f 160/1/5 29/1/5 78/1/5
f 79/1/5 78/1/5 76/1/5
f 26/1/5 29/1/5 160/1/5
f 77/1/5 79/1/5 76/1/5
f 77/1/5 26/1/5 79/1/5
f 30/1/5 29/1/5 26/1/5
f 30/1/5 26/1/5 77/1/5
f 230/1/5 229/1/5 80/1/5
f 24/1/5 229/1/5 230/1/5
f 231/1/5 230/1/5 80/1/5
f 133/1/5 229/1/5 24/1/5
f 81/1/5 231/1/5 80/1/5
f 81/1/5 133/1/5 231/1/5
f 27/1/5 229/1/5 133/1/5
f 27/1/5 133/1/5 81/1/5
f 162/1/5 25/1/5 161/1/5
f 23/1/5 25/1/5 162/1/5
f 232/1/5 162/1/5 161/1/5
f 233/1/5 25/1/5 23/1/5
f 82/1/5 232/1/5 161/1/5
f 82/1/5 233/1/5 232/1/5
f 134/1/5 25/1/5 233/1/5
f 134/1/5 233/1/5 82/1/5
f 83/1/5 163/1/5 234/1/5
f 132/1/5 163/1/5 83/1/5
f 2/1/6 107/1/6 3/1/6
f 3/1/6 107/1/6 109/1/6
f 2/1/6 3/1/6 4/1/6
f 109/1/6 107/1/6 187/1/6
f 2/1/6 4/1/6 235/1/6
f 4/1/6 187/1/6 235/1/6
f 187/1/6 107/1/6 106/1/6
f 235/1/6 187/1/6 106/1/6
f 108/1/6 110/1/6 6/1/6
f 6/1/6 110/1/6 236/1/6
f 108/1/6 6/1/6 7/1/6
f 236/1/6 110/1/6 186/1/6
f 108/1/6 7/1/6 5/1/6
f 7/1/6 186/1/6 5/1/6
f 186/1/6 110/1/6 188/1/6
f 5/1/6 186/1/6 188/1/6
f 8/1/6 105/1/6 9/1/6
f 9/1/6 105/1/6 237/1/6
f 8/1/6 9/1/6 183/1/6
f 237/1/6 105/1/6 184/1/6
f 8/1/6 183/1/6 238/1/6
f 183/1/6 184/1/6 238/1/6
f 184/1/6 105/1/6 239/1/6
f 238/1/6 184/1/6 239/1/6
f 111/1/6 240/1/6 241/1/6
f 241/1/6 240/1/6 112/1/6
f 111/1/6 241/1/6 242/1/6
f 112/1/6 240/1/6 182/1/6
f 111/1/6 242/1/6 10/1/6
f 242/1/6 182/1/6 10/1/6
f 182/1/6 240/1/6 185/1/6
f 10/1/6 182/1/6 185/1/6
f 11/1/6 243/1/6 113/1/6
f 113/1/6 243/1/6 114/1/6
f 11/1/6 113/1/6 244/1/6
f 114/1/6 243/1/6 245/1/6
f 11/1/6 244/1/6 246/1/6
f 244/1/6 245/1/6 246/1/6
f 245/1/6 243/1/6 104/1/6
f 246/1/6 245/1/6 104/1/6
f 247/1/6 248/1/6 115/1/6
f 115/1/6 248/1/6 117/1/6
f 247/1/6 115/1/6 12/1/6
f 117/1/6 248/1/6 180/1/6
f 247/1/6 12/1/6 181/1/6
f 12/1/6 180/1/6 181/1/6
f 180/1/6 248/1/6 249/1/6
f 181/1/6 180/1/6 249/1/6
f 116/1/6 118/1/6 119/1/6
f 119/1/6 118/1/6 250/1/6
f 116/1/6 119/1/6 13/1/6
f 250/1/6 118/1/6 179/1/6
f 116/1/6 13/1/6 251/1/6
f 13/1/6 179/1/6 251/1/6
f 179/1/6 118/1/6 103/1/6
f 251/1/6 179/1/6 103/1/6
f 252/1/6 120/1/6 253/1/6
f 253/1/6 120/1/6 254/1/6
f 252/1/6 253/1/6 177/1/6
f 254/1/6 120/1/6 178/1/6
f 252/1/6 177/1/6 14/1/6
f 177/1/6 178/1/6 14/1/6
f 178/1/6 120/1/6 255/1/6
f 14/1/6 178/1/6 255/1/6
f 256/1/6 101/1/6 121/1/6
f 121/1/6 101/1/6 257/1/6
f 256/1/6 121/1/6 258/1/6
f 257/1/6 101/1/6 259/1/6
f 256/1/6 258/1/6 15/1/6
f 258/1/6 259/1/6 15/1/6
f 259/1/6 101/1/6 102/1/6
f 15/1/6 259/1/6 102/1/6
f 16/1/6 99/1/6 260/1/6
f 260/1/6 99/1/6 122/1/6
f 16/1/6 260/1/6 174/1/6
f 122/1/6 99/1/6 98/1/6
f 16/1/6 174/1/6 176/1/6
f 174/1/6 98/1/6 176/1/6
f 98/1/6 99/1/6 100/1/6
f 176/1/6 98/1/6 100/1/6
f 261/1/6 123/1/6 262/1/6
f 262/1/6 123/1/6 125/1/6
f 261/1/6 262/1/6 171/1/6
f 125/1/6 123/1/6 173/1/6
f 261/1/6 171/1/6 263/1/6
f 171/1/6 173/1/6 263/1/6
f 173/1/6 123/1/6 175/1/6
f 263/1/6 173/1/6 175/1/6
f 124/1/6 264/1/6 265/1/6
f 265/1/6 264/1/6 97/1/6
f 124/1/6 265/1/6 266/1/6
f 97/1/6 264/1/6 267/1/6
f 124/1/6 266/1/6 172/1/6
f 266/1/6 267/1/6 172/1/6
f 267/1/6 264/1/6 268/1/6
f 172/1/6 267/1/6 268/1/6
f 269/1/6 270/1/6 271/1/6
f 271/1/6 270/1/6 272/1/6
f 269/1/6 271/1/6 273/1/6
f 272/1/6 270/1/6 96/1/6
f 269/1/6 273/1/6 274/1/6
f 273/1/6 96/1/6 274/1/6
f 96/1/6 270/1/6 170/1/6
f 274/1/6 96/1/6 170/1/6
f 17/1/6 275/1/6 126/1/6
f 126/1/6 275/1/6 95/1/6
f 17/1/6 126/1/6 276/1/6
f 95/1/6 275/1/6 167/1/6
f 17/1/6 276/1/6 277/1/6
f 276/1/6 167/1/6 277/1/6
f 167/1/6 275/1/6 169/1/6
f 277/1/6 167/1/6 169/1/6
f 278/1/6 279/1/6 18/1/6
f 18/1/6 279/1/6 280/1/6
f 278/1/6 18/1/6 281/1/6
f 280/1/6 279/1/6 282/1/6
f 278/1/6 281/1/6 166/1/6
f 281/1/6 282/1/6 166/1/6
f 282/1/6 279/1/6 168/1/6
f 166/1/6 282/1/6 168/1/6
f 283/1/6 94/1/6 127/1/6
f 127/1/6 94/1/6 92/1/6
f 283/1/6 127/1/6 19/1/6
f 92/1/6 94/1/6 93/1/6
f 283/1/6 19/1/6 284/1/6
f 19/1/6 93/1/6 284/1/6
f 93/1/6 94/1/6 285/1/6
f 284/1/6 93/1/6 285/1/6
f 286/1/6 287/1/6 128/1/6
f 128/1/6 287/1/6 129/1/6
f 286/1/6 128/1/6 21/1/6
f 129/1/6 287/1/6 90/1/6
f 286/1/6 21/1/6 20/1/6
f 21/1/6 90/1/6 20/1/6
f 90/1/6 287/1/6 288/1/6
f 20/1/6 90/1/6 288/1/6
f 289/1/6 130/1/6 131/1/6
f 131/1/6 130/1/6 87/1/6
f 289/1/6 131/1/6 164/1/6
f 87/1/6 130/1/6 88/1/6
f 289/1/6 164/1/6 22/1/6
f 164/1/6 88/1/6 22/1/6
f 88/1/6 130/1/6 91/1/6
f 22/1/6 88/1/6 91/1/6
f 290/1/6 89/1/6 291/1/6
f 291/1/6 89/1/6 84/1/6
f 290/1/6 291/1/6 292/1/6
f 84/1/6 89/1/6 85/1/6
f 290/1/6 292/1/6 293/1/6
f 292/1/6 85/1/6 293/1/6
f 85/1/6 89/1/6 165/1/6
f 293/1/6 85/1/6 165/1/6
f 294/1/6 86/1/6 295/1/6
f 295/1/6 86/1/6 296/1/6
