# Blender 3.6.1
# www.blender.org
mtllib Spike.mtl
o Spike
v -0.100000 0.000000 0.100000
v 0.000000 0.000000 0.100000
v 0.000000 0.100000 -0.200000
v 0.000000 2.400000 -0.000000
v 0.000000 2.400000 -0.100000
v 0.000000 2.400000 -0.200000
v 0.000000 2.700000 -0.000000
v 0.100000 0.100000 -0.200000
v 0.100000 2.400000 0.100000
v 0.100000 2.400000 -0.000000
v 0.100000 2.400000 -0.100000
v 0.100000 2.400000 -0.200000
v 0.100000 2.400000 -0.300000
v 0.200000 -0.000000 -0.000000
v 0.200000 2.400000 0.100000
v 0.200000 2.400000 -0.000000
v 0.200000 2.400000 -0.200000
v 0.200000 2.500000 -0.100000
v 0.300000 2.400000 -0.000000
v 0.300000 2.400000 -0.100000
v -0.100000 2.400000 0.100000
v 0.000000 2.400000 0.100000
v 0.200000 0.000000 0.100000
v -0.200000 -0.000000 -0.000000
v -0.100000 -0.000000 -0.000000
v -0.100000 2.500000 -0.000000
v 0.100000 2.500000 -0.000000
v 0.100000 2.700000 -0.000000
v 0.200000 2.500000 -0.000000
v -0.100000 -0.000000 -0.100000
v -0.100000 2.500000 -0.100000
v 0.100000 2.500000 -0.100000
v 0.300000 -0.000000 -0.100000
v -0.100000 -0.000000 -0.200000
v 0.000000 2.400000 -0.300000
v 0.100000 0.100000 -0.300000
v 0.000000 0.000000 0.200000
v 0.100000 0.000000 0.200000
v 0.100000 0.000000 0.100000
v 0.300000 -0.000000 -0.000000
v -0.200000 -0.000000 -0.100000
v 0.200000 -0.000000 -0.100000
v 0.200000 -0.000000 -0.200000
v 0.000000 0.100000 -0.300000
v 0.000000 2.400000 0.200000
v 0.100000 2.400000 0.200000
v -0.200000 2.400000 -0.000000
v -0.100000 2.400000 -0.000000
v -0.200000 2.400000 -0.100000
v -0.100000 2.400000 -0.100000
v 0.200000 2.400000 -0.100000
v -0.100000 2.400000 -0.200000
v 0.000000 2.500000 0.100000
v 0.100000 2.500000 0.100000
v 0.000000 2.500000 -0.000000
v 0.000000 2.500000 -0.100000
v 0.000000 2.500000 -0.200000
v 0.100000 2.500000 -0.200000
v 0.000000 2.700000 -0.100000
v 0.100000 2.700000 -0.100000
vn -1.0000 -0.0000 -0.0000
vn 1.0000 -0.0000 -0.0000
vn -0.0000 -0.0000 1.0000
vn -0.0000 -0.0000 -1.0000
vn -0.0000 -1.0000 -0.0000
vn -0.0000 1.0000 -0.0000
vt 0.869141 0.500000
s 0
usemtl palette.001
f 47/1/1 41/1/1 24/1/1
f 49/1/1 41/1/1 47/1/1
f 21/1/1 25/1/1 1/1/1
f 48/1/1 25/1/1 21/1/1
f 50/1/1 34/1/1 30/1/1
f 52/1/1 34/1/1 50/1/1
f 26/1/1 50/1/1 48/1/1
f 31/1/1 50/1/1 26/1/1
f 45/1/1 2/1/1 37/1/1
f 22/1/1 2/1/1 45/1/1
f 6/1/1 44/1/1 3/1/1
f 35/1/1 44/1/1 6/1/1
f 53/1/1 4/1/1 22/1/1
f 55/1/1 4/1/1 53/1/1
f 56/1/1 6/1/1 5/1/1
f 57/1/1 6/1/1 56/1/1
f 7/1/1 56/1/1 55/1/1
f 59/1/1 56/1/1 7/1/1
f 38/1/2 39/1/2 46/1/2
f 46/1/2 39/1/2 9/1/2
f 8/1/2 36/1/2 12/1/2
f 12/1/2 36/1/2 13/1/2
f 9/1/2 10/1/2 54/1/2
f 54/1/2 10/1/2 27/1/2
f 11/1/2 12/1/2 32/1/2
f 32/1/2 12/1/2 58/1/2
f 27/1/2 32/1/2 28/1/2
f 28/1/2 32/1/2 60/1/2
f 23/1/2 14/1/2 15/1/2
f 15/1/2 14/1/2 16/1/2
f 42/1/2 43/1/2 51/1/2
f 51/1/2 43/1/2 17/1/2
f 16/1/2 51/1/2 29/1/2
f 29/1/2 51/1/2 18/1/2
f 40/1/2 33/1/2 19/1/2
f 19/1/2 33/1/2 20/1/2
f 38/1/3 45/1/3 37/1/3
f 46/1/3 45/1/3 38/1/3
f 2/1/3 21/1/3 1/1/3
f 22/1/3 21/1/3 2/1/3
f 9/1/3 53/1/3 22/1/3
f 54/1/3 53/1/3 9/1/3
f 23/1/3 9/1/3 39/1/3
f 15/1/3 9/1/3 23/1/3
f 25/1/3 47/1/3 24/1/3
f 48/1/3 47/1/3 25/1/3
f 4/1/3 26/1/3 48/1/3
f 55/1/3 26/1/3 4/1/3
f 27/1/3 7/1/3 55/1/3
f 28/1/3 7/1/3 27/1/3
f 16/1/3 27/1/3 10/1/3
f 29/1/3 27/1/3 16/1/3
f 40/1/3 16/1/3 14/1/3
f 19/1/3 16/1/3 40/1/3
f 41/1/4 49/1/4 30/1/4
f 30/1/4 49/1/4 50/1/4
f 50/1/4 31/1/4 5/1/4
f 5/1/4 31/1/4 56/1/4
f 56/1/4 59/1/4 32/1/4
f 32/1/4 59/1/4 60/1/4
f 11/1/4 32/1/4 51/1/4
f 51/1/4 32/1/4 18/1/4
f 42/1/4 51/1/4 33/1/4
f 33/1/4 51/1/4 20/1/4
f 34/1/4 52/1/4 3/1/4
f 3/1/4 52/1/4 6/1/4
f 34/1/4 3/1/4 8/1/4
f 6/1/4 57/1/4 12/1/4
f 12/1/4 57/1/4 58/1/4
f 34/1/4 8/1/4 43/1/4
f 8/1/4 12/1/4 43/1/4
f 43/1/4 12/1/4 17/1/4
f 44/1/4 35/1/4 36/1/4
f 36/1/4 35/1/4 13/1/4
f 2/1/5 38/1/5 37/1/5
f 39/1/5 38/1/5 2/1/5
f 25/1/5 2/1/5 1/1/5
f 25/1/5 23/1/5 39/1/5
f 25/1/5 39/1/5 2/1/5
f 14/1/5 23/1/5 25/1/5
f 41/1/5 25/1/5 24/1/5
f 41/1/5 40/1/5 14/1/5
f 41/1/5 14/1/5 25/1/5
f 30/1/5 40/1/5 41/1/5
f 42/1/5 40/1/5 30/1/5
f 33/1/5 40/1/5 42/1/5
f 34/1/5 42/1/5 30/1/5
f 43/1/5 42/1/5 34/1/5
f 44/1/5 8/1/5 3/1/5
f 36/1/5 8/1/5 44/1/5
f 45/1/6 46/1/6 22/1/6
f 22/1/6 46/1/6 9/1/6
f 21/1/6 22/1/6 48/1/6
f 48/1/6 22/1/6 4/1/6
f 9/1/6 15/1/6 10/1/6
f 10/1/6 15/1/6 16/1/6
f 47/1/6 48/1/6 49/1/6
f 49/1/6 48/1/6 50/1/6
f 16/1/6 19/1/6 51/1/6
f 51/1/6 19/1/6 20/1/6
f 50/1/6 5/1/6 52/1/6
f 52/1/6 5/1/6 6/1/6
f 11/1/6 51/1/6 12/1/6
f 12/1/6 51/1/6 17/1/6
f 6/1/6 12/1/6 35/1/6
f 35/1/6 12/1/6 13/1/6
f 53/1/6 54/1/6 55/1/6
f 55/1/6 54/1/6 27/1/6
f 26/1/6 55/1/6 31/1/6
f 31/1/6 55/1/6 56/1/6
f 27/1/6 29/1/6 32/1/6
f 32/1/6 29/1/6 18/1/6
f 56/1/6 32/1/6 57/1/6
f 57/1/6 32/1/6 58/1/6
f 7/1/6 28/1/6 59/1/6
f 59/1/6 28/1/6 60/1/6
