# MagicaVoxel @ Ephtracy

# group
o 

# material
mtllib Spell Book.mtl
usemtl palette

# normals
vn -1 0 0
vn 1 0 0
vn 0 0 1
vn 0 0 -1
vn 0 -1 0
vn 0 1 0

# texcoords
vt 0.271484 0.5
vt 0.376953 0.5
vt 0.884766 0.5
vt 0.892578 0.5

# verts
v -1.4 0.3 0.9
v -1.4 0.3 -0.9
v -1.4 0.6 0.9
v -1.4 0.6 -0.9
v -0.3 0.2 0.9
v -0.3 0.2 -0.9
v -0.3 0.3 0.9
v -0.3 0.3 -0.9
v -0.2 0.1 0.9
v -0.2 0.1 -0.9
v -0.2 0.2 0.9
v -0.2 0.2 -0.9
v -0.1 0 0.9
v -0.1 0 -0.9
v -0.1 0.1 0.9
v -0.1 0.1 -0.9
v 0.1 0.3 0.8
v 0.1 0.3 -0.8
v 0.1 0.4 0.9
v 0.1 0.4 0.8
v 0.1 0.4 -0.8
v 0.1 0.4 -0.9
v 0.1 0.5 0.9
v 0.1 0.5 0.8
v 0.1 0.5 -0.8
v 0.1 0.5 -0.9
v 0.2 0.4 0.8
v 0.2 0.4 -0.8
v 0.2 0.5 0.9
v 0.2 0.5 0.8
v 0.2 0.5 -0.8
v 0.2 0.5 -0.9
v 0.2 0.6 0.9
v 0.2 0.6 0.8
v 0.2 0.6 -0.8
v 0.2 0.6 -0.9
v 1.3 0.5 0.8
v 1.3 0.5 -0.8
v 1.3 0.6 0.8
v 1.3 0.6 -0.8
v -1.3 0.5 0.8
v -1.3 0.5 -0.8
v -1.3 0.6 0.8
v -1.3 0.6 -0.8
v -0.2 0.4 0.8
v -0.2 0.4 -0.8
v -0.2 0.5 0.9
v -0.2 0.5 0.8
v -0.2 0.5 -0.8
v -0.2 0.5 -0.9
v -0.2 0.6 0.9
v -0.2 0.6 0.8
v -0.2 0.6 -0.8
v -0.2 0.6 -0.9
v -0.1 0.3 0.8
v -0.1 0.3 -0.8
v -0.1 0.4 0.9
v -0.1 0.4 0.8
v -0.1 0.4 -0.8
v -0.1 0.4 -0.9
v -0.1 0.5 0.9
v -0.1 0.5 0.8
v -0.1 0.5 -0.8
v -0.1 0.5 -0.9
v 0.1 0 0.9
v 0.1 0 -0.9
v 0.1 0.1 0.9
v 0.1 0.1 -0.9
v 0.2 0.1 0.9
v 0.2 0.1 -0.9
v 0.2 0.2 0.9
v 0.2 0.2 -0.9
v 0.3 0.2 0.9
v 0.3 0.2 -0.9
v 0.3 0.3 0.9
v 0.3 0.3 -0.9
v 1.4 0.3 0.9
v 1.4 0.3 -0.9
v 1.4 0.6 0.9
v 1.4 0.6 -0.9
v -1.4 0.3 0.9
v -1.4 0.6 0.9
v -0.3 0.2 0.9
v -0.3 0.3 0.9
v -0.2 0.1 0.9
v -0.2 0.2 0.9
v -0.2 0.5 0.9
v -0.2 0.6 0.9
v -0.1 0 0.9
v -0.1 0.1 0.9
v -0.1 0.4 0.9
v -0.1 0.5 0.9
v 0.1 0 0.9
v 0.1 0.1 0.9
v 0.1 0.4 0.9
v 0.1 0.5 0.9
v 0.2 0.1 0.9
v 0.2 0.2 0.9
v 0.2 0.5 0.9
v 0.2 0.6 0.9
v 0.3 0.2 0.9
v 0.3 0.3 0.9
v 1.4 0.3 0.9
v 1.4 0.6 0.9
v -1.3 0.5 -0.8
v -1.3 0.6 -0.8
v -0.2 0.4 -0.8
v -0.2 0.5 -0.8
v -0.2 0.6 -0.8
v -0.1 0.3 -0.8
v -0.1 0.4 -0.8
v -0.1 0.5 -0.8
v 0.1 0.3 -0.8
v 0.1 0.4 -0.8
v 0.1 0.5 -0.8
v 0.2 0.4 -0.8
v 0.2 0.5 -0.8
v 0.2 0.6 -0.8
v 1.3 0.5 -0.8
v 1.3 0.6 -0.8
v -1.3 0.5 0.8
v -1.3 0.6 0.8
v -0.2 0.4 0.8
v -0.2 0.5 0.8
v -0.2 0.6 0.8
v -0.1 0.3 0.8
v -0.1 0.4 0.8
v -0.1 0.5 0.8
v 0.1 0.3 0.8
v 0.1 0.4 0.8
v 0.1 0.5 0.8
v 0.2 0.4 0.8
v 0.2 0.5 0.8
v 0.2 0.6 0.8
v 1.3 0.5 0.8
v 1.3 0.6 0.8
v -1.4 0.3 -0.9
v -1.4 0.6 -0.9
v -0.3 0.2 -0.9
v -0.3 0.3 -0.9
v -0.2 0.1 -0.9
v -0.2 0.2 -0.9
v -0.2 0.5 -0.9
v -0.2 0.6 -0.9
v -0.1 0 -0.9
v -0.1 0.1 -0.9
v -0.1 0.4 -0.9
v -0.1 0.5 -0.9
v 0.1 0 -0.9
v 0.1 0.1 -0.9
v 0.1 0.4 -0.9
v 0.1 0.5 -0.9
v 0.2 0.1 -0.9
v 0.2 0.2 -0.9
v 0.2 0.5 -0.9
v 0.2 0.6 -0.9
v 0.3 0.2 -0.9
v 0.3 0.3 -0.9
v 1.4 0.3 -0.9
v 1.4 0.6 -0.9
v -0.1 0 0.9
v 0.1 0 0.9
v -0.1 0 -0.9
v 0.1 0 -0.9
v -0.2 0.1 0.9
v -0.1 0.1 0.9
v 0.1 0.1 0.9
v 0.2 0.1 0.9
v -0.2 0.1 -0.9
v -0.1 0.1 -0.9
v 0.1 0.1 -0.9
v 0.2 0.1 -0.9
v -0.3 0.2 0.9
v -0.2 0.2 0.9
v 0.2 0.2 0.9
v 0.3 0.2 0.9
v -0.3 0.2 -0.9
v -0.2 0.2 -0.9
v 0.2 0.2 -0.9
v 0.3 0.2 -0.9
v -1.4 0.3 0.9
v -0.3 0.3 0.9
v 0.3 0.3 0.9
v 1.4 0.3 0.9
v -1.4 0.3 -0.9
v -0.3 0.3 -0.9
v 0.3 0.3 -0.9
v 1.4 0.3 -0.9
v -0.1 0.3 0.8
v 0.1 0.3 0.8
v -0.1 0.3 -0.8
v 0.1 0.3 -0.8
v -0.1 0.4 0.9
v 0.1 0.4 0.9
v -0.2 0.4 0.8
v -0.1 0.4 0.8
v 0.1 0.4 0.8
v 0.2 0.4 0.8
v -0.2 0.4 -0.8
v -0.1 0.4 -0.8
v 0.1 0.4 -0.8
v 0.2 0.4 -0.8
v -0.1 0.4 -0.9
v 0.1 0.4 -0.9
v -0.2 0.5 0.9
v -0.1 0.5 0.9
v 0.1 0.5 0.9
v 0.2 0.5 0.9
v -1.3 0.5 0.8
v -0.2 0.5 0.8
v -0.1 0.5 0.8
v 0.1 0.5 0.8
v 0.2 0.5 0.8
v 1.3 0.5 0.8
v -1.2 0.5 0.7
v -1.1 0.5 0.7
v -1 0.5 0.7
v -0.9 0.5 0.7
v -0.7 0.5 0.7
v -0.6 0.5 0.7
v -0.5 0.5 0.7
v -0.4 0.5 0.7
v 0.4 0.5 0.7
v 0.7 0.5 0.7
v 0.8 0.5 0.7
v 0.9 0.5 0.7
v 1 0.5 0.7
v 1.2 0.5 0.7
v 0.4 0.5 0.6
v 0.7 0.5 0.6
v 0.8 0.5 0.6
v 0.9 0.5 0.6
v 1 0.5 0.6
v 1.2 0.5 0.6
v -1.2 0.5 0.5
v -1.1 0.5 0.5
v -1 0.5 0.5
v -0.9 0.5 0.5
v -0.7 0.5 0.5
v -0.6 0.5 0.5
v -0.5 0.5 0.5
v -0.4 0.5 0.5
v 0.4 0.5 0.5
v 0.5 0.5 0.5
v 0.6 0.5 0.5
v 0.8 0.5 0.5
v 0.9 0.5 0.5
v 1 0.5 0.5
v 1.1 0.5 0.5
v 1.2 0.5 0.5
v 0.6 0.5 0.4
v 0.8 0.5 0.4
v -1.2 0.5 0.3
v -1.1 0.5 0.3
v -1 0.5 0.3
v -0.8 0.5 0.3
v -0.7 0.5 0.3
v -0.6 0.5 0.3
v -0.5 0.5 0.3
v -0.4 0.5 0.3
v 0.4 0.5 0.3
v 0.5 0.5 0.3
v 0.9 0.5 0.3
v 1 0.5 0.3
v 1.1 0.5 0.3
v 1.2 0.5 0.3
v -1 0.5 0.2
v -0.8 0.5 0.2
v -0.5 0.5 0.2
v -0.4 0.5 0.2
v 0.4 0.5 0.2
v 0.5 0.5 0.2
v 0.6 0.5 0.2
v 0.7 0.5 0.2
v 0.9 0.5 0.2
v 1 0.5 0.2
v 1.1 0.5 0.2
v 1.2 0.5 0.2
v -1.2 0.5 0.1
v -1.1 0.5 0.1
v -0.7 0.5 0.1
v -0.6 0.5 0.1
v 1.1 0.5 0.1
v 1.2 0.5 0.1
v 0.4 0.5 0
v 0.5 0.5 0
v 0.6 0.5 0
v 0.7 0.5 0
v 0.9 0.5 0
v 1 0.5 0
v -1.2 0.5 -0.1
v -1.1 0.5 -0.1
v -1 0.5 -0.1
v -0.9 0.5 -0.1
v -0.8 0.5 -0.1
v -0.7 0.5 -0.1
v -0.6 0.5 -0.1
v -0.4 0.5 -0.1
v -1 0.5 -0.2
v -0.9 0.5 -0.2
v -0.6 0.5 -0.2
v -0.4 0.5 -0.2
v 0.4 0.5 -0.2
v 0.5 0.5 -0.2
v 0.6 0.5 -0.2
v 0.8 0.5 -0.2
v 0.9 0.5 -0.2
v 1 0.5 -0.2
v 1.1 0.5 -0.2
v 1.2 0.5 -0.2
v -1.2 0.5 -0.3
v -1.1 0.5 -0.3
v -0.8 0.5 -0.3
v -0.7 0.5 -0.3
v 0.6 0.5 -0.3
v 0.8 0.5 -0.3
v 1.1 0.5 -0.3
v 1.2 0.5 -0.3
v -1 0.5 -0.4
v -0.9 0.5 -0.4
v -0.8 0.5 -0.4
v -0.7 0.5 -0.4
v -0.6 0.5 -0.4
v -0.5 0.5 -0.4
v 0.4 0.5 -0.4
v 0.5 0.5 -0.4
v 0.9 0.5 -0.4
v 1 0.5 -0.4
v 0.4 0.5 -0.5
v 0.5 0.5 -0.5
v 0.6 0.5 -0.5
v 0.7 0.5 -0.5
v 0.8 0.5 -0.5
v 0.9 0.5 -0.5
v 1 0.5 -0.5
v 1.2 0.5 -0.5
v -1 0.5 -0.6
v -0.9 0.5 -0.6
v -0.8 0.5 -0.6
v -0.7 0.5 -0.6
v -0.6 0.5 -0.6
v -0.5 0.5 -0.6
v 0.6 0.5 -0.6
v 0.7 0.5 -0.6
v 1 0.5 -0.6
v 1.2 0.5 -0.6
v 0.4 0.5 -0.7
v 0.5 0.5 -0.7
v 0.8 0.5 -0.7
v 0.9 0.5 -0.7
v -1.3 0.5 -0.8
v -0.2 0.5 -0.8
v -0.1 0.5 -0.8
v 0.1 0.5 -0.8
v 0.2 0.5 -0.8
v 1.3 0.5 -0.8
v -0.2 0.5 -0.9
v -0.1 0.5 -0.9
v 0.1 0.5 -0.9
v 0.2 0.5 -0.9
v -1.4 0.6 0.9
v -0.2 0.6 0.9
v 0.2 0.6 0.9
v 1.4 0.6 0.9
v -1.3 0.6 0.8
v -0.2 0.6 0.8
v 0.2 0.6 0.8
v 1.3 0.6 0.8
v -1.3 0.6 -0.8
v -0.2 0.6 -0.8
v 0.2 0.6 -0.8
v 1.3 0.6 -0.8
v -1.4 0.6 -0.9
v -0.2 0.6 -0.9
v 0.2 0.6 -0.9
v 1.4 0.6 -0.9

# faces
f 3/4/1 2/4/1 1/4/1
f 4/4/1 2/4/1 3/4/1
f 7/4/1 6/4/1 5/4/1
f 8/4/1 6/4/1 7/4/1
f 11/4/1 10/4/1 9/4/1
f 12/4/1 10/4/1 11/4/1
f 15/2/1 14/2/1 13/2/1
f 16/2/1 14/2/1 15/2/1
f 20/4/1 18/4/1 17/4/1
f 21/4/1 18/4/1 20/4/1
f 23/4/1 20/4/1 19/4/1
f 24/4/1 20/4/1 23/4/1
f 25/4/1 22/4/1 21/4/1
f 26/4/1 22/4/1 25/4/1
f 30/1/1 28/1/1 27/1/1
f 31/1/1 28/1/1 30/1/1
f 33/4/1 30/4/1 29/4/1
f 34/4/1 30/4/1 33/4/1
f 35/4/1 32/4/1 31/4/1
f 36/4/1 32/4/1 35/4/1
f 39/4/1 38/4/1 37/4/1
f 40/4/1 38/4/1 39/4/1
f 41/4/2 42/4/2 43/4/2
f 43/4/2 42/4/2 44/4/2
f 45/1/2 46/1/2 48/1/2
f 48/1/2 46/1/2 49/1/2
f 47/4/2 48/4/2 51/4/2
f 51/4/2 48/4/2 52/4/2
f 49/4/2 50/4/2 53/4/2
f 53/4/2 50/4/2 54/4/2
f 55/4/2 56/4/2 58/4/2
f 58/4/2 56/4/2 59/4/2
f 57/4/2 58/4/2 61/4/2
f 61/4/2 58/4/2 62/4/2
f 59/4/2 60/4/2 63/4/2
f 63/4/2 60/4/2 64/4/2
f 65/2/2 66/2/2 67/2/2
f 67/2/2 66/2/2 68/2/2
f 69/4/2 70/4/2 71/4/2
f 71/4/2 70/4/2 72/4/2
f 73/4/2 74/4/2 75/4/2
f 75/4/2 74/4/2 76/4/2
f 77/4/2 78/4/2 79/4/2
f 79/4/2 78/4/2 80/4/2
f 84/4/3 82/4/3 81/4/3
f 86/4/3 84/4/3 83/4/3
f 87/4/3 82/4/3 84/4/3
f 87/4/3 84/4/3 86/4/3
f 88/4/3 82/4/3 87/4/3
f 90/4/3 86/4/3 85/4/3
f 90/4/3 87/4/3 86/4/3
f 91/4/3 87/4/3 90/4/3
f 92/4/3 87/4/3 91/4/3
f 93/2/3 90/2/3 89/2/3
f 93/2/3 91/2/3 90/2/3
f 94/2/3 91/2/3 93/2/3
f 95/2/3 91/2/3 94/2/3
f 97/4/3 96/4/3 95/4/3
f 97/4/3 95/4/3 94/4/3
f 98/4/3 96/4/3 97/4/3
f 99/4/3 96/4/3 98/4/3
f 101/4/3 99/4/3 98/4/3
f 101/4/3 100/4/3 99/4/3
f 102/4/3 100/4/3 101/4/3
f 103/4/3 100/4/3 102/4/3
f 104/4/3 100/4/3 103/4/3
f 108/4/3 106/4/3 105/4/3
f 109/4/3 106/4/3 108/4/3
f 111/4/3 108/4/3 107/4/3
f 112/4/3 108/4/3 111/4/3
f 113/2/3 111/2/3 110/2/3
f 114/2/3 111/2/3 113/2/3
f 116/4/3 115/4/3 114/4/3
f 117/4/3 115/4/3 116/4/3
f 119/4/3 118/4/3 117/4/3
f 120/4/3 118/4/3 119/4/3
f 121/4/4 122/4/4 124/4/4
f 124/4/4 122/4/4 125/4/4
f 123/4/4 124/4/4 127/4/4
f 127/4/4 124/4/4 128/4/4
f 126/2/4 127/2/4 129/2/4
f 129/2/4 127/2/4 130/2/4
f 130/4/4 131/4/4 132/4/4
f 132/4/4 131/4/4 133/4/4
f 133/4/4 134/4/4 135/4/4
f 135/4/4 134/4/4 136/4/4
f 137/4/4 138/4/4 140/4/4
f 139/4/4 140/4/4 142/4/4
f 140/4/4 138/4/4 143/4/4
f 142/4/4 140/4/4 143/4/4
f 143/4/4 138/4/4 144/4/4
f 141/4/4 142/4/4 146/4/4
f 142/4/4 143/4/4 146/4/4
f 146/4/4 143/4/4 147/4/4
f 147/4/4 143/4/4 148/4/4
f 145/2/4 146/2/4 149/2/4
f 146/2/4 147/2/4 149/2/4
f 149/2/4 147/2/4 150/2/4
f 150/2/4 147/2/4 151/2/4
f 151/4/4 152/4/4 153/4/4
f 150/4/4 151/4/4 153/4/4
f 153/4/4 152/4/4 154/4/4
f 154/4/4 152/4/4 155/4/4
f 154/4/4 155/4/4 157/4/4
f 155/4/4 156/4/4 157/4/4
f 157/4/4 156/4/4 158/4/4
f 158/4/4 156/4/4 159/4/4
f 159/4/4 156/4/4 160/4/4
f 163/2/5 162/2/5 161/2/5
f 164/2/5 162/2/5 163/2/5
f 169/4/5 166/4/5 165/4/5
f 170/4/5 166/4/5 169/4/5
f 171/4/5 168/4/5 167/4/5
f 172/4/5 168/4/5 171/4/5
f 177/4/5 174/4/5 173/4/5
f 178/4/5 174/4/5 177/4/5
f 179/4/5 176/4/5 175/4/5
f 180/4/5 176/4/5 179/4/5
f 185/4/5 182/4/5 181/4/5
f 186/4/5 182/4/5 185/4/5
f 187/4/5 184/4/5 183/4/5
f 188/4/5 184/4/5 187/4/5
f 189/2/6 190/2/6 191/2/6
f 191/2/6 190/2/6 192/2/6
f 193/2/6 194/2/6 196/2/6
f 196/2/6 194/2/6 197/2/6
f 195/4/6 196/4/6 199/4/6
f 199/4/6 196/4/6 200/4/6
f 197/4/6 198/4/6 201/4/6
f 201/4/6 198/4/6 202/4/6
f 200/2/6 201/2/6 203/2/6
f 203/2/6 201/2/6 204/2/6
f 205/4/6 206/4/6 210/4/6
f 210/4/6 206/4/6 211/4/6
f 207/4/6 208/4/6 212/4/6
f 212/4/6 208/4/6 213/4/6
f 209/1/6 210/1/6 215/1/6
f 215/1/6 210/1/6 216/1/6
f 216/1/6 210/1/6 217/1/6
f 217/1/6 210/1/6 218/1/6
f 218/1/6 210/1/6 219/1/6
f 219/1/6 210/1/6 220/1/6
f 220/1/6 210/1/6 221/1/6
f 221/1/6 210/1/6 222/1/6
f 213/1/6 214/1/6 223/1/6
f 223/1/6 214/1/6 224/1/6
f 224/1/6 214/1/6 225/1/6
f 225/1/6 214/1/6 226/1/6
f 226/1/6 214/1/6 227/1/6
f 227/1/6 214/1/6 228/1/6
f 213/1/6 223/1/6 229/1/6
f 223/3/6 224/3/6 229/3/6
f 224/1/6 225/1/6 230/1/6
f 229/3/6 224/3/6 230/3/6
f 225/3/6 226/3/6 231/3/6
f 230/1/6 225/1/6 231/1/6
f 226/1/6 227/1/6 232/1/6
f 231/3/6 226/3/6 232/3/6
f 227/3/6 228/3/6 233/3/6
f 232/1/6 227/1/6 233/1/6
f 228/1/6 214/1/6 234/1/6
f 233/3/6 228/3/6 234/3/6
f 209/1/6 215/1/6 235/1/6
f 215/3/6 216/3/6 235/3/6
f 216/1/6 217/1/6 236/1/6
f 235/3/6 216/3/6 236/3/6
f 217/3/6 218/3/6 237/3/6
f 236/1/6 217/1/6 237/1/6
f 218/1/6 219/1/6 238/1/6
f 237/3/6 218/3/6 238/3/6
f 219/3/6 220/3/6 239/3/6
f 238/1/6 219/1/6 239/1/6
f 220/1/6 221/1/6 240/1/6
f 239/3/6 220/3/6 240/3/6
f 221/3/6 222/3/6 241/3/6
f 240/1/6 221/1/6 241/1/6
f 222/1/6 210/1/6 242/1/6
f 241/3/6 222/3/6 242/3/6
f 233/1/6 234/1/6 243/1/6
f 232/1/6 233/1/6 243/1/6
f 231/1/6 232/1/6 243/1/6
f 230/1/6 231/1/6 243/1/6
f 229/1/6 230/1/6 243/1/6
f 213/1/6 229/1/6 243/1/6
f 243/1/6 234/1/6 244/1/6
f 244/1/6 234/1/6 245/1/6
f 245/1/6 234/1/6 246/1/6
f 246/1/6 234/1/6 247/1/6
f 247/1/6 234/1/6 248/1/6
f 248/1/6 234/1/6 249/1/6
f 234/1/6 214/1/6 250/1/6
f 249/1/6 234/1/6 250/1/6
f 244/1/6 245/1/6 251/1/6
f 245/3/6 246/3/6 251/3/6
f 246/1/6 247/1/6 252/1/6
f 251/3/6 246/3/6 252/3/6
f 240/1/6 241/1/6 253/1/6
f 209/1/6 235/1/6 253/1/6
f 235/1/6 236/1/6 253/1/6
f 236/1/6 237/1/6 253/1/6
f 237/1/6 238/1/6 253/1/6
f 238/1/6 239/1/6 253/1/6
f 239/1/6 240/1/6 253/1/6
f 241/1/6 242/1/6 253/1/6
f 253/1/6 242/1/6 254/1/6
f 254/1/6 242/1/6 255/1/6
f 255/1/6 242/1/6 256/1/6
f 256/1/6 242/1/6 257/1/6
f 257/1/6 242/1/6 258/1/6
f 258/1/6 242/1/6 259/1/6
f 242/1/6 210/1/6 260/1/6
f 259/1/6 242/1/6 260/1/6
f 243/3/6 244/3/6 261/3/6
f 213/1/6 243/1/6 261/1/6
f 251/1/6 252/1/6 262/1/6
f 261/3/6 244/3/6 262/3/6
f 244/1/6 251/1/6 262/1/6
f 252/1/6 247/1/6 263/1/6
f 262/1/6 252/1/6 263/1/6
f 247/3/6 248/3/6 263/3/6
f 248/1/6 249/1/6 264/1/6
f 263/3/6 248/3/6 264/3/6
f 249/3/6 250/3/6 265/3/6
f 264/1/6 249/1/6 265/1/6
f 250/1/6 214/1/6 266/1/6
f 265/3/6 250/3/6 266/3/6
f 254/1/6 255/1/6 267/1/6
f 255/3/6 256/3/6 267/3/6
f 256/1/6 257/1/6 268/1/6
f 267/3/6 256/3/6 268/3/6
f 258/1/6 259/1/6 269/1/6
f 259/3/6 260/3/6 269/3/6
f 260/1/6 210/1/6 270/1/6
f 269/3/6 260/3/6 270/3/6
f 261/1/6 262/1/6 271/1/6
f 262/1/6 263/1/6 271/1/6
f 213/1/6 261/1/6 271/1/6
f 265/1/6 266/1/6 271/1/6
f 263/1/6 264/1/6 271/1/6
f 264/1/6 265/1/6 271/1/6
f 271/1/6 266/1/6 272/1/6
f 272/1/6 266/1/6 273/1/6
f 273/1/6 266/1/6 274/1/6
f 274/1/6 266/1/6 275/1/6
f 275/1/6 266/1/6 276/1/6
f 276/1/6 266/1/6 277/1/6
f 266/1/6 214/1/6 278/1/6
f 277/1/6 266/1/6 278/1/6
f 253/3/6 254/3/6 279/3/6
f 209/1/6 253/1/6 279/1/6
f 254/1/6 267/1/6 280/1/6
f 279/3/6 254/3/6 280/3/6
f 267/1/6 268/1/6 280/1/6
f 268/1/6 257/1/6 281/1/6
f 280/1/6 268/1/6 281/1/6
f 257/3/6 258/3/6 281/3/6
f 269/1/6 270/1/6 282/1/6
f 281/3/6 258/3/6 282/3/6
f 258/1/6 269/1/6 282/1/6
f 276/1/6 277/1/6 283/1/6
f 277/3/6 278/3/6 283/3/6
f 278/1/6 214/1/6 284/1/6
f 283/3/6 278/3/6 284/3/6
f 213/1/6 271/1/6 285/1/6
f 271/3/6 272/3/6 285/3/6
f 272/1/6 273/1/6 286/1/6
f 285/3/6 272/3/6 286/3/6
f 273/3/6 274/3/6 287/3/6
f 286/1/6 273/1/6 287/1/6
f 274/1/6 275/1/6 288/1/6
f 287/3/6 274/3/6 288/3/6
f 275/3/6 276/3/6 289/3/6
f 288/1/6 275/1/6 289/1/6
f 276/1/6 283/1/6 290/1/6
f 289/3/6 276/3/6 290/3/6
f 283/1/6 284/1/6 290/1/6
f 280/1/6 281/1/6 291/1/6
f 279/1/6 280/1/6 291/1/6
f 209/1/6 279/1/6 291/1/6
f 281/1/6 282/1/6 291/1/6
f 291/1/6 282/1/6 292/1/6
f 292/1/6 282/1/6 293/1/6
f 293/1/6 282/1/6 294/1/6
f 294/1/6 282/1/6 295/1/6
f 295/1/6 282/1/6 296/1/6
f 282/1/6 270/1/6 297/1/6
f 296/1/6 282/1/6 297/1/6
f 270/1/6 210/1/6 298/1/6
f 297/1/6 270/1/6 298/1/6
f 292/1/6 293/1/6 299/1/6
f 293/3/6 294/3/6 299/3/6
f 294/1/6 295/1/6 300/1/6
f 299/3/6 294/3/6 300/3/6
f 296/1/6 297/1/6 301/1/6
f 297/3/6 298/3/6 301/3/6
f 298/1/6 210/1/6 302/1/6
f 301/3/6 298/3/6 302/3/6
f 289/1/6 290/1/6 303/1/6
f 213/1/6 285/1/6 303/1/6
f 286/1/6 287/1/6 303/1/6
f 288/1/6 289/1/6 303/1/6
f 285/1/6 286/1/6 303/1/6
f 287/1/6 288/1/6 303/1/6
f 303/1/6 290/1/6 304/1/6
f 304/1/6 290/1/6 305/1/6
f 305/1/6 290/1/6 306/1/6
f 306/1/6 290/1/6 307/1/6
f 290/1/6 284/1/6 308/1/6
f 307/1/6 290/1/6 308/1/6
f 308/1/6 284/1/6 309/1/6
f 284/1/6 214/1/6 310/1/6
f 309/1/6 284/1/6 310/1/6
f 291/3/6 292/3/6 311/3/6
f 209/1/6 291/1/6 311/1/6
f 292/1/6 299/1/6 312/1/6
f 311/3/6 292/3/6 312/3/6
f 299/1/6 300/1/6 312/1/6
f 300/1/6 295/1/6 313/1/6
f 312/1/6 300/1/6 313/1/6
f 295/3/6 296/3/6 313/3/6
f 301/1/6 302/1/6 314/1/6
f 313/3/6 296/3/6 314/3/6
f 296/1/6 301/1/6 314/1/6
f 305/3/6 306/3/6 315/3/6
f 304/1/6 305/1/6 315/1/6
f 306/1/6 307/1/6 316/1/6
f 315/3/6 306/3/6 316/3/6
f 308/1/6 309/1/6 317/1/6
f 309/3/6 310/3/6 317/3/6
f 310/1/6 214/1/6 318/1/6
f 317/3/6 310/3/6 318/3/6
f 311/1/6 312/1/6 319/1/6
f 312/1/6 313/1/6 319/1/6
f 313/1/6 314/1/6 319/1/6
f 319/1/6 314/1/6 320/1/6
f 320/1/6 314/1/6 321/1/6
f 314/1/6 302/1/6 322/1/6
f 321/1/6 314/1/6 322/1/6
f 322/1/6 302/1/6 323/1/6
f 323/1/6 302/1/6 324/1/6
f 303/3/6 304/3/6 325/3/6
f 213/1/6 303/1/6 325/1/6
f 304/1/6 315/1/6 326/1/6
f 325/3/6 304/3/6 326/3/6
f 315/1/6 316/1/6 326/1/6
f 307/3/6 308/3/6 327/3/6
f 326/1/6 316/1/6 327/1/6
f 316/1/6 307/1/6 327/1/6
f 317/1/6 318/1/6 328/1/6
f 327/3/6 308/3/6 328/3/6
f 308/1/6 317/1/6 328/1/6
f 213/1/6 325/1/6 329/1/6
f 326/1/6 327/1/6 329/1/6
f 327/1/6 328/1/6 329/1/6
f 325/1/6 326/1/6 329/1/6
f 329/1/6 328/1/6 330/1/6
f 330/1/6 328/1/6 331/1/6
f 331/1/6 328/1/6 332/1/6
f 332/1/6 328/1/6 333/1/6
f 333/1/6 328/1/6 334/1/6
f 328/1/6 318/1/6 335/1/6
f 334/1/6 328/1/6 335/1/6
f 318/1/6 214/1/6 336/1/6
f 335/1/6 318/1/6 336/1/6
f 311/1/6 319/1/6 337/1/6
f 319/3/6 320/3/6 337/3/6
f 320/1/6 321/1/6 338/1/6
f 337/3/6 320/3/6 338/3/6
f 321/3/6 322/3/6 339/3/6
f 338/1/6 321/1/6 339/1/6
f 322/1/6 323/1/6 340/1/6
f 339/3/6 322/3/6 340/3/6
f 323/3/6 324/3/6 341/3/6
f 340/1/6 323/1/6 341/1/6
f 324/1/6 302/1/6 342/1/6
f 341/3/6 324/3/6 342/3/6
f 330/1/6 331/1/6 343/1/6
f 331/3/6 332/3/6 343/3/6
f 332/1/6 333/1/6 344/1/6
f 343/3/6 332/3/6 344/3/6
f 334/1/6 335/1/6 345/1/6
f 335/3/6 336/3/6 345/3/6
f 336/1/6 214/1/6 346/1/6
f 345/3/6 336/3/6 346/3/6
f 213/1/6 329/1/6 347/1/6
f 329/3/6 330/3/6 347/3/6
f 343/1/6 344/1/6 348/1/6
f 347/3/6 330/3/6 348/3/6
f 330/1/6 343/1/6 348/1/6
f 344/1/6 333/1/6 349/1/6
f 348/1/6 344/1/6 349/1/6
f 333/3/6 334/3/6 349/3/6
f 334/1/6 345/1/6 350/1/6
f 349/3/6 334/3/6 350/3/6
f 345/1/6 346/1/6 350/1/6
f 341/1/6 342/1/6 351/1/6
f 311/1/6 337/1/6 351/1/6
f 209/1/6 311/1/6 351/1/6
f 339/1/6 340/1/6 351/1/6
f 337/1/6 338/1/6 351/1/6
f 338/1/6 339/1/6 351/1/6
f 340/1/6 341/1/6 351/1/6
f 302/1/6 210/1/6 352/1/6
f 351/1/6 342/1/6 352/1/6
f 342/1/6 302/1/6 352/1/6
f 347/1/6 348/1/6 355/1/6
f 349/1/6 350/1/6 355/1/6
f 348/1/6 349/1/6 355/1/6
f 213/1/6 347/1/6 355/1/6
f 350/1/6 346/1/6 356/1/6
f 346/1/6 214/1/6 356/1/6
f 355/1/6 350/1/6 356/1/6
f 352/4/6 353/4/6 357/4/6
f 357/4/6 353/4/6 358/4/6
f 354/4/6 355/4/6 359/4/6
f 359/4/6 355/4/6 360/4/6
f 361/4/6 362/4/6 365/4/6
f 365/4/6 362/4/6 366/4/6
f 363/4/6 364/4/6 367/4/6
f 367/4/6 364/4/6 368/4/6
f 361/4/6 365/4/6 369/4/6
f 368/4/6 364/4/6 372/4/6
f 369/4/6 370/4/6 373/4/6
f 361/4/6 369/4/6 373/4/6
f 373/4/6 370/4/6 374/4/6
f 371/4/6 372/4/6 375/4/6
f 372/4/6 364/4/6 376/4/6
f 375/4/6 372/4/6 376/4/6
