# Blender 3.6.1
# www.blender.org
mtllib Cauldron.mtl
o Cauldren
v -1.400000 1.200000 1.400000
v -1.400000 2.500000 1.400000
v -1.300000 1.200000 1.300000
v -1.300000 2.500000 1.300000
v -1.200000 1.000000 -1.200000
v -1.200000 1.100000 1.200000
v -1.200000 2.600000 1.200000
v -1.100000 0.000000 1.000000
v -1.100000 0.000000 0.800000
v -1.100000 -0.000000 -1.000000
v -1.100000 0.900000 -1.000000
v -1.100000 1.000000 1.100000
v -1.000000 0.000000 1.000000
v -1.000000 0.900000 -1.000000
v -1.000000 0.900000 -1.100000
v 0.800000 0.000000 0.900000
v 0.800000 -0.000000 -0.900000
v 0.800000 -0.000000 -1.100000
v 0.800000 0.900000 1.100000
v 0.800000 0.900000 0.900000
v 0.900000 0.900000 0.900000
v 1.100000 1.200000 -1.100000
v 1.100000 2.400000 1.100000
v 1.100000 2.400000 -1.100000
v 1.200000 1.300000 -1.200000
v 1.200000 2.400000 1.200000
v 1.200000 2.400000 -1.200000
v -1.100000 1.300000 -1.100000
v -1.100000 2.400000 1.100000
v -1.000000 1.100000 1.000000
v -1.000000 1.100000 -1.000000
v -1.000000 1.200000 -1.000000
v -0.900000 -0.000000 -0.800000
v -0.800000 -0.000000 -0.900000
v -0.800000 0.900000 -1.100000
v 1.000000 0.000000 1.000000
v 1.100000 0.900000 -1.100000
v 1.100000 1.000000 1.100000
v 1.100000 1.000000 -1.100000
v 1.200000 2.600000 1.200000
v 1.200000 2.700000 1.200000
v 1.300000 2.500000 1.300000
v 1.300000 2.500000 -1.300000
v 1.300000 2.600000 -1.300000
v 1.400000 1.200000 -1.400000
v 1.400000 2.500000 1.400000
v 1.400000 1.200000 1.400000
v -1.300000 1.100000 1.300000
v 1.300000 1.100000 1.300000
v 1.300000 2.600000 1.300000
v -1.200000 2.700000 1.200000
v 1.200000 1.000000 1.200000
v 1.200000 1.100000 1.200000
v -1.000000 0.900000 1.100000
v -0.800000 0.900000 1.100000
v 0.800000 0.000000 1.100000
v 1.000000 0.000000 1.100000
v -1.100000 0.900000 1.000000
v 1.000000 0.900000 1.000000
v 1.100000 0.900000 1.000000
v -1.100000 -0.000000 -0.800000
v -1.100000 0.900000 -0.800000
v 0.900000 0.900000 -0.800000
v 1.100000 -0.000000 -0.800000
v 0.900000 0.900000 -0.900000
v 1.000000 1.100000 -1.000000
v 1.000000 1.200000 -1.000000
v -1.100000 2.400000 -1.100000
v -1.100000 2.700000 -1.100000
v -1.200000 2.400000 -1.200000
v -1.200000 1.300000 1.200000
v -1.200000 2.400000 1.200000
v -1.100000 1.200000 1.100000
v -1.100000 1.300000 1.100000
v -1.100000 2.700000 1.100000
v 1.100000 1.300000 1.100000
v 1.100000 2.700000 1.100000
v 1.000000 1.200000 1.000000
v -0.800000 0.000000 0.900000
v 0.900000 0.000000 0.900000
v -0.900000 0.900000 0.800000
v 1.100000 0.000000 0.800000
v -1.000000 -0.000000 -1.000000
v 1.000000 -0.000000 -1.000000
v 1.000000 0.900000 -1.000000
v -1.100000 0.900000 -1.100000
v -1.100000 1.000000 -1.100000
v -1.000000 -0.000000 -1.100000
v 0.800000 0.900000 -1.100000
v 1.000000 -0.000000 -1.100000
v -1.200000 2.700000 -1.200000
v 1.200000 1.000000 -1.200000
v -1.300000 1.100000 -1.300000
v -1.300000 2.600000 -1.300000
v 1.300000 1.200000 -1.300000
v -1.400000 2.500000 -1.400000
v -1.000000 0.000000 1.100000
v -0.800000 0.000000 1.100000
v 1.100000 0.000000 1.000000
v -0.900000 0.000000 0.900000
v -0.900000 0.000000 0.800000
v 0.900000 0.000000 0.800000
v 0.900000 -0.000000 -0.800000
v -0.900000 -0.000000 -0.900000
v 0.900000 -0.000000 -0.900000
v 1.100000 -0.000000 -1.000000
v -0.800000 -0.000000 -1.100000
v -1.100000 0.900000 1.100000
v 1.000000 0.900000 1.100000
v 1.100000 0.900000 1.100000
v -1.000000 0.900000 1.000000
v -0.900000 0.900000 0.900000
v -0.800000 0.900000 0.900000
v -1.100000 0.900000 0.800000
v 0.900000 0.900000 0.800000
v 1.100000 0.900000 0.800000
v -0.900000 0.900000 -0.800000
v 1.100000 0.900000 -0.800000
v -0.900000 0.900000 -0.900000
v -0.800000 0.900000 -0.900000
v 0.800000 0.900000 -0.900000
v 1.100000 0.900000 -1.000000
v 1.000000 0.900000 -1.100000
v -1.200000 1.000000 1.200000
v -1.200000 1.100000 -1.200000
v 1.200000 1.100000 -1.200000
v 1.300000 1.100000 -1.300000
v 1.300000 1.200000 1.300000
v -1.300000 1.200000 -1.300000
v -1.400000 1.200000 -1.400000
v 1.000000 1.100000 1.000000
v 1.100000 1.200000 1.100000
v -1.000000 1.200000 1.000000
v -1.100000 1.200000 -1.100000
v 1.200000 1.300000 1.200000
v 1.100000 1.300000 -1.100000
v -1.200000 1.300000 -1.200000
v -1.300000 2.500000 -1.300000
v 1.400000 2.500000 -1.400000
v -1.300000 2.600000 1.300000
v -1.200000 2.600000 -1.200000
v 1.200000 2.600000 -1.200000
v 1.100000 2.700000 -1.100000
v 1.200000 2.700000 -1.200000
vn -1.0000 -0.0000 -0.0000
vn 1.0000 -0.0000 -0.0000
vn -0.0000 -0.0000 1.0000
vn -0.0000 -0.0000 -1.0000
vn -0.0000 -1.0000 -0.0000
vn -0.0000 1.0000 -0.0000
vt 0.958984 0.500000
vt 0.888672 0.500000
s 0
usemtl palette
f 2/1/1 130/1/1 1/1/1
f 96/1/1 130/1/1 2/1/1
f 3/1/1 93/1/1 48/1/1
f 129/1/1 93/1/1 3/1/1
f 140/1/1 138/1/1 4/1/1
f 94/1/1 138/1/1 140/1/1
f 6/1/1 5/1/1 124/1/1
f 125/1/1 5/1/1 6/1/1
f 51/1/1 141/1/1 7/1/1
f 91/1/1 141/1/1 51/1/1
f 58/2/1 9/2/1 8/2/1
f 114/2/1 9/2/1 58/2/1
f 62/2/1 10/2/1 61/2/1
f 11/2/1 10/2/1 62/2/1
f 12/1/1 114/1/1 58/1/1
f 12/1/1 86/1/1 11/1/1
f 12/1/1 11/1/1 62/1/1
f 12/1/1 62/1/1 114/1/1
f 12/1/1 58/1/1 108/1/1
f 87/1/1 86/1/1 12/1/1
f 54/2/1 13/2/1 97/2/1
f 111/2/1 13/2/1 54/2/1
f 14/2/1 88/2/1 83/2/1
f 15/2/1 88/2/1 14/2/1
f 19/2/1 16/2/1 56/2/1
f 20/2/1 16/2/1 19/2/1
f 121/2/1 18/2/1 17/2/1
f 89/2/1 18/2/1 121/2/1
f 21/2/1 102/2/1 80/2/1
f 115/2/1 102/2/1 21/2/1
f 63/2/1 105/2/1 103/2/1
f 65/2/1 105/2/1 63/2/1
f 78/1/1 66/1/1 131/1/1
f 67/1/1 66/1/1 78/1/1
f 76/1/1 22/1/1 132/1/1
f 136/1/1 22/1/1 76/1/1
f 77/1/1 24/1/1 23/1/1
f 143/1/1 24/1/1 77/1/1
f 26/1/1 25/1/1 135/1/1
f 27/1/1 25/1/1 26/1/1
f 71/1/2 137/1/2 72/1/2
f 72/1/2 137/1/2 70/1/2
f 73/1/2 134/1/2 74/1/2
f 74/1/2 134/1/2 28/1/2
f 29/1/2 68/1/2 75/1/2
f 75/1/2 68/1/2 69/1/2
f 30/1/2 31/1/2 133/1/2
f 133/1/2 31/1/2 32/1/2
f 100/2/2 101/2/2 112/2/2
f 112/2/2 101/2/2 81/2/2
f 33/2/2 104/2/2 117/2/2
f 117/2/2 104/2/2 119/2/2
f 98/2/2 79/2/2 55/2/2
f 55/2/2 79/2/2 113/2/2
f 34/2/2 107/2/2 120/2/2
f 120/2/2 107/2/2 35/2/2
f 57/2/2 36/2/2 109/2/2
f 109/2/2 36/2/2 59/2/2
f 84/2/2 90/2/2 85/2/2
f 85/2/2 90/2/2 123/2/2
f 99/2/2 82/2/2 60/2/2
f 60/2/2 82/2/2 116/2/2
f 64/2/2 106/2/2 118/2/2
f 118/2/2 106/2/2 122/2/2
f 60/1/2 116/1/2 38/1/2
f 122/1/2 37/1/2 38/1/2
f 118/1/2 122/1/2 38/1/2
f 116/1/2 118/1/2 38/1/2
f 110/1/2 60/1/2 38/1/2
f 38/1/2 37/1/2 39/1/2
f 52/1/2 92/1/2 53/1/2
f 53/1/2 92/1/2 126/1/2
f 40/1/2 142/1/2 41/1/2
f 41/1/2 142/1/2 144/1/2
f 49/1/2 127/1/2 128/1/2
f 128/1/2 127/1/2 95/1/2
f 42/1/2 43/1/2 50/1/2
f 50/1/2 43/1/2 44/1/2
f 47/1/2 45/1/2 46/1/2
f 46/1/2 45/1/2 139/1/2
f 47/1/3 2/1/3 1/1/3
f 46/1/3 2/1/3 47/1/3
f 49/1/3 3/1/3 48/1/3
f 128/1/3 3/1/3 49/1/3
f 42/1/3 140/1/3 4/1/3
f 50/1/3 140/1/3 42/1/3
f 52/1/3 6/1/3 124/1/3
f 53/1/3 6/1/3 52/1/3
f 40/1/3 51/1/3 7/1/3
f 41/1/3 51/1/3 40/1/3
f 54/1/3 12/1/3 108/1/3
f 98/2/3 54/2/3 97/2/3
f 55/1/3 12/1/3 54/1/3
f 55/2/3 54/2/3 98/2/3
f 19/1/3 12/1/3 55/1/3
f 57/2/3 19/2/3 56/2/3
f 109/1/3 12/1/3 19/1/3
f 109/2/3 19/2/3 57/2/3
f 110/1/3 12/1/3 109/1/3
f 38/1/3 12/1/3 110/1/3
f 13/2/3 58/2/3 8/2/3
f 111/2/3 58/2/3 13/2/3
f 99/2/3 59/2/3 36/2/3
f 60/2/3 59/2/3 99/2/3
f 33/2/3 62/2/3 61/2/3
f 117/2/3 62/2/3 33/2/3
f 64/2/3 63/2/3 103/2/3
f 118/2/3 63/2/3 64/2/3
f 34/2/3 119/2/3 104/2/3
f 120/2/3 119/2/3 34/2/3
f 105/2/3 121/2/3 17/2/3
f 65/2/3 121/2/3 105/2/3
f 66/1/3 32/1/3 31/1/3
f 67/1/3 32/1/3 66/1/3
f 22/1/3 28/1/3 134/1/3
f 136/1/3 28/1/3 22/1/3
f 24/1/3 69/1/3 68/1/3
f 143/1/3 69/1/3 24/1/3
f 25/1/3 70/1/3 137/1/3
f 27/1/3 70/1/3 25/1/3
f 71/1/4 72/1/4 135/1/4
f 135/1/4 72/1/4 26/1/4
f 73/1/4 74/1/4 132/1/4
f 132/1/4 74/1/4 76/1/4
f 29/1/4 75/1/4 23/1/4
f 23/1/4 75/1/4 77/1/4
f 30/1/4 133/1/4 131/1/4
f 131/1/4 133/1/4 78/1/4
f 100/2/4 112/2/4 79/2/4
f 79/2/4 112/2/4 113/2/4
f 16/2/4 20/2/4 80/2/4
f 80/2/4 20/2/4 21/2/4
f 9/2/4 114/2/4 101/2/4
f 101/2/4 114/2/4 81/2/4
f 102/2/4 115/2/4 82/2/4
f 82/2/4 115/2/4 116/2/4
f 10/2/4 11/2/4 83/2/4
f 83/2/4 11/2/4 14/2/4
f 84/2/4 85/2/4 106/2/4
f 106/2/4 85/2/4 122/2/4
f 86/1/4 87/1/4 15/1/4
f 88/2/4 15/2/4 107/2/4
f 15/1/4 87/1/4 35/1/4
f 107/2/4 15/2/4 35/2/4
f 35/1/4 87/1/4 89/1/4
f 18/2/4 89/2/4 90/2/4
f 89/1/4 87/1/4 123/1/4
f 90/2/4 89/2/4 123/2/4
f 123/1/4 87/1/4 37/1/4
f 37/1/4 87/1/4 39/1/4
f 5/1/4 125/1/4 92/1/4
f 92/1/4 125/1/4 126/1/4
f 141/1/4 91/1/4 142/1/4
f 142/1/4 91/1/4 144/1/4
f 93/1/4 129/1/4 127/1/4
f 127/1/4 129/1/4 95/1/4
f 138/1/4 94/1/4 43/1/4
f 43/1/4 94/1/4 44/1/4
f 130/1/4 96/1/4 45/1/4
f 45/1/4 96/1/4 139/1/4
f 13/2/5 98/2/5 97/2/5
f 36/2/5 57/2/5 56/2/5
f 100/2/5 13/2/5 8/2/5
f 100/2/5 98/2/5 13/2/5
f 79/2/5 98/2/5 100/2/5
f 16/2/5 99/2/5 36/2/5
f 16/2/5 36/2/5 56/2/5
f 80/2/5 99/2/5 16/2/5
f 9/2/5 100/2/5 8/2/5
f 101/2/5 100/2/5 9/2/5
f 102/2/5 99/2/5 80/2/5
f 82/2/5 99/2/5 102/2/5
f 104/2/5 33/2/5 61/2/5
f 105/2/5 64/2/5 103/2/5
f 10/2/5 34/2/5 104/2/5
f 10/2/5 104/2/5 61/2/5
f 83/2/5 34/2/5 10/2/5
f 84/2/5 105/2/5 17/2/5
f 84/2/5 64/2/5 105/2/5
f 106/2/5 64/2/5 84/2/5
f 88/2/5 34/2/5 83/2/5
f 107/2/5 34/2/5 88/2/5
f 18/2/5 84/2/5 17/2/5
f 90/2/5 84/2/5 18/2/5
f 58/1/5 54/1/5 108/1/5
f 111/1/5 54/1/5 58/1/5
f 59/1/5 110/1/5 109/1/5
f 60/1/5 110/1/5 59/1/5
f 113/1/5 19/1/5 55/1/5
f 20/1/5 19/1/5 113/1/5
f 81/1/5 113/1/5 112/1/5
f 81/1/5 21/1/5 20/1/5
f 81/1/5 20/1/5 113/1/5
f 115/1/5 21/1/5 81/1/5
f 62/1/5 81/1/5 114/1/5
f 62/1/5 116/1/5 115/1/5
f 62/1/5 115/1/5 81/1/5
f 117/1/5 116/1/5 62/1/5
f 63/1/5 116/1/5 117/1/5
f 118/1/5 116/1/5 63/1/5
f 119/1/5 63/1/5 117/1/5
f 120/1/5 63/1/5 119/1/5
f 121/1/5 63/1/5 120/1/5
f 65/1/5 63/1/5 121/1/5
f 86/1/5 14/1/5 11/1/5
f 15/1/5 14/1/5 86/1/5
f 35/1/5 121/1/5 120/1/5
f 89/1/5 121/1/5 35/1/5
f 123/1/5 122/1/5 85/1/5
f 37/1/5 122/1/5 123/1/5
f 12/1/5 52/1/5 124/1/5
f 38/1/5 52/1/5 12/1/5
f 87/1/5 12/1/5 124/1/5
f 39/1/5 52/1/5 38/1/5
f 5/1/5 87/1/5 124/1/5
f 5/1/5 39/1/5 87/1/5
f 92/1/5 52/1/5 39/1/5
f 92/1/5 39/1/5 5/1/5
f 6/1/5 49/1/5 48/1/5
f 53/1/5 49/1/5 6/1/5
f 125/1/5 6/1/5 48/1/5
f 126/1/5 49/1/5 53/1/5
f 93/1/5 125/1/5 48/1/5
f 93/1/5 126/1/5 125/1/5
f 127/1/5 49/1/5 126/1/5
f 127/1/5 126/1/5 93/1/5
f 3/1/5 47/1/5 1/1/5
f 128/1/5 47/1/5 3/1/5
f 129/1/5 3/1/5 1/1/5
f 95/1/5 47/1/5 128/1/5
f 130/1/5 129/1/5 1/1/5
f 130/1/5 95/1/5 129/1/5
f 45/1/5 47/1/5 95/1/5
f 45/1/5 95/1/5 130/1/5
f 29/1/5 26/1/5 72/1/5
f 23/1/5 26/1/5 29/1/5
f 68/1/5 29/1/5 72/1/5
f 24/1/5 26/1/5 23/1/5
f 70/1/5 68/1/5 72/1/5
f 70/1/5 24/1/5 68/1/5
f 27/1/5 26/1/5 24/1/5
f 27/1/5 24/1/5 70/1/5
f 30/1/6 131/1/6 31/1/6
f 31/1/6 131/1/6 66/1/6
f 73/1/6 132/1/6 133/1/6
f 133/1/6 132/1/6 78/1/6
f 73/1/6 133/1/6 32/1/6
f 78/1/6 132/1/6 67/1/6
f 73/1/6 32/1/6 134/1/6
f 32/1/6 67/1/6 134/1/6
f 67/1/6 132/1/6 22/1/6
f 134/1/6 67/1/6 22/1/6
f 71/1/6 135/1/6 74/1/6
f 74/1/6 135/1/6 76/1/6
f 71/1/6 74/1/6 28/1/6
f 76/1/6 135/1/6 136/1/6
f 71/1/6 28/1/6 137/1/6
f 28/1/6 136/1/6 137/1/6
f 136/1/6 135/1/6 25/1/6
f 137/1/6 136/1/6 25/1/6
f 2/1/6 46/1/6 4/1/6
f 4/1/6 46/1/6 42/1/6
f 2/1/6 4/1/6 138/1/6
f 42/1/6 46/1/6 43/1/6
f 2/1/6 138/1/6 96/1/6
f 138/1/6 43/1/6 96/1/6
f 43/1/6 46/1/6 139/1/6
f 96/1/6 43/1/6 139/1/6
f 140/1/6 50/1/6 7/1/6
f 7/1/6 50/1/6 40/1/6
f 140/1/6 7/1/6 141/1/6
f 40/1/6 50/1/6 142/1/6
f 140/1/6 141/1/6 94/1/6
f 141/1/6 142/1/6 94/1/6
f 142/1/6 50/1/6 44/1/6
f 94/1/6 142/1/6 44/1/6
f 51/1/6 41/1/6 75/1/6
f 75/1/6 41/1/6 77/1/6
f 51/1/6 75/1/6 69/1/6
f 77/1/6 41/1/6 143/1/6
f 51/1/6 69/1/6 91/1/6
f 69/1/6 143/1/6 91/1/6
f 143/1/6 41/1/6 144/1/6
f 91/1/6 143/1/6 144/1/6
