# MagicaVoxel @ Ephtracy

# group
o 

# material
mtllib Pillowed Armchair.mtl
usemtl palette

# normals
vn -1 0 0
vn 1 0 0
vn 0 0 1
vn 0 0 -1
vn 0 -1 0
vn 0 1 0

# texcoords
vt 0.376953 0.5
vt 0.501953 0.5
vt 0.505859 0.5
vt 0.888672 0.5

# verts
v -1.1 0 1.1
v -1.1 0 0.8
v -1.1 0 -1
v -1.1 0 -1.3
v -1.1 1.2 0.8
v -1.1 1.2 -1
v -1.1 1.3 0.8
v -1.1 1.3 -1
v -1.1 1.8 0.8
v -1.1 1.8 0.7
v -1.1 1.9 1.1
v -1.1 1.9 1
v -1.1 1.9 0.7
v -1.1 1.9 0.6
v -1.1 2 1
v -1.1 2 0.9
v -1.1 2 0.6
v -1.1 2 0.5
v -1.1 2.1 0.9
v -1.1 2.1 0.8
v -1.1 2.1 0.5
v -1.1 2.1 -1
v -1.1 2.2 0.8
v -1.1 2.2 0.7
v -1.1 2.3 0.7
v -1.1 2.3 0.6
v -1.1 2.4 0.6
v -1.1 2.4 -1
v -1.1 3.4 -1
v -1.1 3.4 -1.3
v -1 3.4 -1
v -1 3.4 -1.3
v -1 3.5 -1
v -1 3.5 -1.3
v -0.9 3.5 -1
v -0.9 3.5 -1.3
v -0.9 3.6 -1
v -0.9 3.6 -1.3
v -0.8 3.6 -1
v -0.8 3.6 -1.3
v -0.8 3.7 -1
v -0.8 3.7 -1.3
v -0.7 1.4 -0.9
v -0.7 1.4 -1
v -0.7 3.6 -0.9
v -0.7 3.6 -1
v -0.7 3.7 -1
v -0.7 3.7 -1.3
v -0.7 3.8 -1
v -0.7 3.8 -1.3
v -0.6 1.6 -0.8
v -0.6 1.6 -0.9
v -0.6 3.5 -0.8
v -0.6 3.5 -0.9
v 0.8 0 1.1
v 0.8 0 0.8
v 0.8 0 -1
v 0.8 0 -1.3
v 0.8 1.2 1.1
v 0.8 1.2 0.8
v 0.8 1.2 -1
v 0.8 1.2 -1.3
v 0.8 1.3 1.1
v 0.8 1.3 0.8
v 0.8 1.8 0.8
v 0.8 1.8 0.7
v 0.8 1.9 1.1
v 0.8 1.9 1
v 0.8 1.9 0.7
v 0.8 1.9 0.6
v 0.8 2 1
v 0.8 2 0.9
v 0.8 2 0.6
v 0.8 2 0.5
v 0.8 2.1 0.9
v 0.8 2.1 0.8
v 0.8 2.1 0.5
v 0.8 2.1 -1
v 0.8 2.2 0.8
v 0.8 2.2 0.7
v 0.8 2.3 0.7
v 0.8 2.3 0.6
v 0.8 2.4 0.6
v 0.8 2.4 -1
v -0.8 0 1.1
v -0.8 0 0.8
v -0.8 0 -1
v -0.8 0 -1.3
v -0.8 1.2 1.1
v -0.8 1.2 0.8
v -0.8 1.2 -1
v -0.8 1.2 -1.3
v -0.8 1.3 1.1
v -0.8 1.3 0.8
v -0.8 1.8 0.8
v -0.8 1.8 0.7
v -0.8 1.9 1.1
v -0.8 1.9 1
v -0.8 1.9 0.7
v -0.8 1.9 0.6
v -0.8 2 1
v -0.8 2 0.9
v -0.8 2 0.6
v -0.8 2 0.5
v -0.8 2.1 0.9
v -0.8 2.1 0.8
v -0.8 2.1 0.5
v -0.8 2.1 -1
v -0.8 2.2 0.8
v -0.8 2.2 0.7
v -0.8 2.3 0.7
v -0.8 2.3 0.6
v -0.8 2.4 0.6
v -0.8 2.4 -1
v 0.6 1.6 -0.8
v 0.6 1.6 -0.9
v 0.6 3.5 -0.8
v 0.6 3.5 -0.9
v 0.7 1.4 -0.9
v 0.7 1.4 -1
v 0.7 3.6 -0.9
v 0.7 3.6 -1
v 0.7 3.7 -1
v 0.7 3.7 -1.3
v 0.7 3.8 -1
v 0.7 3.8 -1.3
v 0.8 3.6 -1
v 0.8 3.6 -1.3
v 0.8 3.7 -1
v 0.8 3.7 -1.3
v 0.9 3.5 -1
v 0.9 3.5 -1.3
v 0.9 3.6 -1
v 0.9 3.6 -1.3
v 1 3.4 -1
v 1 3.4 -1.3
v 1 3.5 -1
v 1 3.5 -1.3
v 1.1 0 1.1
v 1.1 0 0.8
v 1.1 0 -1
v 1.1 0 -1.3
v 1.1 1.2 0.8
v 1.1 1.2 -1
v 1.1 1.3 0.8
v 1.1 1.3 -1
v 1.1 1.8 0.8
v 1.1 1.8 0.7
v 1.1 1.9 1.1
v 1.1 1.9 1
v 1.1 1.9 0.7
v 1.1 1.9 0.6
v 1.1 2 1
v 1.1 2 0.9
v 1.1 2 0.6
v 1.1 2 0.5
v 1.1 2.1 0.9
v 1.1 2.1 0.8
v 1.1 2.1 0.5
v 1.1 2.1 -1
v 1.1 2.2 0.8
v 1.1 2.2 0.7
v 1.1 2.3 0.7
v 1.1 2.3 0.6
v 1.1 2.4 0.6
v 1.1 2.4 -1
v 1.1 3.4 -1
v 1.1 3.4 -1.3
v -1.1 0 1.1
v -1.1 1.9 1.1
v -0.8 0 1.1
v -0.8 1.2 1.1
v -0.8 1.3 1.1
v -0.8 1.9 1.1
v 0.8 0 1.1
v 0.8 1.2 1.1
v 0.8 1.3 1.1
v 0.8 1.9 1.1
v 1.1 0 1.1
v 1.1 1.9 1.1
v -1.1 1.9 1
v -1.1 2 1
v -0.8 1.9 1
v -0.8 2 1
v 0.8 1.9 1
v 0.8 2 1
v 1.1 1.9 1
v 1.1 2 1
v -1.1 2 0.9
v -1.1 2.1 0.9
v -0.8 2 0.9
v -0.8 2.1 0.9
v 0.8 2 0.9
v 0.8 2.1 0.9
v 1.1 2 0.9
v 1.1 2.1 0.9
v -1.1 2.1 0.8
v -1.1 2.2 0.8
v -0.8 2.1 0.8
v -0.8 2.2 0.8
v 0.8 2.1 0.8
v 0.8 2.2 0.8
v 1.1 2.1 0.8
v 1.1 2.2 0.8
v -1.1 2.2 0.7
v -1.1 2.3 0.7
v -0.8 2.2 0.7
v -0.8 2.3 0.7
v 0.8 2.2 0.7
v 0.8 2.3 0.7
v 1.1 2.2 0.7
v 1.1 2.3 0.7
v -1.1 2.3 0.6
v -1.1 2.4 0.6
v -0.8 2.3 0.6
v -0.8 2.4 0.6
v 0.8 2.3 0.6
v 0.8 2.4 0.6
v 1.1 2.3 0.6
v 1.1 2.4 0.6
v -0.6 1.6 -0.8
v -0.6 3.5 -0.8
v 0.6 1.6 -0.8
v 0.6 3.5 -0.8
v -0.7 1.4 -0.9
v -0.7 3.6 -0.9
v -0.6 1.5 -0.9
v -0.6 1.6 -0.9
v -0.6 3.5 -0.9
v 0.6 1.5 -0.9
v 0.6 1.6 -0.9
v 0.6 3.5 -0.9
v 0.7 1.4 -0.9
v 0.7 3.6 -0.9
v -1.1 0 -1
v -1.1 1.2 -1
v -1.1 1.3 -1
v -1.1 2.1 -1
v -1.1 2.4 -1
v -1.1 3.4 -1
v -1 3.4 -1
v -1 3.5 -1
v -0.9 3.5 -1
v -0.9 3.6 -1
v -0.8 0 -1
v -0.8 1.2 -1
v -0.8 2.1 -1
v -0.8 2.4 -1
v -0.8 3.6 -1
v -0.8 3.7 -1
v -0.7 1.4 -1
v -0.7 3.6 -1
v -0.7 3.7 -1
v -0.7 3.8 -1
v 0.7 1.4 -1
v 0.7 3.6 -1
v 0.7 3.7 -1
v 0.7 3.8 -1
v 0.8 0 -1
v 0.8 1.2 -1
v 0.8 2.1 -1
v 0.8 2.4 -1
v 0.8 3.6 -1
v 0.8 3.7 -1
v 0.9 3.5 -1
v 0.9 3.6 -1
v 1 3.4 -1
v 1 3.5 -1
v 1.1 0 -1
v 1.1 1.2 -1
v 1.1 1.3 -1
v 1.1 2.1 -1
v 1.1 2.4 -1
v 1.1 3.4 -1
v -1.1 0 0.8
v -1.1 1.2 0.8
v -1.1 1.3 0.8
v -1.1 1.8 0.8
v -0.8 0 0.8
v -0.8 1.2 0.8
v -0.8 1.3 0.8
v -0.8 1.8 0.8
v 0.8 0 0.8
v 0.8 1.2 0.8
v 0.8 1.3 0.8
v 0.8 1.8 0.8
v 1.1 0 0.8
v 1.1 1.2 0.8
v 1.1 1.3 0.8
v 1.1 1.8 0.8
v -1.1 1.8 0.7
v -1.1 1.9 0.7
v -0.8 1.8 0.7
v -0.8 1.9 0.7
v 0.8 1.8 0.7
v 0.8 1.9 0.7
v 1.1 1.8 0.7
v 1.1 1.9 0.7
v -1.1 1.9 0.6
v -1.1 2 0.6
v -0.8 1.9 0.6
v -0.8 2 0.6
v 0.8 1.9 0.6
v 0.8 2 0.6
v 1.1 1.9 0.6
v 1.1 2 0.6
v -1.1 2 0.5
v -1.1 2.1 0.5
v -0.8 2 0.5
v -0.8 2.1 0.5
v 0.8 2 0.5
v 0.8 2.1 0.5
v 1.1 2 0.5
v 1.1 2.1 0.5
v -1.1 0 -1.3
v -1.1 3.4 -1.3
v -1 3.4 -1.3
v -1 3.5 -1.3
v -0.9 3.5 -1.3
v -0.9 3.6 -1.3
v -0.8 0 -1.3
v -0.8 1.2 -1.3
v -0.8 3.6 -1.3
v -0.8 3.7 -1.3
v -0.7 3.7 -1.3
v -0.7 3.8 -1.3
v 0.7 3.7 -1.3
v 0.7 3.8 -1.3
v 0.8 0 -1.3
v 0.8 1.2 -1.3
v 0.8 3.6 -1.3
v 0.8 3.7 -1.3
v 0.9 3.5 -1.3
v 0.9 3.6 -1.3
v 1 3.4 -1.3
v 1 3.5 -1.3
v 1.1 0 -1.3
v 1.1 3.4 -1.3
v -1.1 0 1.1
v -0.8 0 1.1
v 0.8 0 1.1
v 1.1 0 1.1
v -1.1 0 0.8
v -0.8 0 0.8
v 0.8 0 0.8
v 1.1 0 0.8
v -1.1 0 -1
v -0.8 0 -1
v 0.8 0 -1
v 1.1 0 -1
v -1.1 0 -1.3
v -0.8 0 -1.3
v 0.8 0 -1.3
v 1.1 0 -1.3
v -0.8 1.2 1.1
v 0.8 1.2 1.1
v -1.1 1.2 0.8
v -0.8 1.2 0.8
v 0.8 1.2 0.8
v 1.1 1.2 0.8
v -1.1 1.2 -1
v -0.8 1.2 -1
v 0.8 1.2 -1
v 1.1 1.2 -1
v -0.8 1.2 -1.3
v 0.8 1.2 -1.3
v -0.7 1.4 -0.9
v 0.7 1.4 -0.9
v -0.7 1.4 -1
v 0.7 1.4 -1
v -0.6 1.6 -0.8
v 0.6 1.6 -0.8
v -0.6 1.6 -0.9
v 0.6 1.6 -0.9
v -1.1 1.8 0.8
v -0.8 1.8 0.8
v 0.8 1.8 0.8
v 1.1 1.8 0.8
v -1.1 1.8 0.7
v -0.8 1.8 0.7
v 0.8 1.8 0.7
v 1.1 1.8 0.7
v -1.1 1.9 0.7
v -0.8 1.9 0.7
v 0.8 1.9 0.7
v 1.1 1.9 0.7
v -1.1 1.9 0.6
v -0.8 1.9 0.6
v 0.8 1.9 0.6
v 1.1 1.9 0.6
v -1.1 2 0.6
v -0.8 2 0.6
v 0.8 2 0.6
v 1.1 2 0.6
v -1.1 2 0.5
v -0.8 2 0.5
v 0.8 2 0.5
v 1.1 2 0.5
v -1.1 2.1 0.5
v -0.8 2.1 0.5
v 0.8 2.1 0.5
v 1.1 2.1 0.5
v -1.1 2.1 -1
v -0.8 2.1 -1
v 0.8 2.1 -1
v 1.1 2.1 -1
v -0.8 1.3 1.1
v 0.8 1.3 1.1
v -1.1 1.3 0.8
v -0.8 1.3 0.8
v 0.8 1.3 0.8
v 1.1 1.3 0.8
v -1.1 1.3 -1
v 1.1 1.3 -1
v -1.1 1.9 1.1
v -0.8 1.9 1.1
v 0.8 1.9 1.1
v 1.1 1.9 1.1
v -1.1 1.9 1
v -0.8 1.9 1
v 0.8 1.9 1
v 1.1 1.9 1
v -1.1 2 1
v -0.8 2 1
v 0.8 2 1
v 1.1 2 1
v -1.1 2 0.9
v -0.8 2 0.9
v 0.8 2 0.9
v 1.1 2 0.9
v -1.1 2.1 0.9
v -0.8 2.1 0.9
v 0.8 2.1 0.9
v 1.1 2.1 0.9
v -1.1 2.1 0.8
v -0.8 2.1 0.8
v 0.8 2.1 0.8
v 1.1 2.1 0.8
v -1.1 2.2 0.8
v -0.8 2.2 0.8
v 0.8 2.2 0.8
v 1.1 2.2 0.8
v -1.1 2.2 0.7
v -0.8 2.2 0.7
v 0.8 2.2 0.7
v 1.1 2.2 0.7
v -1.1 2.3 0.7
v -0.8 2.3 0.7
v 0.8 2.3 0.7
v 1.1 2.3 0.7
v -1.1 2.3 0.6
v -0.8 2.3 0.6
v 0.8 2.3 0.6
v 1.1 2.3 0.6
v -1.1 2.4 0.6
v -0.8 2.4 0.6
v 0.8 2.4 0.6
v 1.1 2.4 0.6
v -1.1 2.4 -1
v -0.8 2.4 -1
v 0.8 2.4 -1
v 1.1 2.4 -1
v -1.1 3.4 -1
v -1 3.4 -1
v 1 3.4 -1
v 1.1 3.4 -1
v -1.1 3.4 -1.3
v -1 3.4 -1.3
v 1 3.4 -1.3
v 1.1 3.4 -1.3
v -0.6 3.5 -0.8
v 0.6 3.5 -0.8
v -0.6 3.5 -0.9
v 0.6 3.5 -0.9
v -1 3.5 -1
v -0.9 3.5 -1
v 0.9 3.5 -1
v 1 3.5 -1
v -1 3.5 -1.3
v -0.9 3.5 -1.3
v 0.9 3.5 -1.3
v 1 3.5 -1.3
v -0.7 3.6 -0.9
v 0.7 3.6 -0.9
v -0.9 3.6 -1
v -0.8 3.6 -1
v -0.7 3.6 -1
v 0.7 3.6 -1
v 0.8 3.6 -1
v 0.9 3.6 -1
v -0.9 3.6 -1.3
v -0.8 3.6 -1.3
v 0.8 3.6 -1.3
v 0.9 3.6 -1.3
v -0.8 3.7 -1
v -0.7 3.7 -1
v 0.7 3.7 -1
v 0.8 3.7 -1
v -0.8 3.7 -1.3
v -0.7 3.7 -1.3
v 0.7 3.7 -1.3
v 0.8 3.7 -1.3
v -0.7 3.8 -1
v 0.7 3.8 -1
v -0.7 3.8 -1.3
v 0.7 3.8 -1.3

# faces
f 5/4/1 2/4/1 1/4/1
f 6/4/1 4/4/1 3/4/1
f 7/4/1 5/4/1 1/4/1
f 7/4/1 6/4/1 5/4/1
f 8/4/1 4/4/1 6/4/1
f 8/4/1 6/4/1 7/4/1
f 9/4/1 7/4/1 1/4/1
f 11/4/1 9/4/1 1/4/1
f 11/4/1 10/4/1 9/4/1
f 12/4/1 10/4/1 11/4/1
f 13/4/1 10/4/1 12/4/1
f 15/4/1 14/4/1 13/4/1
f 15/4/1 13/4/1 12/4/1
f 16/4/1 14/4/1 15/4/1
f 17/4/1 14/4/1 16/4/1
f 19/4/1 18/4/1 17/4/1
f 19/4/1 17/4/1 16/4/1
f 20/4/1 18/4/1 19/4/1
f 21/4/1 18/4/1 20/4/1
f 22/4/1 4/4/1 8/4/1
f 23/4/1 21/4/1 20/4/1
f 23/4/1 22/4/1 21/4/1
f 24/4/1 22/4/1 23/4/1
f 25/4/1 22/4/1 24/4/1
f 26/4/1 22/4/1 25/4/1
f 27/4/1 22/4/1 26/4/1
f 28/4/1 4/4/1 22/4/1
f 28/4/1 22/4/1 27/4/1
f 29/4/1 4/4/1 28/4/1
f 30/4/1 4/4/1 29/4/1
f 33/4/1 32/4/1 31/4/1
f 34/4/1 32/4/1 33/4/1
f 37/4/1 36/4/1 35/4/1
f 38/4/1 36/4/1 37/4/1
f 41/4/1 40/4/1 39/4/1
f 42/4/1 40/4/1 41/4/1
f 45/1/1 44/1/1 43/1/1
f 46/1/1 44/1/1 45/1/1
f 49/4/1 48/4/1 47/4/1
f 50/4/1 48/4/1 49/4/1
f 53/2/1 52/2/1 51/2/1
f 54/2/1 52/2/1 53/2/1
f 59/4/1 56/4/1 55/4/1
f 60/4/1 56/4/1 59/4/1
f 61/4/1 58/4/1 57/4/1
f 62/4/1 58/4/1 61/4/1
f 65/4/1 64/4/1 63/4/1
f 67/4/1 65/4/1 63/4/1
f 67/4/1 66/4/1 65/4/1
f 68/4/1 66/4/1 67/4/1
f 69/4/1 66/4/1 68/4/1
f 71/4/1 70/4/1 69/4/1
f 71/4/1 69/4/1 68/4/1
f 72/4/1 70/4/1 71/4/1
f 73/4/1 70/4/1 72/4/1
f 75/4/1 74/4/1 73/4/1
f 75/4/1 73/4/1 72/4/1
f 76/4/1 74/4/1 75/4/1
f 77/4/1 74/4/1 76/4/1
f 79/4/1 78/4/1 77/4/1
f 79/4/1 77/4/1 76/4/1
f 80/4/1 78/4/1 79/4/1
f 81/4/1 78/4/1 80/4/1
f 82/4/1 78/4/1 81/4/1
f 83/4/1 78/4/1 82/4/1
f 84/4/1 78/4/1 83/4/1
f 85/4/2 86/4/2 89/4/2
f 89/4/2 86/4/2 90/4/2
f 87/4/2 88/4/2 91/4/2
f 91/4/2 88/4/2 92/4/2
f 93/4/2 94/4/2 95/4/2
f 93/4/2 95/4/2 97/4/2
f 95/4/2 96/4/2 97/4/2
f 97/4/2 96/4/2 98/4/2
f 98/4/2 96/4/2 99/4/2
f 99/4/2 100/4/2 101/4/2
f 98/4/2 99/4/2 101/4/2
f 101/4/2 100/4/2 102/4/2
f 102/4/2 100/4/2 103/4/2
f 103/4/2 104/4/2 105/4/2
f 102/4/2 103/4/2 105/4/2
f 105/4/2 104/4/2 106/4/2
f 106/4/2 104/4/2 107/4/2
f 107/4/2 108/4/2 109/4/2
f 106/4/2 107/4/2 109/4/2
f 109/4/2 108/4/2 110/4/2
f 110/4/2 108/4/2 111/4/2
f 111/4/2 108/4/2 112/4/2
f 112/4/2 108/4/2 113/4/2
f 113/4/2 108/4/2 114/4/2
f 115/2/2 116/2/2 117/2/2
f 117/2/2 116/2/2 118/2/2
f 119/1/2 120/1/2 121/1/2
f 121/1/2 120/1/2 122/1/2
f 123/4/2 124/4/2 125/4/2
f 125/4/2 124/4/2 126/4/2
f 127/4/2 128/4/2 129/4/2
f 129/4/2 128/4/2 130/4/2
f 131/4/2 132/4/2 133/4/2
f 133/4/2 132/4/2 134/4/2
f 135/4/2 136/4/2 137/4/2
f 137/4/2 136/4/2 138/4/2
f 139/4/2 140/4/2 143/4/2
f 141/4/2 142/4/2 144/4/2
f 139/4/2 143/4/2 145/4/2
f 143/4/2 144/4/2 145/4/2
f 144/4/2 142/4/2 146/4/2
f 145/4/2 144/4/2 146/4/2
f 139/4/2 145/4/2 147/4/2
f 139/4/2 147/4/2 149/4/2
f 147/4/2 148/4/2 149/4/2
f 149/4/2 148/4/2 150/4/2
f 150/4/2 148/4/2 151/4/2
f 151/4/2 152/4/2 153/4/2
f 150/4/2 151/4/2 153/4/2
f 153/4/2 152/4/2 154/4/2
f 154/4/2 152/4/2 155/4/2
f 155/4/2 156/4/2 157/4/2
f 154/4/2 155/4/2 157/4/2
f 157/4/2 156/4/2 158/4/2
f 158/4/2 156/4/2 159/4/2
f 146/4/2 142/4/2 160/4/2
f 158/4/2 159/4/2 161/4/2
f 159/4/2 160/4/2 161/4/2
f 161/4/2 160/4/2 162/4/2
f 162/4/2 160/4/2 163/4/2
f 163/4/2 160/4/2 164/4/2
f 164/4/2 160/4/2 165/4/2
f 160/4/2 142/4/2 166/4/2
f 165/4/2 160/4/2 166/4/2
f 166/4/2 142/4/2 167/4/2
f 167/4/2 142/4/2 168/4/2
f 171/4/3 170/4/3 169/4/3
f 172/4/3 170/4/3 171/4/3
f 173/4/3 170/4/3 172/4/3
f 174/4/3 170/4/3 173/4/3
f 176/4/3 173/4/3 172/4/3
f 177/4/3 173/4/3 176/4/3
f 179/4/3 176/4/3 175/4/3
f 179/4/3 178/4/3 177/4/3
f 179/4/3 177/4/3 176/4/3
f 180/4/3 178/4/3 179/4/3
f 183/4/3 182/4/3 181/4/3
f 184/4/3 182/4/3 183/4/3
f 187/4/3 186/4/3 185/4/3
f 188/4/3 186/4/3 187/4/3
f 191/4/3 190/4/3 189/4/3
f 192/4/3 190/4/3 191/4/3
f 195/4/3 194/4/3 193/4/3
f 196/4/3 194/4/3 195/4/3
f 199/4/3 198/4/3 197/4/3
f 200/4/3 198/4/3 199/4/3
f 203/4/3 202/4/3 201/4/3
f 204/4/3 202/4/3 203/4/3
f 207/4/3 206/4/3 205/4/3
f 208/4/3 206/4/3 207/4/3
f 211/4/3 210/4/3 209/4/3
f 212/4/3 210/4/3 211/4/3
f 215/4/3 214/4/3 213/4/3
f 216/4/3 214/4/3 215/4/3
f 219/4/3 218/4/3 217/4/3
f 220/4/3 218/4/3 219/4/3
f 223/2/3 222/2/3 221/2/3
f 224/2/3 222/2/3 223/2/3
f 227/1/3 226/1/3 225/1/3
f 228/1/3 226/1/3 227/1/3
f 229/1/3 226/1/3 228/1/3
f 230/1/3 227/1/3 225/1/3
f 230/3/3 228/3/3 227/3/3
f 231/3/3 228/3/3 230/3/3
f 232/1/3 226/1/3 229/1/3
f 233/1/3 231/1/3 230/1/3
f 233/1/3 232/1/3 231/1/3
f 233/1/3 230/1/3 225/1/3
f 234/1/3 226/1/3 232/1/3
f 234/1/3 232/1/3 233/1/3
f 241/4/3 240/4/3 239/4/3
f 243/4/3 242/4/3 241/4/3
f 245/4/3 236/4/3 235/4/3
f 246/4/3 236/4/3 245/4/3
f 247/4/3 238/4/3 237/4/3
f 248/4/3 244/4/3 243/4/3
f 248/4/3 241/4/3 239/4/3
f 248/4/3 243/4/3 241/4/3
f 249/4/3 244/4/3 248/4/3
f 251/4/3 247/4/3 237/4/3
f 251/4/3 250/4/3 249/4/3
f 251/4/3 249/4/3 248/4/3
f 251/4/3 248/4/3 247/4/3
f 252/4/3 250/4/3 251/4/3
f 253/4/3 250/4/3 252/4/3
f 255/4/3 251/4/3 237/4/3
f 256/4/3 254/4/3 253/4/3
f 256/4/3 253/4/3 252/4/3
f 257/4/3 254/4/3 256/4/3
f 258/4/3 254/4/3 257/4/3
f 261/4/3 256/4/3 255/4/3
f 261/4/3 257/4/3 256/4/3
f 262/4/3 257/4/3 261/4/3
f 263/4/3 257/4/3 262/4/3
f 264/4/3 257/4/3 263/4/3
f 265/4/3 263/4/3 262/4/3
f 266/4/3 263/4/3 265/4/3
f 267/4/3 265/4/3 262/4/3
f 268/4/3 265/4/3 267/4/3
f 269/4/3 260/4/3 259/4/3
f 270/4/3 260/4/3 269/4/3
f 271/4/3 255/4/3 237/4/3
f 271/4/3 261/4/3 255/4/3
f 272/4/3 261/4/3 271/4/3
f 273/4/3 267/4/3 262/4/3
f 274/4/3 267/4/3 273/4/3
f 275/4/4 276/4/4 279/4/4
f 279/4/4 276/4/4 280/4/4
f 277/4/4 278/4/4 281/4/4
f 281/4/4 278/4/4 282/4/4
f 283/4/4 284/4/4 287/4/4
f 287/4/4 284/4/4 288/4/4
f 285/4/4 286/4/4 289/4/4
f 289/4/4 286/4/4 290/4/4
f 291/4/4 292/4/4 293/4/4
f 293/4/4 292/4/4 294/4/4
f 295/4/4 296/4/4 297/4/4
f 297/4/4 296/4/4 298/4/4
f 299/4/4 300/4/4 301/4/4
f 301/4/4 300/4/4 302/4/4
f 303/4/4 304/4/4 305/4/4
f 305/4/4 304/4/4 306/4/4
f 307/4/4 308/4/4 309/4/4
f 309/4/4 308/4/4 310/4/4
f 311/4/4 312/4/4 313/4/4
f 313/4/4 312/4/4 314/4/4
f 315/4/4 316/4/4 317/4/4
f 317/4/4 318/4/4 319/4/4
f 315/4/4 317/4/4 321/4/4
f 319/4/4 320/4/4 321/4/4
f 317/4/4 319/4/4 321/4/4
f 321/4/4 320/4/4 322/4/4
f 322/4/4 320/4/4 323/4/4
f 323/4/4 324/4/4 325/4/4
f 322/4/4 323/4/4 325/4/4
f 322/4/4 325/4/4 327/4/4
f 325/4/4 326/4/4 327/4/4
f 327/4/4 326/4/4 328/4/4
f 322/4/4 327/4/4 330/4/4
f 330/4/4 327/4/4 331/4/4
f 331/4/4 327/4/4 332/4/4
f 329/4/4 330/4/4 333/4/4
f 330/4/4 331/4/4 333/4/4
f 333/4/4 331/4/4 334/4/4
f 329/4/4 333/4/4 335/4/4
f 335/4/4 333/4/4 336/4/4
f 329/4/4 335/4/4 337/4/4
f 337/4/4 335/4/4 338/4/4
f 343/4/5 340/4/5 339/4/5
f 344/4/5 340/4/5 343/4/5
f 345/4/5 342/4/5 341/4/5
f 346/4/5 342/4/5 345/4/5
f 351/4/5 348/4/5 347/4/5
f 352/4/5 348/4/5 351/4/5
f 353/4/5 350/4/5 349/4/5
f 354/4/5 350/4/5 353/4/5
f 358/4/5 356/4/5 355/4/5
f 359/4/5 356/4/5 358/4/5
f 361/4/5 358/4/5 357/4/5
f 361/4/5 360/4/5 359/4/5
f 361/4/5 359/4/5 358/4/5
f 362/4/5 360/4/5 361/4/5
f 363/4/5 360/4/5 362/4/5
f 364/4/5 360/4/5 363/4/5
f 365/4/5 363/4/5 362/4/5
f 366/4/5 363/4/5 365/4/5
f 369/1/5 368/1/5 367/1/5
f 370/1/5 368/1/5 369/1/5
f 373/2/5 372/2/5 371/2/5
f 374/2/5 372/2/5 373/2/5
f 379/4/5 376/4/5 375/4/5
f 380/4/5 376/4/5 379/4/5
f 381/4/5 378/4/5 377/4/5
f 382/4/5 378/4/5 381/4/5
f 387/4/5 384/4/5 383/4/5
f 388/4/5 384/4/5 387/4/5
f 389/4/5 386/4/5 385/4/5
f 390/4/5 386/4/5 389/4/5
f 395/4/5 392/4/5 391/4/5
f 396/4/5 392/4/5 395/4/5
f 397/4/5 394/4/5 393/4/5
f 398/4/5 394/4/5 397/4/5
f 403/4/5 400/4/5 399/4/5
f 404/4/5 400/4/5 403/4/5
f 405/4/5 402/4/5 401/4/5
f 406/4/5 402/4/5 405/4/5
f 407/4/6 408/4/6 410/4/6
f 410/4/6 408/4/6 411/4/6
f 409/4/6 410/4/6 413/4/6
f 411/4/6 412/4/6 413/4/6
f 410/4/6 411/4/6 413/4/6
f 413/4/6 412/4/6 414/4/6
f 415/4/6 416/4/6 419/4/6
f 419/4/6 416/4/6 420/4/6
f 417/4/6 418/4/6 421/4/6
f 421/4/6 418/4/6 422/4/6
f 423/4/6 424/4/6 427/4/6
f 427/4/6 424/4/6 428/4/6
f 425/4/6 426/4/6 429/4/6
f 429/4/6 426/4/6 430/4/6
f 431/4/6 432/4/6 435/4/6
f 435/4/6 432/4/6 436/4/6
f 433/4/6 434/4/6 437/4/6
f 437/4/6 434/4/6 438/4/6
f 439/4/6 440/4/6 443/4/6
f 443/4/6 440/4/6 444/4/6
f 441/4/6 442/4/6 445/4/6
f 445/4/6 442/4/6 446/4/6
f 447/4/6 448/4/6 451/4/6
f 451/4/6 448/4/6 452/4/6
f 449/4/6 450/4/6 453/4/6
f 453/4/6 450/4/6 454/4/6
f 455/4/6 456/4/6 459/4/6
f 459/4/6 456/4/6 460/4/6
f 457/4/6 458/4/6 461/4/6
f 461/4/6 458/4/6 462/4/6
f 463/4/6 464/4/6 467/4/6
f 467/4/6 464/4/6 468/4/6
f 465/4/6 466/4/6 469/4/6
f 469/4/6 466/4/6 470/4/6
f 471/2/6 472/2/6 473/2/6
f 473/2/6 472/2/6 474/2/6
f 475/4/6 476/4/6 479/4/6
f 479/4/6 476/4/6 480/4/6
f 477/4/6 478/4/6 481/4/6
f 481/4/6 478/4/6 482/4/6
f 483/1/6 484/1/6 487/1/6
f 487/1/6 484/1/6 488/1/6
f 485/4/6 486/4/6 491/4/6
f 491/4/6 486/4/6 492/4/6
f 489/4/6 490/4/6 493/4/6
f 493/4/6 490/4/6 494/4/6
f 495/4/6 496/4/6 499/4/6
f 499/4/6 496/4/6 500/4/6
f 497/4/6 498/4/6 501/4/6
f 501/4/6 498/4/6 502/4/6
f 503/4/6 504/4/6 505/4/6
f 505/4/6 504/4/6 506/4/6
