# Blender 3.6.1
# www.blender.org
mtllib Stool.mtl
o Stool
v -1.400000 0.000000 1.400000
v -1.400000 -0.000000 -1.100000
v -1.300000 0.600000 1.300000
v -1.200000 0.600000 -0.900000
v -1.200000 0.900000 -0.900000
v -1.200000 0.900000 -1.200000
v -1.200000 1.800000 -0.800000
v -1.200000 2.100000 0.800000
v -1.100000 0.900000 0.800000
v -1.100000 0.900000 -1.100000
v -1.100000 1.200000 -0.800000
v -1.100000 1.800000 -0.800000
v -1.000000 1.200000 0.800000
v -1.000000 1.200000 -0.700000
v -1.000000 1.200000 -1.000000
v -1.000000 1.500000 -1.000000
v -1.000000 1.800000 0.900000
v -0.900000 1.500000 0.700000
v -0.900000 1.500000 -0.900000
v -0.900000 1.800000 1.000000
v -0.900000 1.800000 0.900000
v -0.900000 2.100000 1.000000
v -0.800000 2.100000 1.100000
v 0.600000 1.500000 0.900000
v 0.600000 1.500000 0.600000
v 0.700000 1.200000 1.000000
v 0.700000 1.200000 0.700000
v 0.700000 1.500000 -0.900000
v 0.800000 0.900000 1.100000
v 0.800000 0.900000 0.800000
v 0.800000 1.200000 1.100000
v 0.800000 1.200000 1.000000
v 0.800000 1.200000 -0.800000
v 0.800000 1.200000 -1.000000
v 0.900000 0.900000 -0.900000
v 1.000000 0.300000 -1.000000
v 1.000000 0.600000 1.300000
v 1.000000 0.600000 -1.300000
v 1.100000 -0.000000 -1.100000
v 1.100000 0.300000 -1.100000
v 1.100000 0.300000 -1.300000
v -1.100000 0.300000 1.100000
v -1.000000 0.600000 1.300000
v -1.000000 0.600000 -1.300000
v -0.900000 0.600000 1.200000
v -0.900000 0.900000 1.100000
v -0.900000 0.900000 -1.200000
v -0.800000 0.900000 1.100000
v -0.800000 1.200000 1.100000
v -0.800000 1.200000 1.000000
v -0.700000 1.200000 -1.000000
v -0.700000 1.500000 1.000000
v -0.700000 1.500000 0.900000
v -0.700000 1.500000 -0.700000
v -0.600000 1.800000 0.900000
v -0.600000 1.800000 -0.600000
v 0.800000 1.800000 1.200000
v 0.800000 1.800000 -1.100000
v 0.800000 2.100000 1.100000
v 0.900000 1.500000 0.600000
v 0.900000 1.800000 1.100000
v 0.900000 1.800000 1.000000
v 0.900000 2.100000 1.100000
v 0.900000 2.100000 1.000000
v 1.000000 1.200000 -0.700000
v 1.000000 1.500000 0.700000
v 1.000000 1.500000 -1.000000
v 1.000000 1.800000 0.900000
v 1.000000 2.100000 1.000000
v 1.100000 0.900000 0.800000
v 1.100000 1.800000 0.900000
v 1.100000 2.100000 -0.800000
v 1.100000 2.100000 -0.900000
v 1.200000 0.600000 1.200000
v 1.200000 0.600000 -0.900000
v 1.200000 0.600000 -1.200000
v 1.200000 1.800000 -0.800000
v 1.300000 0.300000 -1.300000
v 1.300000 0.600000 1.000000
v 1.300000 0.600000 -1.300000
v 1.400000 0.000000 1.400000
v 1.400000 -0.000000 -1.400000
v 1.400000 0.300000 -1.100000
v -1.400000 0.300000 1.400000
v -1.100000 0.000000 1.400000
v -1.100000 0.300000 1.400000
v 1.100000 0.300000 1.400000
v 1.400000 0.300000 1.400000
v -1.300000 0.300000 1.300000
v -1.000000 0.300000 1.300000
v 1.000000 0.300000 1.300000
v 1.300000 0.600000 1.300000
v -1.200000 0.600000 1.200000
v -0.900000 0.900000 1.200000
v -0.800000 1.800000 1.200000
v 0.900000 0.900000 1.200000
v 1.000000 0.600000 1.200000
v 1.200000 0.900000 1.200000
v -0.900000 1.800000 1.100000
v -0.800000 1.800000 1.100000
v 1.100000 0.900000 1.100000
v -1.000000 1.200000 1.000000
v -1.000000 1.800000 1.000000
v -1.000000 2.100000 1.000000
v 0.700000 1.500000 1.000000
v 1.000000 1.500000 1.000000
v 1.000000 1.800000 1.000000
v -1.000000 2.100000 0.900000
v -0.900000 1.500000 0.900000
v -0.600000 1.500000 0.900000
v 0.900000 1.800000 0.900000
v 1.100000 2.100000 0.900000
v 1.200000 1.800000 0.800000
v -0.900000 1.500000 -0.600000
v -0.900000 1.800000 -0.600000
v -0.600000 1.500000 -0.600000
v 0.900000 1.500000 -0.600000
v 0.900000 1.800000 -0.600000
v 0.700000 1.200000 -0.700000
v 0.900000 1.500000 -0.700000
v -1.100000 0.900000 -0.800000
v -1.000000 1.200000 -0.800000
v -0.800000 0.900000 -0.800000
v -0.800000 1.200000 -0.800000
v 1.100000 0.900000 -0.800000
v 1.200000 0.900000 -0.900000
v 1.000000 0.600000 -1.000000
v 1.300000 0.300000 -1.000000
v -1.400000 0.300000 -1.100000
v -1.100000 -0.000000 -1.100000
v -1.100000 0.300000 -1.100000
v 1.300000 0.300000 -1.100000
v 1.400000 -0.000000 -1.100000
v -1.400000 0.000000 1.100000
v -1.400000 0.300000 1.100000
v 1.100000 0.000000 1.100000
v 1.100000 0.300000 1.100000
v 1.300000 0.300000 1.100000
v 1.400000 0.300000 1.100000
v -1.300000 0.300000 1.000000
v -1.200000 0.600000 1.000000
v 1.200000 0.600000 1.000000
v -1.200000 0.600000 0.900000
v -1.200000 0.900000 0.900000
v -0.900000 0.900000 0.900000
v 0.900000 0.600000 0.900000
v 1.200000 0.600000 0.900000
v 1.200000 0.900000 0.900000
v -1.100000 1.200000 0.800000
v -0.800000 0.900000 0.800000
v -0.800000 1.200000 0.800000
v 0.800000 1.200000 0.800000
v -1.000000 1.500000 0.700000
v -0.700000 1.200000 0.700000
v 0.700000 1.500000 0.700000
v 1.000000 1.200000 0.700000
v -0.900000 1.800000 0.600000
v 0.900000 1.800000 0.600000
v -1.200000 2.100000 -0.800000
v -1.100000 2.100000 -0.800000
v 1.100000 1.800000 -0.800000
v 1.200000 2.100000 -0.800000
v -1.100000 1.800000 -0.900000
v -1.000000 2.100000 -0.900000
v -0.600000 1.500000 -0.900000
v 0.600000 1.800000 -0.900000
v 1.000000 2.100000 -0.900000
v 1.100000 1.800000 -0.900000
v -1.000000 1.800000 -1.000000
v -1.000000 2.100000 -1.000000
v -0.900000 1.800000 -1.000000
v -0.900000 2.100000 -1.000000
v -0.700000 1.500000 -1.000000
v 0.700000 1.500000 -1.000000
v 0.900000 2.100000 -1.000000
v 1.000000 1.800000 -1.000000
v 1.000000 2.100000 -1.000000
v -1.100000 1.200000 -1.100000
v -0.900000 2.100000 -1.100000
v -0.800000 1.200000 -1.100000
v -0.800000 1.800000 -1.100000
v 0.800000 1.200000 -1.100000
v 0.900000 2.100000 -1.100000
v 1.100000 0.900000 -1.100000
v -1.200000 0.600000 -1.200000
v -1.000000 0.600000 -1.200000
v -0.800000 2.100000 -1.200000
v 0.900000 0.600000 -1.200000
v 0.900000 0.900000 -1.200000
v 1.200000 0.900000 -1.200000
v -1.300000 0.300000 -1.300000
v -1.300000 0.600000 -1.300000
v -1.100000 0.300000 -1.300000
v 1.000000 0.300000 -1.300000
v -1.400000 0.300000 -1.400000
v 1.100000 -0.000000 -1.400000
v 1.100000 0.300000 -1.400000
v 1.400000 0.300000 -1.400000
v 1.100000 0.000000 1.400000
v -1.100000 0.000000 1.100000
v 1.400000 0.000000 1.100000
v -1.400000 -0.000000 -1.400000
v -1.100000 -0.000000 -1.400000
v -1.300000 0.300000 1.100000
v -1.000000 0.300000 1.000000
v 1.000000 0.300000 1.000000
v 1.300000 0.300000 1.000000
v -1.300000 0.300000 -1.000000
v -1.000000 0.300000 -1.000000
v -1.000000 0.300000 -1.300000
v 0.900000 0.600000 1.200000
v -1.000000 0.600000 1.000000
v 1.000000 0.600000 1.000000
v -0.900000 0.600000 0.900000
v -0.900000 0.600000 -0.900000
v 0.900000 0.600000 -0.900000
v -1.000000 0.600000 -1.000000
v -0.900000 0.600000 -1.200000
v 0.900000 0.900000 1.100000
v -1.100000 0.900000 0.900000
v 0.900000 0.900000 0.900000
v 1.100000 0.900000 0.900000
v 0.800000 0.900000 -0.800000
v -1.100000 0.900000 -0.900000
v -0.900000 0.900000 -0.900000
v -0.900000 0.900000 -1.100000
v -0.800000 0.900000 -1.100000
v 0.800000 0.900000 -1.100000
v 0.900000 0.900000 -1.100000
v -0.700000 1.200000 1.000000
v -1.000000 1.200000 0.700000
v -0.700000 1.200000 -0.700000
v -0.800000 1.200000 -1.000000
v 0.700000 1.200000 -1.000000
v 0.700000 1.500000 0.900000
v -0.700000 1.500000 0.700000
v -0.900000 1.500000 0.600000
v -0.600000 1.500000 0.600000
v 0.600000 1.500000 -0.600000
v 0.700000 1.500000 -0.700000
v -0.700000 1.500000 -0.900000
v 0.600000 1.500000 -0.900000
v 0.800000 1.800000 1.100000
v -1.100000 1.800000 0.900000
v 0.600000 1.800000 0.900000
v -1.200000 1.800000 0.800000
v -1.100000 1.800000 0.800000
v 1.100000 1.800000 0.800000
v -0.600000 1.800000 0.600000
v 0.600000 1.800000 0.600000
v 0.600000 1.800000 -0.600000
v -1.000000 1.800000 -0.900000
v -0.900000 1.800000 -0.900000
v -0.600000 1.800000 -0.900000
v 0.900000 1.800000 -0.900000
v 1.000000 1.800000 -0.900000
v 0.900000 1.800000 -1.000000
v -0.900000 1.800000 -1.100000
v 0.900000 1.800000 -1.100000
v -0.800000 1.800000 -1.200000
v 0.800000 1.800000 -1.200000
v -1.100000 0.300000 1.300000
v 1.100000 0.300000 1.300000
v 1.300000 0.300000 1.300000
v -1.300000 0.300000 -1.100000
v -1.100000 0.300000 -1.400000
v -1.000000 0.600000 1.200000
v -1.300000 0.600000 1.000000
v -1.300000 0.600000 -1.000000
v -1.200000 0.600000 -1.000000
v 1.200000 0.600000 -1.000000
v 1.300000 0.600000 -1.000000
v 1.000000 0.600000 -1.200000
v -1.200000 0.900000 1.200000
v -1.100000 0.900000 1.100000
v 1.100000 0.900000 -0.900000
v -1.100000 1.200000 1.100000
v 1.100000 1.200000 1.100000
v 1.000000 1.200000 1.000000
v 1.000000 1.200000 0.800000
v 1.100000 1.200000 0.800000
v 1.000000 1.200000 -0.800000
v 1.100000 1.200000 -0.800000
v 1.000000 1.200000 -1.000000
v 1.100000 1.200000 -1.100000
v -1.000000 1.500000 1.000000
v 0.900000 1.500000 0.900000
v 0.900000 1.500000 0.700000
v -1.000000 1.500000 -0.700000
v -0.900000 1.500000 -0.700000
v 1.000000 1.500000 -0.700000
v 0.900000 1.500000 -0.900000
v -0.800000 2.100000 1.200000
v 0.800000 2.100000 1.200000
v -0.900000 2.100000 1.100000
v -1.100000 2.100000 0.900000
v 1.000000 2.100000 0.900000
v -1.100000 2.100000 0.800000
v 1.100000 2.100000 0.800000
v 1.200000 2.100000 0.800000
v -1.100000 2.100000 -0.900000
v -0.800000 2.100000 -1.100000
v 0.800000 2.100000 -1.100000
v 0.800000 2.100000 -1.200000
vn -1.0000 -0.0000 -0.0000
vn 1.0000 -0.0000 -0.0000
vn -0.0000 -0.0000 1.0000
vn -0.0000 -0.0000 -1.0000
vn -0.0000 -1.0000 -0.0000
vn -0.0000 1.0000 -0.0000
vn -0.0000 1.0000 0.0001
vn -0.0000 1.0000 -0.0001
vt 0.888672 0.500000
s 0
usemtl palette.004
f 84/1/1 134/1/1 1/1/1
f 135/1/1 134/1/1 84/1/1
f 129/1/1 202/1/1 2/1/1
f 195/1/1 202/1/1 129/1/1
f 3/1/1 204/1/1 89/1/1
f 3/1/1 140/1/1 204/1/1
f 268/1/1 140/1/1 3/1/1
f 269/1/1 191/1/1 265/1/1
f 269/1/1 265/1/1 208/1/1
f 192/1/1 191/1/1 269/1/1
f 274/1/1 141/1/1 93/1/1
f 274/1/1 143/1/1 141/1/1
f 144/1/1 143/1/1 274/1/1
f 5/1/1 185/1/1 270/1/1
f 5/1/1 270/1/1 4/1/1
f 6/1/1 185/1/1 5/1/1
f 8/1/1 7/1/1 246/1/1
f 159/1/1 7/1/1 8/1/1
f 277/1/1 220/1/1 275/1/1
f 277/1/1 9/1/1 220/1/1
f 149/1/1 9/1/1 277/1/1
f 11/1/1 10/1/1 224/1/1
f 11/1/1 224/1/1 121/1/1
f 178/1/1 10/1/1 11/1/1
f 296/1/1 247/1/1 244/1/1
f 298/1/1 247/1/1 296/1/1
f 160/1/1 163/1/1 12/1/1
f 301/1/1 163/1/1 160/1/1
f 286/1/1 13/1/1 102/1/1
f 286/1/1 231/1/1 13/1/1
f 153/1/1 231/1/1 286/1/1
f 289/1/1 15/1/1 122/1/1
f 289/1/1 122/1/1 14/1/1
f 16/1/1 15/1/1 289/1/1
f 104/1/1 17/1/1 103/1/1
f 108/1/1 17/1/1 104/1/1
f 164/1/1 169/1/1 252/1/1
f 170/1/1 169/1/1 164/1/1
f 21/1/1 18/1/1 109/1/1
f 21/1/1 237/1/1 18/1/1
f 157/1/1 237/1/1 21/1/1
f 115/1/1 19/1/1 290/1/1
f 115/1/1 290/1/1 114/1/1
f 253/1/1 19/1/1 115/1/1
f 295/1/1 20/1/1 99/1/1
f 22/1/1 20/1/1 295/1/1
f 172/1/1 258/1/1 171/1/1
f 179/1/1 258/1/1 172/1/1
f 293/1/1 100/1/1 95/1/1
f 23/1/1 100/1/1 293/1/1
f 302/1/1 260/1/1 181/1/1
f 187/1/1 260/1/1 302/1/1
f 245/1/1 25/1/1 24/1/1
f 250/1/1 25/1/1 245/1/1
f 251/1/1 242/1/1 239/1/1
f 166/1/1 242/1/1 251/1/1
f 105/1/1 27/1/1 26/1/1
f 235/1/1 27/1/1 105/1/1
f 155/1/1 27/1/1 235/1/1
f 240/1/1 234/1/1 119/1/1
f 28/1/1 234/1/1 240/1/1
f 174/1/1 234/1/1 28/1/1
f 31/1/1 30/1/1 29/1/1
f 32/1/1 30/1/1 31/1/1
f 152/1/1 30/1/1 32/1/1
f 33/1/1 228/1/1 223/1/1
f 34/1/1 228/1/1 33/1/1
f 182/1/1 228/1/1 34/1/1
f 96/1/1 146/1/1 211/1/1
f 219/1/1 146/1/1 96/1/1
f 221/1/1 146/1/1 219/1/1
f 35/1/1 188/1/1 216/1/1
f 229/1/1 188/1/1 35/1/1
f 189/1/1 188/1/1 229/1/1
f 37/1/1 206/1/1 91/1/1
f 97/1/1 206/1/1 37/1/1
f 213/1/1 206/1/1 97/1/1
f 127/1/1 194/1/1 36/1/1
f 273/1/1 194/1/1 127/1/1
f 38/1/1 194/1/1 273/1/1
f 87/1/1 136/1/1 199/1/1
f 263/1/1 136/1/1 87/1/1
f 137/1/1 136/1/1 263/1/1
f 40/1/1 196/1/1 39/1/1
f 41/1/1 196/1/1 40/1/1
f 197/1/1 196/1/1 41/1/1
f 85/1/2 200/1/2 86/1/2
f 86/1/2 200/1/2 262/1/2
f 262/1/2 200/1/2 42/1/2
f 130/1/2 203/1/2 131/1/2
f 131/1/2 203/1/2 193/1/2
f 193/1/2 203/1/2 266/1/2
f 90/1/2 205/1/2 43/1/2
f 43/1/2 205/1/2 267/1/2
f 267/1/2 205/1/2 212/1/2
f 209/1/2 210/1/2 217/1/2
f 217/1/2 210/1/2 186/1/2
f 186/1/2 210/1/2 44/1/2
f 45/1/2 214/1/2 94/1/2
f 94/1/2 214/1/2 46/1/2
f 46/1/2 214/1/2 145/1/2
f 215/1/2 218/1/2 225/1/2
f 225/1/2 218/1/2 226/1/2
f 226/1/2 218/1/2 47/1/2
f 48/1/2 150/1/2 49/1/2
f 49/1/2 150/1/2 50/1/2
f 50/1/2 150/1/2 151/1/2
f 123/1/2 227/1/2 124/1/2
f 124/1/2 227/1/2 233/1/2
f 233/1/2 227/1/2 180/1/2
f 230/1/2 154/1/2 52/1/2
f 52/1/2 154/1/2 53/1/2
f 53/1/2 154/1/2 236/1/2
f 232/1/2 51/1/2 54/1/2
f 54/1/2 51/1/2 241/1/2
f 241/1/2 51/1/2 173/1/2
f 110/1/2 238/1/2 55/1/2
f 55/1/2 238/1/2 249/1/2
f 116/1/2 165/1/2 56/1/2
f 56/1/2 165/1/2 254/1/2
f 57/1/2 243/1/2 294/1/2
f 294/1/2 243/1/2 59/1/2
f 58/1/2 261/1/2 303/1/2
f 303/1/2 261/1/2 304/1/2
f 287/1/2 288/1/2 111/1/2
f 288/1/2 60/1/2 111/1/2
f 111/1/2 60/1/2 158/1/2
f 120/1/2 292/1/2 118/1/2
f 117/1/2 120/1/2 118/1/2
f 118/1/2 292/1/2 255/1/2
f 61/1/2 62/1/2 63/1/2
f 63/1/2 62/1/2 64/1/2
f 257/1/2 259/1/2 175/1/2
f 175/1/2 259/1/2 183/1/2
f 279/1/2 280/1/2 106/1/2
f 280/1/2 156/1/2 106/1/2
f 106/1/2 156/1/2 66/1/2
f 282/1/2 284/1/2 291/1/2
f 65/1/2 282/1/2 291/1/2
f 291/1/2 284/1/2 67/1/2
f 107/1/2 68/1/2 69/1/2
f 69/1/2 68/1/2 297/1/2
f 256/1/2 176/1/2 167/1/2
f 167/1/2 176/1/2 177/1/2
f 101/1/2 222/1/2 278/1/2
f 222/1/2 70/1/2 278/1/2
f 278/1/2 70/1/2 281/1/2
f 276/1/2 184/1/2 283/1/2
f 125/1/2 276/1/2 283/1/2
f 283/1/2 184/1/2 285/1/2
f 71/1/2 248/1/2 112/1/2
f 112/1/2 248/1/2 299/1/2
f 161/1/2 168/1/2 72/1/2
f 72/1/2 168/1/2 73/1/2
f 74/1/2 142/1/2 98/1/2
f 142/1/2 147/1/2 98/1/2
f 98/1/2 147/1/2 148/1/2
f 271/1/2 76/1/2 126/1/2
f 75/1/2 271/1/2 126/1/2
f 126/1/2 76/1/2 190/1/2
f 113/1/2 77/1/2 300/1/2
f 300/1/2 77/1/2 162/1/2
f 264/1/2 138/1/2 92/1/2
f 138/1/2 207/1/2 92/1/2
f 92/1/2 207/1/2 79/1/2
f 132/1/2 78/1/2 272/1/2
f 128/1/2 132/1/2 272/1/2
f 272/1/2 78/1/2 80/1/2
f 81/1/2 201/1/2 88/1/2
f 88/1/2 201/1/2 139/1/2
f 133/1/2 82/1/2 83/1/2
f 83/1/2 82/1/2 198/1/2
f 85/1/3 84/1/3 1/1/3
f 86/1/3 84/1/3 85/1/3
f 81/1/3 87/1/3 199/1/3
f 88/1/3 87/1/3 81/1/3
f 262/1/3 3/1/3 89/1/3
f 90/1/3 3/1/3 262/1/3
f 43/1/3 3/1/3 90/1/3
f 263/1/3 37/1/3 91/1/3
f 264/1/3 37/1/3 263/1/3
f 92/1/3 37/1/3 264/1/3
f 267/1/3 274/1/3 93/1/3
f 45/1/3 274/1/3 267/1/3
f 94/1/3 274/1/3 45/1/3
f 57/1/3 293/1/3 95/1/3
f 294/1/3 293/1/3 57/1/3
f 97/1/3 96/1/3 211/1/3
f 74/1/3 96/1/3 97/1/3
f 98/1/3 96/1/3 74/1/3
f 46/1/3 277/1/3 275/1/3
f 48/1/3 277/1/3 46/1/3
f 49/1/3 277/1/3 48/1/3
f 100/1/3 295/1/3 99/1/3
f 23/1/3 295/1/3 100/1/3
f 219/1/3 31/1/3 29/1/3
f 61/1/3 59/1/3 243/1/3
f 63/1/3 59/1/3 61/1/3
f 101/1/3 31/1/3 219/1/3
f 278/1/3 31/1/3 101/1/3
f 20/1/3 104/1/3 103/1/3
f 22/1/3 104/1/3 20/1/3
f 50/1/3 286/1/3 102/1/3
f 230/1/3 286/1/3 50/1/3
f 52/1/3 286/1/3 230/1/3
f 32/1/3 105/1/3 26/1/3
f 279/1/3 105/1/3 32/1/3
f 106/1/3 105/1/3 279/1/3
f 107/1/3 64/1/3 62/1/3
f 69/1/3 64/1/3 107/1/3
f 17/1/3 296/1/3 244/1/3
f 108/1/3 296/1/3 17/1/3
f 53/1/3 21/1/3 109/1/3
f 110/1/3 21/1/3 53/1/3
f 55/1/3 21/1/3 110/1/3
f 235/1/3 245/1/3 24/1/3
f 287/1/3 245/1/3 235/1/3
f 111/1/3 245/1/3 287/1/3
f 71/1/3 297/1/3 68/1/3
f 112/1/3 297/1/3 71/1/3
f 247/1/3 8/1/3 246/1/3
f 298/1/3 8/1/3 247/1/3
f 113/1/3 299/1/3 248/1/3
f 300/1/3 299/1/3 113/1/3
f 116/1/3 115/1/3 114/1/3
f 56/1/3 115/1/3 116/1/3
f 117/1/3 251/1/3 239/1/3
f 118/1/3 251/1/3 117/1/3
f 290/1/3 289/1/3 14/1/3
f 232/1/3 290/1/3 14/1/3
f 54/1/3 290/1/3 232/1/3
f 120/1/3 240/1/3 119/1/3
f 65/1/3 120/1/3 119/1/3
f 291/1/3 120/1/3 65/1/3
f 122/1/3 11/1/3 121/1/3
f 123/1/3 122/1/3 121/1/3
f 124/1/3 122/1/3 123/1/3
f 282/1/3 33/1/3 223/1/3
f 125/1/3 282/1/3 223/1/3
f 283/1/3 282/1/3 125/1/3
f 224/1/3 5/1/3 4/1/3
f 215/1/3 224/1/3 4/1/3
f 225/1/3 224/1/3 215/1/3
f 276/1/3 35/1/3 216/1/3
f 75/1/3 276/1/3 216/1/3
f 126/1/3 276/1/3 75/1/3
f 270/1/3 269/1/3 208/1/3
f 209/1/3 270/1/3 208/1/3
f 217/1/3 270/1/3 209/1/3
f 271/1/3 127/1/3 36/1/3
f 128/1/3 271/1/3 36/1/3
f 272/1/3 271/1/3 128/1/3
f 265/1/3 129/1/3 2/1/3
f 130/1/3 265/1/3 2/1/3
f 131/1/3 265/1/3 130/1/3
f 132/1/3 40/1/3 39/1/3
f 133/1/3 132/1/3 39/1/3
f 83/1/3 132/1/3 133/1/3
f 134/1/4 135/1/4 204/1/4
f 134/1/4 204/1/4 200/1/4
f 200/1/4 204/1/4 42/1/4
f 136/1/4 137/1/4 138/1/4
f 136/1/4 138/1/4 201/1/4
f 201/1/4 138/1/4 139/1/4
f 140/1/4 268/1/4 141/1/4
f 140/1/4 141/1/4 205/1/4
f 205/1/4 141/1/4 212/1/4
f 206/1/4 213/1/4 142/1/4
f 206/1/4 142/1/4 207/1/4
f 207/1/4 142/1/4 79/1/4
f 143/1/4 144/1/4 220/1/4
f 143/1/4 220/1/4 214/1/4
f 214/1/4 220/1/4 145/1/4
f 146/1/4 221/1/4 222/1/4
f 146/1/4 222/1/4 147/1/4
f 147/1/4 222/1/4 148/1/4
f 9/1/4 149/1/4 13/1/4
f 9/1/4 13/1/4 150/1/4
f 150/1/4 13/1/4 151/1/4
f 30/1/4 152/1/4 280/1/4
f 30/1/4 280/1/4 70/1/4
f 70/1/4 280/1/4 281/1/4
f 231/1/4 153/1/4 18/1/4
f 231/1/4 18/1/4 154/1/4
f 154/1/4 18/1/4 236/1/4
f 27/1/4 155/1/4 288/1/4
f 27/1/4 288/1/4 156/1/4
f 156/1/4 288/1/4 66/1/4
f 237/1/4 157/1/4 238/1/4
f 238/1/4 157/1/4 249/1/4
f 25/1/4 250/1/4 60/1/4
f 60/1/4 250/1/4 158/1/4
f 7/1/4 159/1/4 12/1/4
f 12/1/4 159/1/4 160/1/4
f 161/1/4 72/1/4 77/1/4
f 77/1/4 72/1/4 162/1/4
f 163/1/4 301/1/4 252/1/4
f 252/1/4 301/1/4 164/1/4
f 19/1/4 253/1/4 241/1/4
f 241/1/4 253/1/4 165/1/4
f 165/1/4 253/1/4 254/1/4
f 242/1/4 166/1/4 28/1/4
f 28/1/4 166/1/4 292/1/4
f 292/1/4 166/1/4 255/1/4
f 256/1/4 167/1/4 168/1/4
f 168/1/4 167/1/4 73/1/4
f 169/1/4 170/1/4 171/1/4
f 171/1/4 170/1/4 172/1/4
f 15/1/4 16/1/4 233/1/4
f 233/1/4 16/1/4 51/1/4
f 51/1/4 16/1/4 173/1/4
f 234/1/4 174/1/4 34/1/4
f 34/1/4 174/1/4 284/1/4
f 284/1/4 174/1/4 67/1/4
f 257/1/4 175/1/4 176/1/4
f 176/1/4 175/1/4 177/1/4
f 10/1/4 178/1/4 226/1/4
f 226/1/4 178/1/4 227/1/4
f 227/1/4 178/1/4 180/1/4
f 258/1/4 179/1/4 181/1/4
f 181/1/4 179/1/4 302/1/4
f 228/1/4 182/1/4 229/1/4
f 58/1/4 303/1/4 259/1/4
f 259/1/4 303/1/4 183/1/4
f 229/1/4 182/1/4 184/1/4
f 184/1/4 182/1/4 285/1/4
f 185/1/4 6/1/4 186/1/4
f 186/1/4 6/1/4 218/1/4
f 218/1/4 6/1/4 47/1/4
f 260/1/4 187/1/4 261/1/4
f 261/1/4 187/1/4 304/1/4
f 188/1/4 189/1/4 273/1/4
f 273/1/4 189/1/4 76/1/4
f 76/1/4 189/1/4 190/1/4
f 191/1/4 192/1/4 193/1/4
f 193/1/4 192/1/4 210/1/4
f 210/1/4 192/1/4 44/1/4
f 194/1/4 38/1/4 41/1/4
f 41/1/4 38/1/4 78/1/4
f 78/1/4 38/1/4 80/1/4
f 202/1/4 195/1/4 203/1/4
f 203/1/4 195/1/4 266/1/4
f 196/1/4 197/1/4 82/1/4
f 82/1/4 197/1/4 198/1/4
f 134/1/5 85/1/5 1/1/5
f 200/1/5 85/1/5 134/1/5
f 136/1/5 81/1/5 199/1/5
f 201/1/5 81/1/5 136/1/5
f 202/1/5 130/1/5 2/1/5
f 203/1/5 130/1/5 202/1/5
f 196/1/5 133/1/5 39/1/5
f 82/1/5 133/1/5 196/1/5
f 42/1/5 90/1/5 262/1/5
f 137/1/5 263/1/5 91/1/5
f 140/1/5 42/1/5 204/1/5
f 205/1/5 90/1/5 42/1/5
f 205/1/5 42/1/5 140/1/5
f 206/1/5 138/1/5 137/1/5
f 206/1/5 137/1/5 91/1/5
f 207/1/5 138/1/5 206/1/5
f 265/1/5 209/1/5 208/1/5
f 131/1/5 209/1/5 265/1/5
f 40/1/5 128/1/5 36/1/5
f 132/1/5 128/1/5 40/1/5
f 193/1/5 209/1/5 131/1/5
f 210/1/5 209/1/5 193/1/5
f 194/1/5 40/1/5 36/1/5
f 41/1/5 40/1/5 194/1/5
f 212/1/5 45/1/5 267/1/5
f 213/1/5 97/1/5 211/1/5
f 143/1/5 212/1/5 141/1/5
f 214/1/5 45/1/5 212/1/5
f 214/1/5 212/1/5 143/1/5
f 146/1/5 142/1/5 213/1/5
f 146/1/5 213/1/5 211/1/5
f 147/1/5 142/1/5 146/1/5
f 270/1/5 215/1/5 4/1/5
f 217/1/5 215/1/5 270/1/5
f 127/1/5 75/1/5 216/1/5
f 271/1/5 75/1/5 127/1/5
f 186/1/5 215/1/5 217/1/5
f 218/1/5 215/1/5 186/1/5
f 188/1/5 127/1/5 216/1/5
f 273/1/5 127/1/5 188/1/5
f 145/1/5 48/1/5 46/1/5
f 221/1/5 219/1/5 29/1/5
f 9/1/5 145/1/5 220/1/5
f 150/1/5 48/1/5 145/1/5
f 150/1/5 145/1/5 9/1/5
f 30/1/5 222/1/5 221/1/5
f 30/1/5 221/1/5 29/1/5
f 70/1/5 222/1/5 30/1/5
f 224/1/5 123/1/5 121/1/5
f 225/1/5 123/1/5 224/1/5
f 35/1/5 125/1/5 223/1/5
f 276/1/5 125/1/5 35/1/5
f 226/1/5 123/1/5 225/1/5
f 227/1/5 123/1/5 226/1/5
f 228/1/5 35/1/5 223/1/5
f 229/1/5 35/1/5 228/1/5
f 151/1/5 230/1/5 50/1/5
f 152/1/5 32/1/5 26/1/5
f 231/1/5 151/1/5 13/1/5
f 154/1/5 230/1/5 151/1/5
f 154/1/5 151/1/5 231/1/5
f 27/1/5 280/1/5 152/1/5
f 27/1/5 152/1/5 26/1/5
f 156/1/5 280/1/5 27/1/5
f 122/1/5 232/1/5 14/1/5
f 124/1/5 232/1/5 122/1/5
f 33/1/5 65/1/5 119/1/5
f 282/1/5 65/1/5 33/1/5
f 233/1/5 232/1/5 124/1/5
f 51/1/5 232/1/5 233/1/5
f 234/1/5 33/1/5 119/1/5
f 34/1/5 33/1/5 234/1/5
f 236/1/5 110/1/5 53/1/5
f 155/1/5 235/1/5 24/1/5
f 237/1/5 236/1/5 18/1/5
f 238/1/5 110/1/5 236/1/5
f 238/1/5 236/1/5 237/1/5
f 25/1/5 288/1/5 155/1/5
f 25/1/5 155/1/5 24/1/5
f 60/1/5 288/1/5 25/1/5
f 290/1/5 116/1/5 114/1/5
f 54/1/5 116/1/5 290/1/5
f 240/1/5 117/1/5 239/1/5
f 120/1/5 117/1/5 240/1/5
f 241/1/5 116/1/5 54/1/5
f 165/1/5 116/1/5 241/1/5
f 242/1/5 240/1/5 239/1/5
f 28/1/5 240/1/5 242/1/5
f 100/1/5 57/1/5 95/1/5
f 243/1/5 57/1/5 100/1/5
f 20/1/5 100/1/5 99/1/5
f 20/1/5 61/1/5 243/1/5
f 20/1/5 243/1/5 100/1/5
f 62/1/5 61/1/5 20/1/5
f 17/1/5 20/1/5 103/1/5
f 17/1/5 107/1/5 62/1/5
f 17/1/5 62/1/5 20/1/5
f 21/1/5 107/1/5 17/1/5
f 55/1/5 107/1/5 21/1/5
f 245/1/5 107/1/5 55/1/5
f 111/1/5 107/1/5 245/1/5
f 68/1/5 107/1/5 111/1/5
f 247/1/5 17/1/5 244/1/5
f 247/1/5 21/1/5 17/1/5
f 248/1/5 68/1/5 111/1/5
f 248/1/5 71/1/5 68/1/5
f 157/1/5 247/1/5 246/1/5
f 157/1/5 21/1/5 247/1/5
f 249/1/5 245/1/5 55/1/5
f 250/1/5 245/1/5 249/1/5
f 158/1/5 113/1/5 248/1/5
f 158/1/5 248/1/5 111/1/5
f 115/1/5 250/1/5 249/1/5
f 115/1/5 158/1/5 250/1/5
f 115/1/5 157/1/5 246/1/5
f 115/1/5 249/1/5 157/1/5
f 56/1/5 158/1/5 115/1/5
f 251/1/5 158/1/5 56/1/5
f 118/1/5 113/1/5 158/1/5
f 118/1/5 158/1/5 251/1/5
f 7/1/5 115/1/5 246/1/5
f 12/1/5 115/1/5 7/1/5
f 161/1/5 113/1/5 118/1/5
f 77/1/5 113/1/5 161/1/5
f 163/1/5 115/1/5 12/1/5
f 252/1/5 115/1/5 163/1/5
f 253/1/5 115/1/5 252/1/5
f 254/1/5 251/1/5 56/1/5
f 166/1/5 251/1/5 254/1/5
f 255/1/5 161/1/5 118/1/5
f 256/1/5 161/1/5 255/1/5
f 168/1/5 161/1/5 256/1/5
f 169/1/5 253/1/5 252/1/5
f 169/1/5 166/1/5 254/1/5
f 169/1/5 256/1/5 255/1/5
f 169/1/5 255/1/5 166/1/5
f 169/1/5 254/1/5 253/1/5
f 171/1/5 256/1/5 169/1/5
f 257/1/5 256/1/5 171/1/5
f 176/1/5 256/1/5 257/1/5
f 258/1/5 257/1/5 171/1/5
f 181/1/5 257/1/5 258/1/5
f 58/1/5 257/1/5 181/1/5
f 259/1/5 257/1/5 58/1/5
f 260/1/5 58/1/5 181/1/5
f 261/1/5 58/1/5 260/1/5
f 84/1/6 86/1/6 89/1/6
f 89/1/6 86/1/6 262/1/6
f 87/1/6 88/1/6 263/1/6
f 263/1/6 88/1/6 264/1/6
f 84/1/6 89/1/6 135/1/6
f 135/1/6 89/1/6 204/1/6
f 264/1/6 88/1/6 138/1/6
f 138/1/6 88/1/6 139/1/6
f 129/1/6 265/1/6 191/1/6
f 132/1/6 83/1/6 78/1/6
f 191/1/6 193/1/6 195/1/6
f 129/1/6 191/1/6 195/1/6
f 195/1/6 193/1/6 266/1/6
f 41/1/6 78/1/6 197/1/6
f 78/1/6 83/1/6 198/1/6
f 197/1/6 78/1/6 198/1/6
f 3/1/6 43/1/6 93/1/6
f 93/1/6 43/1/6 267/1/6
f 37/1/6 92/1/6 97/1/6
f 97/1/6 92/1/6 74/1/6
f 3/1/6 93/1/6 268/1/6
f 268/1/6 93/1/6 141/1/6
f 74/1/6 92/1/6 142/1/6
f 142/1/6 92/1/6 79/1/6
f 269/1/6 270/1/6 185/1/6
f 271/1/6 272/1/6 76/1/6
f 185/1/6 186/1/6 192/1/6
f 269/1/6 185/1/6 192/1/6
f 192/1/6 186/1/6 44/1/6
f 273/1/6 76/1/6 38/1/6
f 76/1/6 272/1/6 80/1/6
f 38/1/6 76/1/6 80/1/6
f 274/1/6 94/1/6 275/1/6
f 275/1/6 94/1/6 46/1/6
f 96/1/6 98/1/6 219/1/6
f 219/1/6 98/1/6 101/1/6
f 274/1/6 275/1/6 144/1/6
f 144/1/6 275/1/6 220/1/6
f 101/1/6 98/1/6 222/1/6
f 222/1/6 98/1/6 148/1/6
f 5/1/6 224/1/6 10/1/6
f 276/1/6 126/1/6 184/1/6
f 10/1/6 226/1/6 6/1/6
f 5/1/6 10/1/6 6/1/6
f 6/1/6 226/1/6 47/1/6
f 229/1/6 184/1/6 189/1/6
f 184/1/6 126/1/6 190/1/6
f 189/1/6 184/1/6 190/1/6
f 277/1/6 49/1/6 102/1/6
f 102/1/6 49/1/6 50/1/6
f 31/1/6 278/1/6 32/1/6
f 32/1/6 278/1/6 279/1/6
f 277/1/6 102/1/6 149/1/6
f 149/1/6 102/1/6 13/1/6
f 279/1/6 278/1/6 280/1/6
f 280/1/6 278/1/6 281/1/6
f 11/1/6 122/1/6 15/1/6
f 282/1/6 283/1/6 284/1/6
f 15/1/6 233/1/6 178/1/6
f 11/1/6 15/1/6 178/1/6
f 178/1/6 233/1/6 180/1/6
f 34/1/6 284/1/6 182/1/6
f 284/1/6 283/1/6 285/1/6
f 182/1/6 284/1/6 285/1/6
f 286/1/6 52/1/6 109/1/6
f 109/1/6 52/1/6 53/1/6
f 105/1/6 106/1/6 235/1/6
f 235/1/6 106/1/6 287/1/6
f 286/1/6 109/1/6 153/1/6
f 153/1/6 109/1/6 18/1/6
f 287/1/6 106/1/6 288/1/6
f 288/1/6 106/1/6 66/1/6
f 289/1/6 290/1/6 19/1/6
f 120/1/6 291/1/6 292/1/6
f 19/1/6 241/1/6 16/1/6
f 289/1/6 19/1/6 16/1/6
f 16/1/6 241/1/6 173/1/6
f 28/1/6 292/1/6 174/1/6
f 292/1/6 291/1/6 67/1/6
f 174/1/6 292/1/6 67/1/6
f 293/1/6 294/1/6 23/1/6
f 23/1/6 294/1/6 59/1/6
f 295/1/6 23/1/6 22/1/6
f 59/1/6 63/1/6 22/1/6
f 23/1/6 59/1/6 22/1/6
f 22/1/6 63/1/6 64/1/6
f 104/1/6 22/1/6 108/1/6
f 64/1/6 69/1/6 108/1/6
f 22/1/6 64/1/6 108/1/6
f 108/1/6 69/1/6 297/1/6
f 296/1/6 108/1/6 298/1/6
f 297/1/7 112/1/7 298/1/7
f 108/1/6 297/1/6 298/1/6
f 298/1/6 112/1/6 299/1/6
f 8/1/6 298/1/6 159/1/6
f 299/1/6 300/1/6 159/1/6
f 298/1/6 299/1/6 159/1/6
f 159/1/6 300/1/6 160/1/6
f 160/1/6 300/1/6 72/1/6
f 72/1/6 300/1/6 162/1/6
f 160/1/6 72/1/6 301/1/6
f 301/1/8 72/1/8 164/1/8
f 164/1/6 72/1/6 167/1/6
f 167/1/6 72/1/6 73/1/6
f 164/1/6 167/1/6 170/1/6
f 170/1/6 167/1/6 172/1/6
f 172/1/6 167/1/6 175/1/6
f 175/1/6 167/1/6 177/1/6
f 172/1/6 175/1/6 179/1/6
f 179/1/6 175/1/6 302/1/6
f 302/1/6 175/1/6 303/1/6
f 303/1/6 175/1/6 183/1/6
f 302/1/6 303/1/6 187/1/6
f 187/1/6 303/1/6 304/1/6
