# Blender 3.6.1
# www.blender.org
mtllib Table.mtl
o Table
v -1.500000 2.100000 -2.000000
v -1.500000 2.200000 -2.000000
v -1.400000 2.000000 -1.900000
v -1.400000 2.100000 1.900000
v -1.400000 2.100000 -1.900000
v -1.400000 2.300000 1.900000
v -1.200000 0.000000 1.700000
v -1.200000 2.000000 1.700000
v -1.200000 2.000000 1.400000
v -1.200000 2.000000 -1.400000
v -1.200000 2.000000 -1.700000
v 0.900000 -0.000000 -1.400000
v 0.900000 2.000000 1.700000
v 0.900000 2.000000 -1.700000
v -0.900000 -0.000000 -1.400000
v -0.900000 -0.000000 -1.700000
v -0.900000 2.000000 1.700000
v -0.900000 2.000000 -1.700000
v 1.200000 -0.000000 -1.700000
v 1.200000 2.000000 1.400000
v 1.200000 2.000000 -1.400000
v 1.200000 2.000000 -1.700000
v 1.500000 2.200000 2.000000
v -1.500000 2.200000 2.000000
v 1.500000 2.100000 2.000000
v 1.400000 2.200000 1.900000
v -0.900000 0.000000 1.700000
v 0.900000 0.000000 1.700000
v 1.200000 2.000000 1.700000
v -0.900000 2.000000 -1.400000
v 0.900000 2.000000 -1.400000
v 1.200000 -0.000000 -1.400000
v -1.200000 0.000000 1.400000
v -0.900000 0.000000 1.400000
v -0.900000 2.000000 1.400000
v 0.900000 0.000000 1.400000
v 0.900000 2.000000 1.400000
v 0.900000 -0.000000 -1.700000
v -1.400000 2.300000 -1.900000
v 1.400000 2.000000 -1.900000
v 1.400000 2.200000 -1.900000
v 1.500000 2.100000 -2.000000
v 1.500000 2.200000 -2.000000
v 1.200000 0.000000 1.700000
v 1.200000 0.000000 1.400000
v -1.200000 -0.000000 -1.400000
v -1.200000 -0.000000 -1.700000
v -1.400000 2.000000 1.900000
v 1.400000 2.000000 1.900000
v -1.500000 2.100000 2.000000
v 1.400000 2.100000 1.900000
v 1.400000 2.100000 -1.900000
v -1.400000 2.200000 1.900000
v -1.400000 2.200000 -1.900000
v 1.400000 2.300000 1.900000
v 1.400000 2.300000 -1.900000
vn -1.0000 -0.0000 -0.0000
vn 1.0000 -0.0000 -0.0000
vn -0.0000 -0.0000 1.0000
vn -0.0000 -0.0000 -1.0000
vn -0.0000 -1.0000 -0.0000
vn -0.0000 1.0000 -0.0000
vt 0.888672 0.500000
s 0
usemtl palette.005
f 24/1/1 1/1/1 50/1/1
f 2/1/1 1/1/1 24/1/1
f 4/1/1 3/1/1 48/1/1
f 5/1/1 3/1/1 4/1/1
f 6/1/1 54/1/1 53/1/1
f 39/1/1 54/1/1 6/1/1
f 8/1/1 33/1/1 7/1/1
f 9/1/1 33/1/1 8/1/1
f 10/1/1 47/1/1 46/1/1
f 11/1/1 47/1/1 10/1/1
f 13/1/1 36/1/1 28/1/1
f 37/1/1 36/1/1 13/1/1
f 31/1/1 38/1/1 12/1/1
f 14/1/1 38/1/1 31/1/1
f 27/1/2 34/1/2 17/1/2
f 17/1/2 34/1/2 35/1/2
f 15/1/2 16/1/2 30/1/2
f 30/1/2 16/1/2 18/1/2
f 44/1/2 45/1/2 29/1/2
f 29/1/2 45/1/2 20/1/2
f 32/1/2 19/1/2 21/1/2
f 21/1/2 19/1/2 22/1/2
f 49/1/2 40/1/2 51/1/2
f 51/1/2 40/1/2 52/1/2
f 26/1/2 41/1/2 55/1/2
f 55/1/2 41/1/2 56/1/2
f 25/1/2 42/1/2 23/1/2
f 23/1/2 42/1/2 43/1/2
f 25/1/3 24/1/3 50/1/3
f 23/1/3 24/1/3 25/1/3
f 49/1/3 4/1/3 48/1/3
f 51/1/3 4/1/3 49/1/3
f 26/1/3 6/1/3 53/1/3
f 55/1/3 6/1/3 26/1/3
f 27/1/3 8/1/3 7/1/3
f 17/1/3 8/1/3 27/1/3
f 44/1/3 13/1/3 28/1/3
f 29/1/3 13/1/3 44/1/3
f 15/1/3 10/1/3 46/1/3
f 30/1/3 10/1/3 15/1/3
f 32/1/3 31/1/3 12/1/3
f 21/1/3 31/1/3 32/1/3
f 33/1/4 9/1/4 34/1/4
f 34/1/4 9/1/4 35/1/4
f 36/1/4 37/1/4 45/1/4
f 45/1/4 37/1/4 20/1/4
f 47/1/4 11/1/4 16/1/4
f 16/1/4 11/1/4 18/1/4
f 38/1/4 14/1/4 19/1/4
f 19/1/4 14/1/4 22/1/4
f 3/1/4 5/1/4 40/1/4
f 40/1/4 5/1/4 52/1/4
f 54/1/4 39/1/4 41/1/4
f 41/1/4 39/1/4 56/1/4
f 1/1/4 2/1/4 42/1/4
f 42/1/4 2/1/4 43/1/4
f 33/1/5 27/1/5 7/1/5
f 34/1/5 27/1/5 33/1/5
f 36/1/5 44/1/5 28/1/5
f 45/1/5 44/1/5 36/1/5
f 47/1/5 15/1/5 46/1/5
f 16/1/5 15/1/5 47/1/5
f 38/1/5 32/1/5 12/1/5
f 19/1/5 32/1/5 38/1/5
f 8/1/5 49/1/5 48/1/5
f 17/1/5 49/1/5 8/1/5
f 13/1/5 49/1/5 17/1/5
f 29/1/5 49/1/5 13/1/5
f 9/1/5 8/1/5 48/1/5
f 35/1/5 13/1/5 17/1/5
f 37/1/5 13/1/5 35/1/5
f 20/1/5 49/1/5 29/1/5
f 10/1/5 37/1/5 35/1/5
f 10/1/5 20/1/5 37/1/5
f 10/1/5 9/1/5 48/1/5
f 10/1/5 35/1/5 9/1/5
f 30/1/5 20/1/5 10/1/5
f 31/1/5 20/1/5 30/1/5
f 21/1/5 49/1/5 20/1/5
f 21/1/5 20/1/5 31/1/5
f 11/1/5 10/1/5 48/1/5
f 18/1/5 31/1/5 30/1/5
f 14/1/5 31/1/5 18/1/5
f 22/1/5 49/1/5 21/1/5
f 3/1/5 11/1/5 48/1/5
f 3/1/5 22/1/5 14/1/5
f 3/1/5 14/1/5 18/1/5
f 3/1/5 18/1/5 11/1/5
f 40/1/5 49/1/5 22/1/5
f 40/1/5 22/1/5 3/1/5
f 4/1/5 25/1/5 50/1/5
f 51/1/5 25/1/5 4/1/5
f 5/1/5 4/1/5 50/1/5
f 52/1/5 25/1/5 51/1/5
f 1/1/5 5/1/5 50/1/5
f 1/1/5 52/1/5 5/1/5
f 42/1/5 25/1/5 52/1/5
f 42/1/5 52/1/5 1/1/5
f 24/1/6 23/1/6 53/1/6
f 53/1/6 23/1/6 26/1/6
f 24/1/6 53/1/6 54/1/6
f 26/1/6 23/1/6 41/1/6
f 24/1/6 54/1/6 2/1/6
f 54/1/6 41/1/6 2/1/6
f 41/1/6 23/1/6 43/1/6
f 2/1/6 41/1/6 43/1/6
f 6/1/6 55/1/6 39/1/6
f 39/1/6 55/1/6 56/1/6
