# Blender 3.6.1
# www.blender.org
mtllib Log.mtl
o Log
v -0.400000 0.000000 0.100000
v -0.400000 -0.000000 -0.200000
v -0.400000 0.300000 -0.000000
v -0.400000 0.300000 -0.100000
v -0.400000 0.400000 -0.000000
v -0.400000 0.400000 -0.100000
v -0.400000 0.600000 -0.100000
v -0.400000 0.600000 -0.200000
v -0.400000 0.700000 -0.100000
v -0.400000 2.300000 -0.000000
v -0.400000 2.400000 -0.000000
v -0.400000 2.600000 -0.100000
v -0.400000 2.600000 -0.200000
v -0.400000 2.700000 0.100000
v -0.400000 2.700000 -0.100000
v -0.300000 -0.000000 -0.300000
v -0.300000 0.300000 -0.200000
v -0.300000 0.300000 -0.300000
v -0.300000 0.400000 -0.200000
v -0.300000 0.400000 -0.300000
v -0.300000 0.600000 0.200000
v -0.300000 0.600000 -0.200000
v -0.300000 0.700000 0.100000
v -0.300000 2.400000 0.200000
v -0.300000 2.400000 0.100000
v -0.300000 2.700000 0.200000
v -0.300000 3.000000 -0.200000
v -0.300000 3.000000 -0.300000
v -0.200000 -0.000000 -0.300000
v -0.200000 0.300000 -0.300000
v -0.200000 1.200000 -0.400000
v -0.200000 2.500000 0.300000
v -0.200000 2.500000 0.200000
v -0.200000 2.700000 0.200000
v -0.200000 2.800000 0.300000
v -0.200000 2.800000 0.200000
v -0.200000 3.000000 -0.400000
v -0.200000 3.400000 -0.300000
v -0.200000 3.400000 -0.400000
v -0.100000 0.000000 0.300000
v -0.100000 -0.000000 -0.500000
v -0.100000 1.200000 -0.500000
v -0.100000 1.500000 0.300000
v -0.100000 1.700000 -0.400000
v -0.100000 1.800000 -0.500000
v -0.100000 3.000000 -0.400000
v -0.100000 3.000000 -0.500000
v -0.100000 3.400000 -0.400000
v 0.200000 0.000000 0.300000
v 0.200000 -0.000000 -0.500000
v 0.200000 1.200000 0.300000
v 0.200000 1.600000 -0.500000
v 0.200000 1.900000 -0.500000
v 0.200000 2.700000 -0.400000
v 0.200000 4.000000 -0.400000
v 0.200000 4.000000 -0.500000
v 0.300000 0.000000 0.200000
v 0.300000 2.200000 -0.300000
v 0.300000 2.300000 -0.300000
v 0.300000 2.300000 -0.400000
v 0.300000 2.600000 -0.300000
v 0.300000 2.700000 -0.300000
v 0.300000 3.200000 0.300000
v 0.300000 3.600000 0.300000
v 0.400000 0.000000 0.200000
v 0.400000 0.000000 0.100000
v 0.400000 0.400000 0.100000
v 0.400000 1.000000 0.100000
v 0.400000 2.100000 -0.200000
v 0.400000 2.200000 -0.200000
v 0.400000 2.500000 -0.200000
v 0.400000 2.600000 -0.200000
v 0.400000 3.300000 0.200000
v 0.400000 4.000000 0.100000
v 0.500000 0.000000 0.100000
v 0.500000 -0.000000 -0.200000
v 0.500000 0.400000 -0.200000
v 0.500000 0.800000 -0.100000
v 0.500000 0.800000 -0.200000
v 0.500000 1.000000 0.100000
v 0.500000 1.000000 -0.100000
v 0.500000 2.100000 -0.000000
v 0.500000 2.200000 -0.000000
v 0.500000 2.200000 -0.100000
v 0.500000 2.500000 -0.100000
v 0.500000 4.000000 0.100000
v -0.100000 0.000000 0.400000
v -0.100000 1.100000 0.400000
v -0.100000 1.500000 0.400000
v -0.100000 4.000000 0.400000
v 0.000000 1.500000 0.400000
v 0.000000 1.700000 0.400000
v 0.000000 3.100000 0.400000
v 0.000000 3.300000 0.400000
v 0.100000 1.100000 0.400000
v 0.100000 1.200000 0.400000
v 0.100000 1.700000 0.400000
v 0.100000 1.800000 0.400000
v 0.100000 3.000000 0.400000
v 0.100000 3.100000 0.400000
v 0.100000 3.300000 0.400000
v 0.100000 3.500000 0.400000
v 0.200000 0.000000 0.400000
v 0.200000 1.200000 0.400000
v 0.200000 1.800000 0.400000
v 0.200000 3.000000 0.400000
v 0.200000 3.500000 0.400000
v -0.200000 0.000000 0.300000
v -0.100000 1.100000 0.300000
v -0.100000 2.500000 0.300000
v -0.100000 2.800000 0.300000
v 0.200000 1.800000 0.300000
v 0.200000 3.000000 0.300000
v 0.200000 3.200000 0.300000
v 0.200000 3.500000 0.300000
v 0.200000 3.600000 0.300000
v 0.300000 4.000000 0.300000
v -0.300000 0.700000 0.200000
v -0.300000 4.000000 0.200000
v -0.200000 0.000000 0.200000
v -0.200000 0.600000 0.200000
v -0.200000 0.700000 0.200000
v -0.200000 2.400000 0.200000
v -0.200000 4.000000 0.200000
v 0.300000 3.200000 0.200000
v 0.300000 3.300000 0.200000
v 0.300000 3.500000 0.200000
v 0.300000 3.600000 0.200000
v 0.300000 4.000000 0.200000
v 0.400000 3.500000 0.200000
v 0.400000 4.000000 0.200000
v -0.400000 0.400000 0.100000
v -0.400000 0.700000 0.100000
v -0.400000 2.400000 0.100000
v -0.400000 4.000000 0.100000
v -0.300000 0.400000 0.100000
v -0.300000 0.600000 0.100000
v -0.300000 2.700000 0.100000
v -0.300000 4.000000 0.100000
v 0.400000 3.300000 0.100000
v 0.400000 3.500000 0.100000
v 0.500000 0.400000 0.100000
v -0.400000 0.400000 -0.200000
v -0.400000 2.300000 -0.200000
v -0.300000 2.300000 -0.200000
v -0.300000 2.600000 -0.200000
v -0.300000 3.200000 -0.200000
v -0.300000 4.000000 -0.200000
v 0.400000 0.400000 -0.200000
v 0.400000 0.800000 -0.200000
v 0.500000 2.100000 -0.200000
v 0.500000 2.500000 -0.200000
v -0.300000 3.200000 -0.300000
v -0.300000 4.000000 -0.300000
v -0.200000 0.400000 -0.300000
v -0.200000 1.200000 -0.300000
v -0.200000 1.700000 -0.300000
v -0.200000 3.000000 -0.300000
v -0.200000 3.200000 -0.300000
v 0.300000 4.000000 -0.300000
v 0.400000 2.200000 -0.300000
v 0.400000 2.600000 -0.300000
v 0.400000 4.000000 -0.300000
v -0.200000 1.700000 -0.400000
v -0.100000 -0.000000 -0.400000
v -0.100000 1.200000 -0.400000
v -0.100000 1.800000 -0.400000
v -0.100000 3.500000 -0.400000
v 0.200000 -0.000000 -0.400000
v 0.200000 1.600000 -0.400000
v 0.200000 1.900000 -0.400000
v 0.200000 2.300000 -0.400000
v 0.300000 -0.000000 -0.400000
v 0.300000 2.700000 -0.400000
v -0.100000 3.500000 -0.500000
v -0.100000 4.000000 -0.500000
v 0.000000 1.200000 -0.500000
v 0.000000 1.400000 -0.500000
v 0.000000 1.800000 -0.500000
v 0.000000 1.900000 -0.500000
v 0.000000 3.000000 -0.500000
v 0.000000 3.200000 -0.500000
v 0.100000 1.400000 -0.500000
v 0.100000 1.600000 -0.500000
v 0.100000 3.200000 -0.500000
v 0.100000 3.500000 -0.500000
v 0.300000 0.000000 0.300000
v -0.300000 0.000000 0.200000
v -0.100000 0.000000 0.200000
v 0.000000 0.000000 0.200000
v 0.100000 0.000000 0.200000
v 0.200000 0.000000 0.200000
v -0.300000 0.000000 0.100000
v -0.200000 0.000000 0.100000
v -0.100000 0.000000 0.100000
v 0.000000 0.000000 0.100000
v 0.100000 0.000000 0.100000
v 0.200000 0.000000 0.100000
v 0.300000 0.000000 0.100000
v -0.200000 0.000000 0.000000
v -0.100000 0.000000 0.000000
v 0.000000 0.000000 0.000000
v 0.100000 0.000000 0.000000
v 0.200000 0.000000 0.000000
v 0.300000 0.000000 0.000000
v -0.200000 -0.000000 -0.100000
v -0.100000 -0.000000 -0.100000
v 0.000000 -0.000000 -0.100000
v 0.100000 -0.000000 -0.100000
v 0.200000 -0.000000 -0.100000
v 0.300000 -0.000000 -0.100000
v -0.300000 -0.000000 -0.200000
v -0.200000 -0.000000 -0.200000
v -0.100000 -0.000000 -0.200000
v 0.000000 -0.000000 -0.200000
v 0.100000 -0.000000 -0.200000
v 0.200000 -0.000000 -0.200000
v 0.300000 -0.000000 -0.200000
v 0.400000 -0.000000 -0.200000
v -0.100000 -0.000000 -0.300000
v 0.000000 -0.000000 -0.300000
v 0.100000 -0.000000 -0.300000
v 0.200000 -0.000000 -0.300000
v 0.300000 -0.000000 -0.300000
v 0.400000 -0.000000 -0.300000
v -0.200000 -0.000000 -0.400000
v 0.200000 4.000000 0.400000
v -0.200000 4.000000 0.300000
v -0.100000 4.000000 0.300000
v 0.200000 4.000000 0.300000
v -0.100000 4.000000 0.200000
v 0.000000 4.000000 0.200000
v 0.100000 4.000000 0.200000
v 0.200000 4.000000 0.200000
v -0.200000 4.000000 0.100000
v -0.100000 4.000000 0.100000
v 0.000000 4.000000 0.100000
v 0.100000 4.000000 0.100000
v 0.200000 4.000000 0.100000
v 0.300000 4.000000 0.100000
v -0.200000 4.000000 -0.000000
v -0.100000 4.000000 -0.000000
v 0.000000 4.000000 -0.000000
v 0.100000 4.000000 -0.000000
v 0.200000 4.000000 -0.000000
v 0.300000 4.000000 -0.000000
v -0.200000 4.000000 -0.100000
v -0.100000 4.000000 -0.100000
v 0.000000 4.000000 -0.100000
v 0.100000 4.000000 -0.100000
v 0.200000 4.000000 -0.100000
v 0.300000 4.000000 -0.100000
v -0.400000 4.000000 -0.200000
v -0.200000 4.000000 -0.200000
v -0.100000 4.000000 -0.200000
v 0.000000 4.000000 -0.200000
v 0.100000 4.000000 -0.200000
v 0.200000 4.000000 -0.200000
v 0.300000 4.000000 -0.200000
v 0.400000 4.000000 -0.200000
v 0.500000 4.000000 -0.200000
v -0.200000 4.000000 -0.300000
v -0.100000 4.000000 -0.300000
v 0.000000 4.000000 -0.300000
v 0.100000 4.000000 -0.300000
v 0.200000 4.000000 -0.300000
v -0.200000 4.000000 -0.400000
v -0.100000 4.000000 -0.400000
v 0.300000 4.000000 -0.400000
vn -1.0000 -0.0000 -0.0000
vn 1.0000 -0.0000 -0.0000
vn -0.0000 -0.0000 1.0000
vn -0.0000 -0.0000 -1.0000
vn -0.0000 -1.0000 -0.0000
vn -0.0000 1.0000 -0.0000
vt 0.888672 0.500000
vt 0.884766 0.500000
vt 0.876953 0.500000
s 0
usemtl palette.001
f 3/1/1 2/1/1 1/1/1
f 4/1/1 2/1/1 3/1/1
f 132/1/1 3/1/1 1/1/1
f 5/2/1 4/2/1 3/2/1
f 5/1/1 3/1/1 132/1/1
f 6/1/1 2/1/1 4/1/1
f 6/2/1 4/2/1 5/2/1
f 143/1/1 2/1/1 6/1/1
f 7/2/1 5/2/1 132/2/1
f 7/2/1 6/2/1 5/2/1
f 7/2/1 143/2/1 6/2/1
f 8/2/1 143/2/1 7/2/1
f 133/2/1 7/2/1 132/2/1
f 9/1/1 8/1/1 7/1/1
f 9/2/1 7/2/1 133/2/1
f 10/1/1 9/1/1 133/1/1
f 144/1/1 8/1/1 9/1/1
f 144/1/1 9/1/1 10/1/1
f 134/1/1 10/1/1 133/1/1
f 11/2/1 144/2/1 10/2/1
f 11/1/1 10/1/1 134/1/1
f 12/2/1 11/2/1 134/2/1
f 12/2/1 144/2/1 11/2/1
f 13/2/1 144/2/1 12/2/1
f 14/2/1 12/2/1 134/2/1
f 15/1/1 13/1/1 12/1/1
f 15/2/1 12/2/1 14/2/1
f 135/1/1 15/1/1 14/1/1
f 253/1/1 13/1/1 15/1/1
f 253/1/1 15/1/1 135/1/1
f 17/1/1 16/1/1 212/1/1
f 18/1/1 16/1/1 17/1/1
f 136/1/1 193/1/1 188/1/1
f 19/2/1 18/2/1 17/2/1
f 20/2/1 18/2/1 19/2/1
f 21/1/1 136/1/1 188/1/1
f 137/1/1 136/1/1 21/1/1
f 22/1/1 20/1/1 19/1/1
f 118/2/1 137/2/1 21/2/1
f 23/2/1 137/2/1 118/2/1
f 145/1/1 20/1/1 22/1/1
f 24/1/1 23/1/1 118/1/1
f 25/1/1 23/1/1 24/1/1
f 146/1/1 20/1/1 145/1/1
f 26/2/1 25/2/1 24/2/1
f 138/2/1 25/2/1 26/2/1
f 27/1/1 20/1/1 146/1/1
f 28/1/1 20/1/1 27/1/1
f 147/2/1 28/2/1 27/2/1
f 153/2/1 28/2/1 147/2/1
f 119/1/1 138/1/1 26/1/1
f 139/1/1 138/1/1 119/1/1
f 148/1/1 153/1/1 147/1/1
f 154/1/1 153/1/1 148/1/1
f 30/1/1 226/1/1 29/1/1
f 155/1/1 226/1/1 30/1/1
f 121/1/1 120/1/1 108/1/1
f 122/1/1 121/1/1 108/1/1
f 156/1/1 226/1/1 155/1/1
f 31/1/1 226/1/1 156/1/1
f 157/2/1 31/2/1 156/2/1
f 164/2/1 31/2/1 157/2/1
f 123/1/1 122/1/1 108/1/1
f 32/1/1 123/1/1 108/1/1
f 33/1/1 123/1/1 32/1/1
f 34/2/1 33/2/1 32/2/1
f 35/2/1 34/2/1 32/2/1
f 36/2/1 34/2/1 35/2/1
f 158/1/1 164/1/1 157/1/1
f 37/1/1 164/1/1 158/1/1
f 159/2/1 37/2/1 158/2/1
f 38/2/1 37/2/1 159/2/1
f 39/2/1 37/2/1 38/2/1
f 228/1/1 36/1/1 35/1/1
f 124/1/1 36/1/1 228/1/1
f 262/1/1 39/1/1 38/1/1
f 267/1/1 39/1/1 262/1/1
f 88/1/1 40/1/1 87/1/1
f 109/1/1 40/1/1 88/1/1
f 166/1/1 41/1/1 165/1/1
f 42/1/1 41/1/1 166/1/1
f 89/2/1 109/2/1 88/2/1
f 43/2/1 109/2/1 89/2/1
f 44/2/1 42/2/1 166/2/1
f 167/2/1 42/2/1 44/2/1
f 45/2/1 42/2/1 167/2/1
f 110/1/1 43/1/1 89/1/1
f 111/1/1 110/1/1 89/1/1
f 46/1/1 45/1/1 167/1/1
f 47/1/1 45/1/1 46/1/1
f 48/2/1 47/2/1 46/2/1
f 168/2/1 47/2/1 48/2/1
f 175/2/1 47/2/1 168/2/1
f 90/1/1 111/1/1 89/1/1
f 229/1/1 111/1/1 90/1/1
f 268/1/1 175/1/1 168/1/1
f 176/1/1 175/1/1 268/1/1
f 103/1/2 49/1/2 104/1/2
f 104/1/2 49/1/2 51/1/2
f 169/1/2 50/1/2 170/1/2
f 170/1/2 50/1/2 52/1/2
f 104/2/2 51/2/2 105/2/2
f 105/2/2 51/2/2 112/2/2
f 170/2/2 52/2/2 171/2/2
f 171/2/2 52/2/2 53/2/2
f 171/1/2 53/1/2 172/1/2
f 172/1/2 53/1/2 54/1/2
f 105/1/2 112/1/2 106/1/2
f 106/1/2 112/1/2 113/1/2
f 106/2/2 113/2/2 114/2/2
f 106/2/2 114/2/2 107/2/2
f 107/2/2 114/2/2 115/2/2
f 107/1/2 115/1/2 116/1/2
f 107/1/2 116/1/2 227/1/2
f 227/1/2 116/1/2 230/1/2
f 54/1/2 53/1/2 55/1/2
f 55/1/2 53/1/2 56/1/2
f 224/1/2 173/1/2 58/1/2
f 58/1/2 173/1/2 59/1/2
f 59/1/2 173/1/2 60/1/2
f 59/2/2 60/2/2 61/2/2
f 61/2/2 60/2/2 62/2/2
f 62/2/2 60/2/2 174/2/2
f 187/1/2 57/1/2 63/1/2
f 63/1/2 57/1/2 125/1/2
f 63/2/2 125/2/2 126/2/2
f 63/2/2 126/2/2 127/2/2
f 63/2/2 127/2/2 64/2/2
f 64/2/2 127/2/2 128/2/2
f 64/1/2 128/1/2 117/1/2
f 117/1/2 128/1/2 129/1/2
f 62/1/2 174/1/2 160/1/2
f 160/1/2 174/1/2 269/1/2
f 65/1/2 66/1/2 67/1/2
f 219/1/2 225/1/2 149/1/2
f 149/1/2 225/1/2 150/1/2
f 65/1/2 67/1/2 68/1/2
f 150/1/2 225/1/2 69/1/2
f 69/1/2 225/1/2 70/1/2
f 70/1/2 225/1/2 161/1/2
f 70/2/2 161/2/2 71/2/2
f 71/2/2 161/2/2 72/2/2
f 72/2/2 161/2/2 162/2/2
f 65/1/2 68/1/2 73/1/2
f 73/1/2 68/1/2 140/1/2
f 73/2/2 140/2/2 130/2/2
f 130/2/2 140/2/2 141/2/2
f 130/1/2 141/1/2 131/1/2
f 131/1/2 141/1/2 74/1/2
f 72/1/2 162/1/2 260/1/2
f 260/1/2 162/1/2 163/1/2
f 75/1/2 76/1/2 142/1/2
f 142/1/2 76/1/2 77/1/2
f 142/2/2 77/2/2 78/2/2
f 78/2/2 77/2/2 79/2/2
f 142/2/2 78/2/2 80/2/2
f 78/1/2 79/1/2 81/1/2
f 80/2/2 78/2/2 81/2/2
f 80/1/2 81/1/2 82/1/2
f 81/1/2 79/1/2 151/1/2
f 82/1/2 81/1/2 151/1/2
f 80/1/2 82/1/2 83/1/2
f 82/2/2 151/2/2 83/2/2
f 83/2/2 151/2/2 84/2/2
f 83/1/2 84/1/2 85/1/2
f 84/2/2 151/2/2 85/2/2
f 85/2/2 151/2/2 152/2/2
f 80/1/2 83/1/2 86/1/2
f 83/1/2 85/1/2 86/1/2
f 85/1/2 152/1/2 86/1/2
f 86/1/2 152/1/2 261/1/2
f 91/2/3 89/2/3 88/2/3
f 91/1/3 90/1/3 89/1/3
f 92/1/3 90/1/3 91/1/3
f 93/1/3 90/1/3 92/1/3
f 94/1/3 90/1/3 93/1/3
f 95/1/3 88/1/3 87/1/3
f 95/2/3 91/2/3 88/2/3
f 95/2/3 92/2/3 91/2/3
f 96/2/3 92/2/3 95/2/3
f 97/1/3 93/1/3 92/1/3
f 97/2/3 92/2/3 96/2/3
f 98/1/3 93/1/3 97/1/3
f 99/1/3 93/1/3 98/1/3
f 100/2/3 94/2/3 93/2/3
f 100/1/3 93/1/3 99/1/3
f 101/1/3 90/1/3 94/1/3
f 101/2/3 94/2/3 100/2/3
f 102/1/3 90/1/3 101/1/3
f 103/1/3 96/1/3 95/1/3
f 103/1/3 95/1/3 87/1/3
f 104/2/3 97/2/3 96/2/3
f 104/1/3 96/1/3 103/1/3
f 104/2/3 98/2/3 97/2/3
f 105/1/3 99/1/3 98/1/3
f 105/2/3 98/2/3 104/2/3
f 106/2/3 100/2/3 99/2/3
f 106/1/3 99/1/3 105/1/3
f 106/2/3 102/2/3 101/2/3
f 106/2/3 101/2/3 100/2/3
f 107/1/3 90/1/3 102/1/3
f 107/2/3 102/2/3 106/2/3
f 227/1/3 90/1/3 107/1/3
f 40/1/3 32/1/3 108/1/3
f 109/1/3 32/1/3 40/1/3
f 43/1/3 32/1/3 109/1/3
f 110/2/3 35/2/3 32/2/3
f 110/1/3 32/1/3 43/1/3
f 111/1/3 228/1/3 35/1/3
f 111/2/3 35/2/3 110/2/3
f 229/1/3 228/1/3 111/1/3
f 187/1/3 51/1/3 49/1/3
f 187/1/3 112/1/3 51/1/3
f 187/1/3 113/1/3 112/1/3
f 187/1/3 114/1/3 113/1/3
f 63/2/3 116/2/3 115/2/3
f 63/1/3 114/1/3 187/1/3
f 63/2/3 115/2/3 114/2/3
f 64/1/3 230/1/3 116/1/3
f 64/2/3 116/2/3 63/2/3
f 117/1/3 230/1/3 64/1/3
f 120/1/3 21/1/3 188/1/3
f 121/2/3 118/2/3 21/2/3
f 121/1/3 21/1/3 120/1/3
f 122/1/3 24/1/3 118/1/3
f 122/2/3 118/2/3 121/2/3
f 123/2/3 26/2/3 24/2/3
f 123/1/3 24/1/3 122/1/3
f 33/2/3 26/2/3 123/2/3
f 34/1/3 119/1/3 26/1/3
f 34/2/3 26/2/3 33/2/3
f 36/1/3 119/1/3 34/1/3
f 124/1/3 119/1/3 36/1/3
f 65/1/3 125/1/3 57/1/3
f 65/1/3 126/1/3 125/1/3
f 73/2/3 127/2/3 126/2/3
f 73/1/3 126/1/3 65/1/3
f 130/1/3 129/1/3 128/1/3
f 130/2/3 127/2/3 73/2/3
f 130/1/3 128/1/3 127/1/3
f 131/1/3 129/1/3 130/1/3
f 193/1/3 132/1/3 1/1/3
f 136/2/3 133/2/3 132/2/3
f 136/1/3 132/1/3 193/1/3
f 137/2/3 133/2/3 136/2/3
f 23/1/3 134/1/3 133/1/3
f 23/2/3 133/2/3 137/2/3
f 25/2/3 14/2/3 134/2/3
f 25/1/3 134/1/3 23/1/3
f 138/1/3 135/1/3 14/1/3
f 138/2/3 14/2/3 25/2/3
f 139/1/3 135/1/3 138/1/3
f 75/1/3 67/1/3 66/1/3
f 142/2/3 68/2/3 67/2/3
f 142/1/3 67/1/3 75/1/3
f 80/1/3 74/1/3 141/1/3
f 80/2/3 68/2/3 142/2/3
f 80/1/3 140/1/3 68/1/3
f 80/1/3 141/1/3 140/1/3
f 86/1/3 74/1/3 80/1/3
f 2/1/4 143/1/4 212/1/4
f 212/1/4 143/1/4 17/1/4
f 143/2/4 8/2/4 19/2/4
f 17/1/4 143/1/4 19/1/4
f 8/1/4 144/1/4 22/1/4
f 19/2/4 8/2/4 22/2/4
f 144/2/4 13/2/4 145/2/4
f 22/1/4 144/1/4 145/1/4
f 13/1/4 253/1/4 146/1/4
f 145/2/4 13/2/4 146/2/4
f 146/1/4 253/1/4 27/1/4
f 27/1/4 253/1/4 147/1/4
f 147/1/4 253/1/4 148/1/4
f 219/1/4 149/1/4 76/1/4
f 149/2/4 150/2/4 77/2/4
f 76/1/4 149/1/4 77/1/4
f 150/1/4 69/1/4 79/1/4
f 77/2/4 150/2/4 79/2/4
f 69/2/4 70/2/4 151/2/4
f 79/1/4 69/1/4 151/1/4
f 70/2/4 71/2/4 151/2/4
f 72/1/4 260/1/4 152/1/4
f 151/2/4 71/2/4 152/2/4
f 71/1/4 72/1/4 152/1/4
f 152/1/4 260/1/4 261/1/4
f 16/1/4 18/1/4 29/1/4
f 18/2/4 20/2/4 30/2/4
f 29/1/4 18/1/4 30/1/4
f 20/1/4 28/1/4 155/1/4
f 30/2/4 20/2/4 155/2/4
f 155/1/4 28/1/4 156/1/4
f 156/1/4 28/1/4 157/1/4
f 28/2/4 153/2/4 158/2/4
f 157/1/4 28/1/4 158/1/4
f 153/1/4 154/1/4 159/1/4
f 158/2/4 153/2/4 159/2/4
f 159/1/4 154/1/4 38/1/4
f 38/1/4 154/1/4 262/1/4
f 224/1/4 58/1/4 225/1/4
f 58/2/4 59/2/4 161/2/4
f 225/1/4 58/1/4 161/1/4
f 59/2/4 61/2/4 161/2/4
f 62/1/4 160/1/4 162/1/4
f 161/2/4 61/2/4 162/2/4
f 61/1/4 62/1/4 162/1/4
f 162/1/4 160/1/4 163/1/4
f 226/1/4 31/1/4 165/1/4
f 31/2/4 164/2/4 166/2/4
f 165/1/4 31/1/4 166/1/4
f 164/1/4 37/1/4 44/1/4
f 166/2/4 164/2/4 44/2/4
f 44/1/4 37/1/4 167/1/4
f 37/2/4 39/2/4 46/2/4
f 167/1/4 37/1/4 46/1/4
f 39/1/4 267/1/4 48/1/4
f 46/2/4 39/2/4 48/2/4
f 48/1/4 267/1/4 168/1/4
f 168/1/4 267/1/4 268/1/4
f 169/1/4 170/1/4 173/1/4
f 170/1/4 171/1/4 173/1/4
f 171/1/4 172/1/4 173/1/4
f 172/2/4 54/2/4 60/2/4
f 173/1/4 172/1/4 60/1/4
f 54/1/4 55/1/4 174/1/4
f 60/2/4 54/2/4 174/2/4
f 174/1/4 55/1/4 269/1/4
f 41/1/4 42/1/4 177/1/4
f 42/2/4 45/2/4 177/2/4
f 177/2/4 45/2/4 178/2/4
f 45/1/4 47/1/4 179/1/4
f 178/2/4 45/2/4 179/2/4
f 179/1/4 47/1/4 180/1/4
f 47/2/4 175/2/4 181/2/4
f 180/1/4 47/1/4 181/1/4
f 181/2/4 175/2/4 182/2/4
f 179/2/4 180/2/4 183/2/4
f 177/1/4 178/1/4 183/1/4
f 178/2/4 179/2/4 183/2/4
f 183/2/4 180/2/4 184/2/4
f 182/2/4 175/2/4 185/2/4
f 181/1/4 182/1/4 185/1/4
f 180/1/4 181/1/4 185/1/4
f 175/1/4 176/1/4 186/1/4
f 185/2/4 175/2/4 186/2/4
f 183/1/4 184/1/4 50/1/4
f 41/1/4 177/1/4 50/1/4
f 177/1/4 183/1/4 50/1/4
f 184/2/4 180/2/4 52/2/4
f 50/1/4 184/1/4 52/1/4
f 180/1/4 185/1/4 53/1/4
f 52/2/4 180/2/4 53/2/4
f 185/1/4 186/1/4 53/1/4
f 186/1/4 176/1/4 56/1/4
f 53/1/4 186/1/4 56/1/4
f 40/1/5 103/1/5 87/1/5
f 49/1/5 103/1/5 40/1/5
f 120/1/5 40/1/5 108/1/5
f 189/2/5 49/2/5 40/2/5
f 189/1/5 40/1/5 120/1/5
f 190/2/5 49/2/5 189/2/5
f 191/2/5 49/2/5 190/2/5
f 192/1/5 187/1/5 49/1/5
f 192/2/5 49/2/5 191/2/5
f 57/1/5 187/1/5 192/1/5
f 193/1/5 120/1/5 188/1/5
f 194/2/5 189/2/5 120/2/5
f 194/1/5 120/1/5 193/1/5
f 195/1/5 190/1/5 189/1/5
f 195/2/5 189/2/5 194/2/5
f 196/3/5 191/3/5 190/3/5
f 196/1/5 190/1/5 195/1/5
f 197/1/5 192/1/5 191/1/5
f 197/3/5 191/3/5 196/3/5
f 198/2/5 57/2/5 192/2/5
f 198/1/5 192/1/5 197/1/5
f 199/1/5 65/1/5 57/1/5
f 199/2/5 57/2/5 198/2/5
f 66/1/5 65/1/5 199/1/5
f 200/1/5 195/1/5 194/1/5
f 200/2/5 194/2/5 193/2/5
f 201/3/5 196/3/5 195/3/5
f 201/1/5 195/1/5 200/1/5
f 202/2/5 197/2/5 196/2/5
f 202/3/5 196/3/5 201/3/5
f 203/3/5 198/3/5 197/3/5
f 203/2/5 197/2/5 202/2/5
f 204/1/5 199/1/5 198/1/5
f 204/3/5 198/3/5 203/3/5
f 205/2/5 66/2/5 199/2/5
f 205/1/5 199/1/5 204/1/5
f 206/2/5 200/2/5 193/2/5
f 206/3/5 201/3/5 200/3/5
f 207/2/5 202/2/5 201/2/5
f 207/3/5 201/3/5 206/3/5
f 207/2/5 204/2/5 203/2/5
f 207/2/5 203/2/5 202/2/5
f 208/2/5 204/2/5 207/2/5
f 209/2/5 204/2/5 208/2/5
f 210/3/5 205/3/5 204/3/5
f 210/2/5 204/2/5 209/2/5
f 211/2/5 66/2/5 205/2/5
f 211/3/5 205/3/5 210/3/5
f 2/1/5 193/1/5 1/1/5
f 212/2/5 206/2/5 193/2/5
f 212/1/5 193/1/5 2/1/5
f 213/1/5 207/1/5 206/1/5
f 213/2/5 206/2/5 212/2/5
f 214/3/5 208/3/5 207/3/5
f 214/1/5 207/1/5 213/1/5
f 215/2/5 209/2/5 208/2/5
f 215/3/5 208/3/5 214/3/5
f 216/3/5 210/3/5 209/3/5
f 216/2/5 209/2/5 215/2/5
f 217/1/5 211/1/5 210/1/5
f 217/3/5 210/3/5 216/3/5
f 218/2/5 66/2/5 211/2/5
f 218/1/5 211/1/5 217/1/5
f 219/1/5 75/1/5 66/1/5
f 219/2/5 66/2/5 218/2/5
f 76/1/5 75/1/5 219/1/5
f 16/1/5 213/1/5 212/1/5
f 29/2/5 214/2/5 213/2/5
f 29/1/5 213/1/5 16/1/5
f 220/1/5 215/1/5 214/1/5
f 220/2/5 214/2/5 29/2/5
f 221/3/5 216/3/5 215/3/5
f 221/1/5 215/1/5 220/1/5
f 222/1/5 217/1/5 216/1/5
f 222/3/5 216/3/5 221/3/5
f 223/2/5 218/2/5 217/2/5
f 223/1/5 217/1/5 222/1/5
f 224/1/5 219/1/5 218/1/5
f 224/2/5 218/2/5 223/2/5
f 225/1/5 219/1/5 224/1/5
f 226/1/5 220/1/5 29/1/5
f 165/2/5 222/2/5 221/2/5
f 165/1/5 220/1/5 226/1/5
f 165/2/5 221/2/5 220/2/5
f 165/2/5 223/2/5 222/2/5
f 169/1/5 224/1/5 223/1/5
f 169/2/5 223/2/5 165/2/5
f 173/1/5 224/1/5 169/1/5
f 41/1/5 169/1/5 165/1/5
f 50/1/5 169/1/5 41/1/5
f 90/1/6 227/1/6 229/1/6
f 229/1/6 227/1/6 230/1/6
f 228/1/6 229/1/6 124/1/6
f 229/2/6 230/2/6 231/2/6
f 124/1/6 229/1/6 231/1/6
f 231/2/6 230/2/6 232/2/6
f 232/2/6 230/2/6 233/2/6
f 230/1/6 117/1/6 234/1/6
f 233/2/6 230/2/6 234/2/6
f 234/1/6 117/1/6 129/1/6
f 119/1/6 124/1/6 139/1/6
f 124/2/6 231/2/6 235/2/6
f 139/1/6 124/1/6 235/1/6
f 231/1/6 232/1/6 236/1/6
f 235/2/6 231/2/6 236/2/6
f 232/3/6 233/3/6 237/3/6
f 236/1/6 232/1/6 237/1/6
f 233/1/6 234/1/6 238/1/6
f 237/3/6 233/3/6 238/3/6
f 234/2/6 129/2/6 239/2/6
f 238/1/6 234/1/6 239/1/6
f 129/1/6 131/1/6 240/1/6
f 239/2/6 129/2/6 240/2/6
f 240/1/6 131/1/6 74/1/6
f 235/1/6 236/1/6 241/1/6
f 139/2/6 235/2/6 241/2/6
f 236/3/6 237/3/6 242/3/6
f 241/1/6 236/1/6 242/1/6
f 237/2/6 238/2/6 243/2/6
f 242/3/6 237/3/6 243/3/6
f 238/3/6 239/3/6 244/3/6
f 243/2/6 238/2/6 244/2/6
f 239/1/6 240/1/6 245/1/6
f 244/3/6 239/3/6 245/3/6
f 240/2/6 74/2/6 246/2/6
f 245/1/6 240/1/6 246/1/6
f 139/2/6 241/2/6 247/2/6
f 241/3/6 242/3/6 247/3/6
f 242/2/6 243/2/6 248/2/6
f 247/3/6 242/3/6 248/3/6
f 244/2/6 245/2/6 248/2/6
f 243/2/6 244/2/6 248/2/6
f 248/2/6 245/2/6 249/2/6
f 249/2/6 245/2/6 250/2/6
f 245/3/6 246/3/6 251/3/6
f 250/2/6 245/2/6 251/2/6
f 246/2/6 74/2/6 252/2/6
f 251/3/6 246/3/6 252/3/6
f 135/1/6 139/1/6 253/1/6
f 139/2/6 247/2/6 148/2/6
f 253/1/6 139/1/6 148/1/6
f 247/1/6 248/1/6 254/1/6
f 148/2/6 247/2/6 254/2/6
f 248/3/6 249/3/6 255/3/6
f 254/1/6 248/1/6 255/1/6
f 249/2/6 250/2/6 256/2/6
f 255/3/6 249/3/6 256/3/6
f 250/3/6 251/3/6 257/3/6
f 256/2/6 250/2/6 257/2/6
f 251/1/6 252/1/6 258/1/6
f 257/3/6 251/3/6 258/3/6
f 252/2/6 74/2/6 259/2/6
f 258/1/6 252/1/6 259/1/6
f 74/1/6 86/1/6 260/1/6
f 259/2/6 74/2/6 260/2/6
f 260/1/6 86/1/6 261/1/6
f 148/1/6 254/1/6 154/1/6
f 254/2/6 255/2/6 262/2/6
f 154/1/6 254/1/6 262/1/6
f 255/1/6 256/1/6 263/1/6
f 262/2/6 255/2/6 263/2/6
f 256/3/6 257/3/6 264/3/6
f 263/1/6 256/1/6 264/1/6
f 257/1/6 258/1/6 265/1/6
f 264/3/6 257/3/6 265/3/6
f 258/2/6 259/2/6 266/2/6
f 265/1/6 258/1/6 266/1/6
f 259/1/6 260/1/6 160/1/6
f 266/2/6 259/2/6 160/2/6
f 160/1/6 260/1/6 163/1/6
f 262/1/6 263/1/6 267/1/6
f 264/2/6 265/2/6 268/2/6
f 267/1/6 263/1/6 268/1/6
f 263/2/6 264/2/6 268/2/6
f 265/2/6 266/2/6 268/2/6
f 266/1/6 160/1/6 55/1/6
f 268/2/6 266/2/6 55/2/6
f 55/1/6 160/1/6 269/1/6
f 268/1/6 55/1/6 176/1/6
f 176/1/6 55/1/6 56/1/6
