# Blender 3.6.1
# www.blender.org
mtllib Split Log.mtl
o Split_Log
v -0.400000 0.300000 -0.000000
v -0.400000 0.300000 -0.100000
v -0.400000 0.400000 0.100000
v -0.400000 0.400000 -0.000000
v -0.400000 0.400000 -0.100000
v -0.400000 0.400000 -0.200000
v -0.400000 0.600000 -0.100000
v -0.400000 0.600000 -0.200000
v -0.400000 0.700000 -0.100000
v -0.400000 2.700000 -0.200000
v -0.300000 0.000000 0.200000
v -0.300000 -0.000000 -0.200000
v -0.300000 -0.000000 -0.300000
v -0.300000 0.400000 0.100000
v -0.300000 0.400000 -0.300000
v -0.300000 0.600000 0.100000
v -0.300000 0.600000 -0.200000
v -0.300000 0.700000 0.200000
v -0.300000 0.700000 0.100000
v -0.300000 2.700000 0.200000
v -0.300000 2.700000 0.100000
v -0.300000 2.700000 -0.200000
v -0.300000 2.700000 -0.300000
v -0.300000 3.000000 -0.300000
v -0.200000 0.000000 0.200000
v -0.200000 0.400000 -0.300000
v -0.200000 0.600000 0.200000
v -0.200000 0.700000 0.200000
v -0.200000 1.300000 0.300000
v -0.200000 2.700000 0.300000
v -0.200000 2.700000 0.200000
v -0.200000 2.700000 -0.400000
v -0.200000 2.800000 0.300000
v -0.200000 3.000000 -0.400000
v -0.200000 3.200000 -0.300000
v -0.200000 3.400000 -0.300000
v -0.200000 3.400000 -0.400000
v -0.200000 4.000000 -0.400000
v -0.100000 0.000000 0.400000
v -0.100000 1.100000 0.300000
v -0.100000 1.200000 -0.400000
v -0.100000 2.700000 0.400000
v -0.100000 3.000000 -0.500000
v -0.100000 3.400000 -0.400000
v -0.100000 4.000000 0.300000
v 0.200000 0.000000 0.400000
v 0.200000 -0.000000 -0.500000
v 0.200000 1.300000 -0.500000
v 0.200000 3.000000 0.300000
v 0.200000 3.200000 0.300000
v 0.200000 3.500000 0.400000
v 0.200000 4.000000 -0.400000
v 0.300000 -0.000000 -0.300000
v 0.300000 1.300000 0.300000
v 0.300000 1.300000 -0.400000
v 0.300000 2.700000 0.200000
v 0.300000 3.200000 0.200000
v 0.300000 3.500000 0.200000
v 0.300000 4.000000 -0.300000
v 0.400000 0.400000 0.100000
v 0.400000 2.700000 0.100000
v 0.400000 2.700000 -0.200000
v 0.400000 2.700000 -0.300000
v 0.400000 3.300000 0.200000
v 0.400000 4.000000 0.100000
v 0.500000 0.800000 -0.100000
v 0.500000 0.800000 -0.200000
v 0.500000 1.000000 0.100000
v 0.500000 1.000000 -0.100000
v 0.500000 1.300000 -0.200000
v 0.500000 2.700000 -0.200000
v 0.500000 4.000000 -0.200000
v -0.100000 1.100000 0.400000
v -0.100000 1.300000 0.400000
v -0.100000 4.000000 0.400000
v 0.000000 3.100000 0.400000
v 0.000000 3.300000 0.400000
v 0.100000 1.100000 0.400000
v 0.100000 1.200000 0.400000
v 0.100000 3.000000 0.400000
v 0.100000 3.100000 0.400000
v 0.100000 3.300000 0.400000
v 0.100000 3.500000 0.400000
v 0.200000 1.200000 0.400000
v 0.200000 2.700000 0.400000
v 0.200000 3.000000 0.400000
v 0.200000 4.000000 0.400000
v -0.200000 0.000000 0.300000
v -0.200000 4.000000 0.300000
v -0.100000 0.000000 0.300000
v -0.100000 2.800000 0.300000
v 0.200000 0.000000 0.300000
v 0.200000 1.200000 0.300000
v 0.200000 1.300000 0.300000
v 0.200000 3.500000 0.300000
v 0.200000 3.600000 0.300000
v 0.300000 0.000000 0.300000
v 0.300000 3.200000 0.300000
v 0.300000 3.600000 0.300000
v -0.300000 0.600000 0.200000
v -0.300000 4.000000 0.200000
v -0.200000 1.300000 0.200000
v -0.200000 2.800000 0.200000
v 0.300000 1.300000 0.200000
v 0.300000 3.300000 0.200000
v 0.300000 3.600000 0.200000
v 0.300000 4.000000 0.200000
v 0.400000 1.300000 0.200000
v 0.400000 2.700000 0.200000
v 0.400000 3.500000 0.200000
v -0.400000 0.000000 0.100000
v -0.400000 0.700000 0.100000
v -0.400000 1.300000 0.100000
v -0.300000 1.300000 0.100000
v -0.300000 4.000000 0.100000
v 0.400000 0.000000 0.100000
v 0.400000 1.000000 0.100000
v 0.400000 3.300000 0.100000
v 0.400000 3.500000 0.100000
v 0.500000 0.000000 0.100000
v 0.500000 0.400000 0.100000
v 0.500000 1.300000 0.100000
v 0.500000 2.700000 0.100000
v 0.500000 4.000000 0.100000
v -0.400000 4.000000 -0.200000
v -0.300000 0.300000 -0.200000
v -0.300000 0.400000 -0.200000
v -0.300000 3.000000 -0.200000
v -0.300000 3.200000 -0.200000
v 0.400000 0.400000 -0.200000
v 0.400000 0.800000 -0.200000
v 0.500000 0.400000 -0.200000
v -0.300000 0.300000 -0.300000
v -0.300000 3.200000 -0.300000
v -0.200000 0.300000 -0.300000
v -0.200000 1.200000 -0.300000
v -0.200000 1.300000 -0.300000
v -0.200000 3.000000 -0.300000
v -0.200000 4.000000 -0.300000
v 0.300000 1.300000 -0.300000
v 0.300000 2.700000 -0.300000
v 0.400000 1.300000 -0.300000
v 0.400000 4.000000 -0.300000
v -0.200000 -0.000000 -0.400000
v -0.200000 1.200000 -0.400000
v -0.100000 2.700000 -0.400000
v -0.100000 3.000000 -0.400000
v -0.100000 3.500000 -0.400000
v -0.100000 4.000000 -0.400000
v 0.200000 -0.000000 -0.400000
v -0.100000 -0.000000 -0.500000
v -0.100000 1.200000 -0.500000
v -0.100000 3.500000 -0.500000
v 0.000000 1.200000 -0.500000
v 0.000000 1.300000 -0.500000
v 0.000000 3.000000 -0.500000
v 0.000000 3.200000 -0.500000
v 0.100000 3.200000 -0.500000
v 0.100000 3.500000 -0.500000
v 0.200000 2.700000 -0.500000
v 0.200000 4.000000 -0.500000
v -0.100000 0.000000 0.200000
v 0.000000 0.000000 0.200000
v 0.100000 0.000000 0.200000
v 0.200000 0.000000 0.200000
v 0.300000 0.000000 0.200000
v 0.400000 0.000000 0.200000
v -0.300000 0.000000 0.100000
v -0.200000 0.000000 0.100000
v -0.100000 0.000000 0.100000
v 0.000000 0.000000 0.100000
v 0.100000 0.000000 0.100000
v 0.200000 0.000000 0.100000
v 0.300000 0.000000 0.100000
v -0.200000 0.000000 0.000000
v -0.100000 0.000000 0.000000
v 0.000000 0.000000 0.000000
v 0.100000 0.000000 0.000000
v 0.200000 0.000000 0.000000
v 0.300000 0.000000 0.000000
v -0.200000 -0.000000 -0.100000
v -0.100000 -0.000000 -0.100000
v 0.000000 -0.000000 -0.100000
v 0.100000 -0.000000 -0.100000
v 0.200000 -0.000000 -0.100000
v 0.300000 -0.000000 -0.100000
v -0.400000 -0.000000 -0.200000
v -0.200000 -0.000000 -0.200000
v -0.100000 -0.000000 -0.200000
v 0.000000 -0.000000 -0.200000
v 0.100000 -0.000000 -0.200000
v 0.200000 -0.000000 -0.200000
v 0.300000 -0.000000 -0.200000
v 0.400000 -0.000000 -0.200000
v 0.500000 -0.000000 -0.200000
v -0.200000 -0.000000 -0.300000
v -0.100000 -0.000000 -0.300000
v 0.000000 -0.000000 -0.300000
v 0.100000 -0.000000 -0.300000
v 0.200000 -0.000000 -0.300000
v 0.400000 -0.000000 -0.300000
v -0.100000 -0.000000 -0.400000
v 0.300000 -0.000000 -0.400000
v -0.100000 2.700000 0.300000
v 0.200000 2.700000 0.300000
v 0.300000 2.700000 0.300000
v -0.100000 2.700000 0.200000
v -0.400000 2.700000 0.100000
v -0.200000 2.700000 -0.300000
v 0.200000 2.700000 -0.400000
v 0.300000 2.700000 -0.400000
v -0.100000 2.700000 -0.500000
v 0.200000 1.300000 0.400000
v -0.100000 1.300000 0.300000
v -0.300000 1.300000 0.200000
v 0.400000 1.300000 0.100000
v -0.400000 1.300000 -0.200000
v -0.300000 1.300000 -0.200000
v 0.400000 1.300000 -0.200000
v -0.300000 1.300000 -0.300000
v -0.100000 1.300000 -0.300000
v -0.200000 1.300000 -0.400000
v -0.100000 1.300000 -0.400000
v 0.000000 1.300000 -0.400000
v 0.200000 1.300000 -0.400000
v -0.100000 1.300000 -0.500000
v 0.200000 4.000000 0.300000
v 0.300000 4.000000 0.300000
v -0.200000 4.000000 0.200000
v -0.100000 4.000000 0.200000
v 0.000000 4.000000 0.200000
v 0.100000 4.000000 0.200000
v 0.200000 4.000000 0.200000
v 0.400000 4.000000 0.200000
v -0.400000 4.000000 0.100000
v -0.200000 4.000000 0.100000
v -0.100000 4.000000 0.100000
v 0.000000 4.000000 0.100000
v 0.100000 4.000000 0.100000
v 0.200000 4.000000 0.100000
v 0.300000 4.000000 0.100000
v -0.200000 4.000000 -0.000000
v -0.100000 4.000000 -0.000000
v 0.000000 4.000000 -0.000000
v 0.100000 4.000000 -0.000000
v 0.200000 4.000000 -0.000000
v 0.300000 4.000000 -0.000000
v -0.200000 4.000000 -0.100000
v -0.100000 4.000000 -0.100000
v 0.000000 4.000000 -0.100000
v 0.100000 4.000000 -0.100000
v 0.200000 4.000000 -0.100000
v 0.300000 4.000000 -0.100000
v -0.300000 4.000000 -0.200000
v -0.200000 4.000000 -0.200000
v -0.100000 4.000000 -0.200000
v 0.000000 4.000000 -0.200000
v 0.100000 4.000000 -0.200000
v 0.200000 4.000000 -0.200000
v 0.300000 4.000000 -0.200000
v 0.400000 4.000000 -0.200000
v -0.300000 4.000000 -0.300000
v -0.100000 4.000000 -0.300000
v 0.000000 4.000000 -0.300000
v 0.100000 4.000000 -0.300000
v 0.200000 4.000000 -0.300000
v 0.300000 4.000000 -0.400000
v -0.100000 4.000000 -0.500000
vn -1.0000 -0.0000 -0.0000
vn 1.0000 -0.0000 -0.0000
vn -0.0000 -0.0000 1.0000
vn -0.0000 -0.0000 -1.0000
vn -0.0000 -1.0000 -0.0000
vn -0.0000 1.0000 -0.0000
vt 0.888672 0.500000
vt 0.884766 0.500000
vt 0.876953 0.500000
s 0
usemtl palette.002
f 1/1/1 187/1/1 111/1/1
f 2/1/1 187/1/1 1/1/1
f 3/1/1 1/1/1 111/1/1
f 4/2/1 2/2/1 1/2/1
f 4/1/1 1/1/1 3/1/1
f 5/1/1 187/1/1 2/1/1
f 5/2/1 2/2/1 4/2/1
f 6/1/1 187/1/1 5/1/1
f 7/2/1 4/2/1 3/2/1
f 7/2/1 5/2/1 4/2/1
f 7/2/1 6/2/1 5/2/1
f 8/2/1 6/2/1 7/2/1
f 112/2/1 7/2/1 3/2/1
f 9/1/1 8/1/1 7/1/1
f 9/2/1 7/2/1 112/2/1
f 113/1/1 9/1/1 112/1/1
f 217/1/1 8/1/1 9/1/1
f 217/1/1 9/1/1 113/1/1
f 235/1/1 10/1/1 208/1/1
f 125/1/1 10/1/1 235/1/1
f 126/1/1 13/1/1 12/1/1
f 133/1/1 13/1/1 126/1/1
f 14/1/1 168/1/1 11/1/1
f 127/2/1 133/2/1 126/2/1
f 15/2/1 133/2/1 127/2/1
f 100/1/1 14/1/1 11/1/1
f 16/1/1 14/1/1 100/1/1
f 17/1/1 15/1/1 127/1/1
f 18/2/1 16/2/1 100/2/1
f 19/2/1 16/2/1 18/2/1
f 215/1/1 19/1/1 18/1/1
f 114/1/1 19/1/1 215/1/1
f 218/1/1 15/1/1 17/1/1
f 220/1/1 15/1/1 218/1/1
f 128/1/1 23/1/1 22/1/1
f 24/1/1 23/1/1 128/1/1
f 129/2/1 24/2/1 128/2/1
f 134/2/1 24/2/1 129/2/1
f 101/1/1 21/1/1 20/1/1
f 115/1/1 21/1/1 101/1/1
f 254/1/1 134/1/1 129/1/1
f 262/1/1 134/1/1 254/1/1
f 135/1/1 144/1/1 196/1/1
f 26/1/1 144/1/1 135/1/1
f 27/1/1 25/1/1 88/1/1
f 28/1/1 27/1/1 88/1/1
f 136/1/1 144/1/1 26/1/1
f 145/1/1 144/1/1 136/1/1
f 29/1/1 28/1/1 88/1/1
f 102/1/1 28/1/1 29/1/1
f 137/2/1 145/2/1 136/2/1
f 222/2/1 145/2/1 137/2/1
f 33/2/1 31/2/1 30/2/1
f 103/2/1 31/2/1 33/2/1
f 138/1/1 32/1/1 209/1/1
f 34/1/1 32/1/1 138/1/1
f 35/2/1 34/2/1 138/2/1
f 36/2/1 34/2/1 35/2/1
f 37/2/1 34/2/1 36/2/1
f 89/1/1 103/1/1 33/1/1
f 229/1/1 103/1/1 89/1/1
f 139/1/1 37/1/1 36/1/1
f 38/1/1 37/1/1 139/1/1
f 73/1/1 90/1/1 39/1/1
f 40/1/1 90/1/1 73/1/1
f 41/1/1 151/1/1 202/1/1
f 152/1/1 151/1/1 41/1/1
f 74/2/1 40/2/1 73/2/1
f 214/2/1 40/2/1 74/2/1
f 223/2/1 152/2/1 41/2/1
f 226/2/1 152/2/1 223/2/1
f 91/1/1 204/1/1 42/1/1
f 147/1/1 212/1/1 146/1/1
f 43/1/1 212/1/1 147/1/1
f 44/2/1 43/2/1 147/2/1
f 148/2/1 43/2/1 44/2/1
f 153/2/1 43/2/1 148/2/1
f 75/1/1 91/1/1 42/1/1
f 45/1/1 91/1/1 75/1/1
f 149/1/1 153/1/1 148/1/1
f 268/1/1 153/1/1 149/1/1
f 46/1/2 92/1/2 84/1/2
f 84/1/2 92/1/2 93/1/2
f 84/2/2 93/2/2 213/2/2
f 213/2/2 93/2/2 94/2/2
f 150/1/2 47/1/2 225/1/2
f 225/1/2 47/1/2 48/1/2
f 85/1/2 205/1/2 86/1/2
f 86/1/2 205/1/2 49/1/2
f 86/2/2 49/2/2 50/2/2
f 86/2/2 50/2/2 51/2/2
f 51/2/2 50/2/2 95/2/2
f 51/1/2 95/1/2 96/1/2
f 51/1/2 96/1/2 87/1/2
f 87/1/2 96/1/2 227/1/2
f 210/1/2 160/1/2 52/1/2
f 52/1/2 160/1/2 161/1/2
f 97/1/2 166/1/2 54/1/2
f 54/1/2 166/1/2 104/1/2
f 53/1/2 203/1/2 140/1/2
f 140/1/2 203/1/2 55/1/2
f 206/1/2 56/1/2 98/1/2
f 98/1/2 56/1/2 57/1/2
f 98/2/2 57/2/2 105/2/2
f 98/2/2 105/2/2 58/2/2
f 98/2/2 58/2/2 99/2/2
f 99/2/2 58/2/2 106/2/2
f 99/1/2 106/1/2 228/1/2
f 228/1/2 106/1/2 107/1/2
f 141/1/2 211/1/2 59/1/2
f 59/1/2 211/1/2 267/1/2
f 167/1/2 116/1/2 60/1/2
f 194/1/2 201/1/2 130/1/2
f 130/1/2 201/1/2 131/1/2
f 167/1/2 60/1/2 117/1/2
f 167/1/2 117/1/2 108/1/2
f 108/1/2 117/1/2 216/1/2
f 131/1/2 201/1/2 219/1/2
f 219/1/2 201/1/2 142/1/2
f 109/1/2 61/1/2 64/1/2
f 64/1/2 61/1/2 118/1/2
f 64/2/2 118/2/2 110/2/2
f 110/2/2 118/2/2 119/2/2
f 110/1/2 119/1/2 234/1/2
f 234/1/2 119/1/2 65/1/2
f 62/1/2 63/1/2 261/1/2
f 261/1/2 63/1/2 143/1/2
f 120/1/2 195/1/2 121/1/2
f 121/1/2 195/1/2 132/1/2
f 121/2/2 132/2/2 66/2/2
f 66/2/2 132/2/2 67/2/2
f 121/2/2 66/2/2 68/2/2
f 66/1/2 67/1/2 69/1/2
f 68/2/2 66/2/2 69/2/2
f 68/1/2 69/1/2 122/1/2
f 69/1/2 67/1/2 70/1/2
f 122/1/2 69/1/2 70/1/2
f 123/1/2 71/1/2 124/1/2
f 124/1/2 71/1/2 72/1/2
f 76/1/3 75/1/3 42/1/3
f 77/1/3 75/1/3 76/1/3
f 78/1/3 73/1/3 39/1/3
f 78/2/3 74/2/3 73/2/3
f 79/2/3 74/2/3 78/2/3
f 80/1/3 76/1/3 42/1/3
f 81/2/3 77/2/3 76/2/3
f 81/1/3 76/1/3 80/1/3
f 82/1/3 75/1/3 77/1/3
f 82/2/3 77/2/3 81/2/3
f 83/1/3 75/1/3 82/1/3
f 46/1/3 78/1/3 39/1/3
f 46/1/3 79/1/3 78/1/3
f 84/2/3 74/2/3 79/2/3
f 84/1/3 79/1/3 46/1/3
f 213/2/3 74/2/3 84/2/3
f 85/1/3 80/1/3 42/1/3
f 86/2/3 81/2/3 80/2/3
f 86/1/3 80/1/3 85/1/3
f 86/2/3 83/2/3 82/2/3
f 86/2/3 82/2/3 81/2/3
f 51/1/3 75/1/3 83/1/3
f 51/2/3 83/2/3 86/2/3
f 87/1/3 75/1/3 51/1/3
f 90/1/3 29/1/3 88/1/3
f 40/1/3 29/1/3 90/1/3
f 214/1/3 29/1/3 40/1/3
f 204/2/3 33/2/3 30/2/3
f 91/1/3 89/1/3 33/1/3
f 91/2/3 33/2/3 204/2/3
f 45/1/3 89/1/3 91/1/3
f 97/1/3 93/1/3 92/1/3
f 97/1/3 94/1/3 93/1/3
f 54/1/3 94/1/3 97/1/3
f 206/1/3 49/1/3 205/1/3
f 206/1/3 50/1/3 49/1/3
f 98/2/3 96/2/3 95/2/3
f 98/1/3 50/1/3 206/1/3
f 98/2/3 95/2/3 50/2/3
f 99/1/3 227/1/3 96/1/3
f 99/2/3 96/2/3 98/2/3
f 228/1/3 227/1/3 99/1/3
f 25/1/3 100/1/3 11/1/3
f 27/2/3 18/2/3 100/2/3
f 27/1/3 100/1/3 25/1/3
f 28/1/3 215/1/3 18/1/3
f 28/2/3 18/2/3 27/2/3
f 102/1/3 215/1/3 28/1/3
f 31/1/3 101/1/3 20/1/3
f 103/1/3 101/1/3 31/1/3
f 229/1/3 101/1/3 103/1/3
f 167/1/3 104/1/3 166/1/3
f 108/1/3 104/1/3 167/1/3
f 109/1/3 57/1/3 56/1/3
f 109/1/3 105/1/3 57/1/3
f 64/2/3 58/2/3 105/2/3
f 64/1/3 105/1/3 109/1/3
f 110/1/3 107/1/3 106/1/3
f 110/2/3 58/2/3 64/2/3
f 110/1/3 106/1/3 58/1/3
f 234/1/3 107/1/3 110/1/3
f 168/1/3 3/1/3 111/1/3
f 14/2/3 112/2/3 3/2/3
f 14/1/3 3/1/3 168/1/3
f 16/2/3 112/2/3 14/2/3
f 19/1/3 113/1/3 112/1/3
f 19/2/3 112/2/3 16/2/3
f 114/1/3 113/1/3 19/1/3
f 21/1/3 235/1/3 208/1/3
f 115/1/3 235/1/3 21/1/3
f 120/1/3 60/1/3 116/1/3
f 121/2/3 117/2/3 60/2/3
f 121/1/3 60/1/3 120/1/3
f 68/1/3 216/1/3 117/1/3
f 68/2/3 117/2/3 121/2/3
f 122/1/3 216/1/3 68/1/3
f 123/1/3 65/1/3 119/1/3
f 123/1/3 118/1/3 61/1/3
f 123/1/3 119/1/3 118/1/3
f 124/1/3 65/1/3 123/1/3
f 187/1/4 6/1/4 12/1/4
f 12/1/4 6/1/4 126/1/4
f 6/2/4 8/2/4 127/2/4
f 126/1/4 6/1/4 127/1/4
f 8/1/4 217/1/4 17/1/4
f 127/2/4 8/2/4 17/2/4
f 17/1/4 217/1/4 218/1/4
f 10/1/4 125/1/4 22/1/4
f 22/1/4 125/1/4 128/1/4
f 128/1/4 125/1/4 129/1/4
f 129/1/4 125/1/4 254/1/4
f 194/1/4 130/1/4 195/1/4
f 130/2/4 131/2/4 132/2/4
f 195/1/4 130/1/4 132/1/4
f 131/1/4 219/1/4 67/1/4
f 132/2/4 131/2/4 67/2/4
f 67/1/4 219/1/4 70/1/4
f 62/1/4 261/1/4 71/1/4
f 71/1/4 261/1/4 72/1/4
f 13/1/4 133/1/4 196/1/4
f 133/2/4 15/2/4 135/2/4
f 196/1/4 133/1/4 135/1/4
f 15/1/4 220/1/4 26/1/4
f 135/2/4 15/2/4 26/2/4
f 26/1/4 220/1/4 136/1/4
f 136/1/4 220/1/4 137/1/4
f 23/1/4 24/1/4 209/1/4
f 24/2/4 134/2/4 138/2/4
f 209/1/4 24/1/4 138/1/4
f 134/1/4 262/1/4 35/1/4
f 138/2/4 134/2/4 35/2/4
f 35/1/4 262/1/4 36/1/4
f 36/1/4 262/1/4 139/1/4
f 53/1/4 140/1/4 201/1/4
f 201/1/4 140/1/4 142/1/4
f 141/1/4 59/1/4 63/1/4
f 63/1/4 59/1/4 143/1/4
f 144/1/4 145/1/4 202/1/4
f 145/2/4 222/2/4 41/2/4
f 202/1/4 145/1/4 41/1/4
f 41/2/4 222/2/4 223/2/4
f 32/1/4 34/1/4 146/1/4
f 34/2/4 37/2/4 147/2/4
f 146/1/4 34/1/4 147/1/4
f 37/1/4 38/1/4 44/1/4
f 147/2/4 37/2/4 44/2/4
f 44/1/4 38/1/4 148/1/4
f 148/1/4 38/1/4 149/1/4
f 150/1/4 225/1/4 203/1/4
f 203/1/4 225/1/4 55/1/4
f 210/1/4 52/1/4 211/1/4
f 211/1/4 52/1/4 267/1/4
f 151/1/4 152/1/4 154/1/4
f 152/2/4 226/2/4 154/2/4
f 154/2/4 226/2/4 155/2/4
f 43/2/4 153/2/4 156/2/4
f 212/1/4 43/1/4 156/1/4
f 156/2/4 153/2/4 157/2/4
f 156/1/4 157/1/4 158/1/4
f 157/2/4 153/2/4 158/2/4
f 153/1/4 268/1/4 159/1/4
f 158/2/4 153/2/4 159/2/4
f 154/1/4 155/1/4 47/1/4
f 151/1/4 154/1/4 47/1/4
f 47/1/4 155/1/4 48/1/4
f 156/1/4 158/1/4 160/1/4
f 158/1/4 159/1/4 160/1/4
f 212/1/4 156/1/4 160/1/4
f 159/1/4 268/1/4 161/1/4
f 160/1/4 159/1/4 161/1/4
f 90/1/5 46/1/5 39/1/5
f 92/1/5 46/1/5 90/1/5
f 25/1/5 90/1/5 88/1/5
f 162/2/5 92/2/5 90/2/5
f 162/1/5 90/1/5 25/1/5
f 163/2/5 92/2/5 162/2/5
f 164/2/5 92/2/5 163/2/5
f 165/1/5 97/1/5 92/1/5
f 165/2/5 92/2/5 164/2/5
f 166/1/5 97/1/5 165/1/5
f 168/1/5 25/1/5 11/1/5
f 169/2/5 162/2/5 25/2/5
f 169/1/5 25/1/5 168/1/5
f 170/1/5 163/1/5 162/1/5
f 170/2/5 162/2/5 169/2/5
f 171/3/5 164/3/5 163/3/5
f 171/1/5 163/1/5 170/1/5
f 172/1/5 165/1/5 164/1/5
f 172/3/5 164/3/5 171/3/5
f 173/2/5 166/2/5 165/2/5
f 173/1/5 165/1/5 172/1/5
f 174/1/5 167/1/5 166/1/5
f 174/2/5 166/2/5 173/2/5
f 116/1/5 167/1/5 174/1/5
f 175/1/5 170/1/5 169/1/5
f 175/2/5 169/2/5 168/2/5
f 176/3/5 171/3/5 170/3/5
f 176/1/5 170/1/5 175/1/5
f 177/2/5 172/2/5 171/2/5
f 177/3/5 171/3/5 176/3/5
f 178/3/5 173/3/5 172/3/5
f 178/2/5 172/2/5 177/2/5
f 179/1/5 174/1/5 173/1/5
f 179/3/5 173/3/5 178/3/5
f 180/2/5 116/2/5 174/2/5
f 180/1/5 174/1/5 179/1/5
f 181/2/5 175/2/5 168/2/5
f 181/3/5 176/3/5 175/3/5
f 182/2/5 177/2/5 176/2/5
f 182/3/5 176/3/5 181/3/5
f 182/2/5 179/2/5 178/2/5
f 182/2/5 178/2/5 177/2/5
f 183/2/5 179/2/5 182/2/5
f 184/2/5 179/2/5 183/2/5
f 185/3/5 180/3/5 179/3/5
f 185/2/5 179/2/5 184/2/5
f 186/2/5 116/2/5 180/2/5
f 186/3/5 180/3/5 185/3/5
f 187/1/5 168/1/5 111/1/5
f 12/2/5 181/2/5 168/2/5
f 12/1/5 168/1/5 187/1/5
f 188/1/5 182/1/5 181/1/5
f 188/2/5 181/2/5 12/2/5
f 189/3/5 183/3/5 182/3/5
f 189/1/5 182/1/5 188/1/5
f 190/2/5 184/2/5 183/2/5
f 190/3/5 183/3/5 189/3/5
f 191/3/5 185/3/5 184/3/5
f 191/2/5 184/2/5 190/2/5
f 192/1/5 186/1/5 185/1/5
f 192/3/5 185/3/5 191/3/5
f 193/2/5 116/2/5 186/2/5
f 193/1/5 186/1/5 192/1/5
f 194/1/5 120/1/5 116/1/5
f 194/2/5 116/2/5 193/2/5
f 195/1/5 120/1/5 194/1/5
f 13/1/5 188/1/5 12/1/5
f 196/2/5 189/2/5 188/2/5
f 196/1/5 188/1/5 13/1/5
f 197/1/5 190/1/5 189/1/5
f 197/2/5 189/2/5 196/2/5
f 198/3/5 191/3/5 190/3/5
f 198/1/5 190/1/5 197/1/5
f 199/1/5 192/1/5 191/1/5
f 199/3/5 191/3/5 198/3/5
f 200/2/5 193/2/5 192/2/5
f 200/1/5 192/1/5 199/1/5
f 53/1/5 194/1/5 193/1/5
f 53/2/5 193/2/5 200/2/5
f 201/1/5 194/1/5 53/1/5
f 144/1/5 197/1/5 196/1/5
f 202/2/5 199/2/5 198/2/5
f 202/1/5 197/1/5 144/1/5
f 202/2/5 198/2/5 197/2/5
f 202/2/5 200/2/5 199/2/5
f 150/1/5 53/1/5 200/1/5
f 150/2/5 200/2/5 202/2/5
f 203/1/5 53/1/5 150/1/5
f 151/1/5 150/1/5 202/1/5
f 47/1/5 150/1/5 151/1/5
f 204/1/5 85/1/5 42/1/5
f 205/1/5 85/1/5 204/1/5
f 31/2/5 204/2/5 30/2/5
f 207/1/5 206/1/5 205/1/5
f 207/1/5 205/1/5 204/1/5
f 207/2/5 204/2/5 31/2/5
f 56/1/5 206/1/5 207/1/5
f 21/1/5 31/1/5 20/1/5
f 21/1/5 109/1/5 56/1/5
f 21/1/5 56/1/5 207/1/5
f 21/1/5 207/1/5 31/1/5
f 61/1/5 109/1/5 21/1/5
f 10/1/5 21/1/5 208/1/5
f 10/1/5 123/1/5 61/1/5
f 10/1/5 61/1/5 21/1/5
f 22/1/5 123/1/5 10/1/5
f 62/1/5 123/1/5 22/1/5
f 71/1/5 123/1/5 62/1/5
f 23/1/5 62/1/5 22/1/5
f 209/1/5 62/1/5 23/1/5
f 141/1/5 62/1/5 209/1/5
f 63/1/5 62/1/5 141/1/5
f 32/1/5 141/1/5 209/1/5
f 146/1/5 141/1/5 32/1/5
f 210/1/5 141/1/5 146/1/5
f 211/1/5 141/1/5 210/1/5
f 212/1/5 210/1/5 146/1/5
f 160/1/5 210/1/5 212/1/5
f 74/2/6 213/2/6 214/2/6
f 214/2/6 213/2/6 94/2/6
f 29/1/6 214/1/6 102/1/6
f 94/1/6 54/1/6 102/1/6
f 214/1/6 94/1/6 102/1/6
f 102/1/6 54/1/6 104/1/6
f 215/1/6 102/1/6 114/1/6
f 104/1/6 108/1/6 114/1/6
f 102/1/6 104/1/6 114/1/6
f 114/1/6 108/1/6 216/1/6
f 113/1/6 114/1/6 217/1/6
f 216/1/6 122/1/6 217/1/6
f 114/1/6 216/1/6 217/1/6
f 217/1/6 122/1/6 218/1/6
f 218/1/6 122/1/6 219/1/6
f 219/1/6 122/1/6 70/1/6
f 218/1/6 219/1/6 220/1/6
f 220/1/6 219/1/6 137/1/6
f 137/1/6 219/1/6 221/1/6
f 221/1/6 219/1/6 140/1/6
f 140/1/6 219/1/6 142/1/6
f 137/2/6 221/2/6 222/2/6
f 221/1/6 140/1/6 223/1/6
f 222/2/6 221/2/6 223/2/6
f 223/1/6 140/1/6 224/1/6
f 224/1/6 140/1/6 225/1/6
f 225/1/6 140/1/6 55/1/6
f 223/2/6 224/2/6 226/2/6
f 224/1/6 225/1/6 155/1/6
f 226/2/6 224/2/6 155/2/6
f 155/1/6 225/1/6 48/1/6
f 75/1/6 87/1/6 45/1/6
f 45/1/6 87/1/6 227/1/6
f 89/1/6 45/1/6 229/1/6
f 45/2/6 227/2/6 230/2/6
f 229/1/6 45/1/6 230/1/6
f 230/2/6 227/2/6 231/2/6
f 231/2/6 227/2/6 232/2/6
f 227/1/6 228/1/6 233/1/6
f 232/2/6 227/2/6 233/2/6
f 233/1/6 228/1/6 107/1/6
f 101/1/6 229/1/6 115/1/6
f 229/2/6 230/2/6 236/2/6
f 115/1/6 229/1/6 236/1/6
f 230/1/6 231/1/6 237/1/6
f 236/2/6 230/2/6 237/2/6
f 231/3/6 232/3/6 238/3/6
f 237/1/6 231/1/6 238/1/6
f 232/1/6 233/1/6 239/1/6
f 238/3/6 232/3/6 239/3/6
f 233/2/6 107/2/6 240/2/6
f 239/1/6 233/1/6 240/1/6
f 107/1/6 234/1/6 241/1/6
f 240/2/6 107/2/6 241/2/6
f 241/1/6 234/1/6 65/1/6
f 236/1/6 237/1/6 242/1/6
f 115/2/6 236/2/6 242/2/6
f 237/3/6 238/3/6 243/3/6
f 242/1/6 237/1/6 243/1/6
f 238/2/6 239/2/6 244/2/6
f 243/3/6 238/3/6 244/3/6
f 239/3/6 240/3/6 245/3/6
f 244/2/6 239/2/6 245/2/6
f 240/1/6 241/1/6 246/1/6
f 245/3/6 240/3/6 246/3/6
f 241/2/6 65/2/6 247/2/6
f 246/1/6 241/1/6 247/1/6
f 115/2/6 242/2/6 248/2/6
f 242/3/6 243/3/6 248/3/6
f 243/2/6 244/2/6 249/2/6
f 248/3/6 243/3/6 249/3/6
f 245/2/6 246/2/6 249/2/6
f 244/2/6 245/2/6 249/2/6
f 249/2/6 246/2/6 250/2/6
f 250/2/6 246/2/6 251/2/6
f 246/3/6 247/3/6 252/3/6
f 251/2/6 246/2/6 252/2/6
f 247/2/6 65/2/6 253/2/6
f 252/3/6 247/3/6 253/3/6
f 235/1/6 115/1/6 125/1/6
f 115/2/6 248/2/6 254/2/6
f 125/1/6 115/1/6 254/1/6
f 248/1/6 249/1/6 255/1/6
f 254/2/6 248/2/6 255/2/6
f 249/3/6 250/3/6 256/3/6
f 255/1/6 249/1/6 256/1/6
f 250/2/6 251/2/6 257/2/6
f 256/3/6 250/3/6 257/3/6
f 251/3/6 252/3/6 258/3/6
f 257/2/6 251/2/6 258/2/6
f 252/1/6 253/1/6 259/1/6
f 258/3/6 252/3/6 259/3/6
f 253/2/6 65/2/6 260/2/6
f 259/1/6 253/1/6 260/1/6
f 65/1/6 124/1/6 261/1/6
f 260/2/6 65/2/6 261/2/6
f 261/1/6 124/1/6 72/1/6
f 254/1/6 255/1/6 262/1/6
f 255/2/6 256/2/6 139/2/6
f 262/1/6 255/1/6 139/1/6
f 256/1/6 257/1/6 263/1/6
f 139/2/6 256/2/6 263/2/6
f 257/3/6 258/3/6 264/3/6
f 263/1/6 257/1/6 264/1/6
f 258/1/6 259/1/6 265/1/6
f 264/3/6 258/3/6 265/3/6
f 259/2/6 260/2/6 266/2/6
f 265/1/6 259/1/6 266/1/6
f 260/1/6 261/1/6 59/1/6
f 266/2/6 260/2/6 59/2/6
f 59/1/6 261/1/6 143/1/6
f 139/1/6 263/1/6 38/1/6
f 264/2/6 265/2/6 149/2/6
f 38/1/6 263/1/6 149/1/6
f 263/2/6 264/2/6 149/2/6
f 265/2/6 266/2/6 149/2/6
f 266/1/6 59/1/6 52/1/6
f 149/2/6 266/2/6 52/2/6
f 52/1/6 59/1/6 267/1/6
f 149/1/6 52/1/6 268/1/6
f 268/1/6 52/1/6 161/1/6
