# Blender 3.6.1
# www.blender.org
mtllib Stone Wall 1.mtl
o Stone_Wall_1
v -2.000000 0.000000 0.600000
v -2.000000 -0.000000 -0.700000
v -2.000000 1.200000 0.300000
v -2.000000 1.200000 -0.300000
v -2.000000 1.300000 -0.200000
v -1.900000 1.300000 -0.200000
v -1.900000 1.300000 -0.300000
v -1.900000 1.400000 -0.200000
v -0.700000 1.000000 0.600000
v -0.700000 1.000000 0.300000
v -0.700000 1.000000 -0.400000
v -0.500000 1.100000 0.600000
v -0.500000 1.100000 -0.400000
v -0.500000 1.200000 0.200000
v -0.500000 1.300000 0.100000
v -0.400000 1.300000 -0.000000
v -0.400000 1.300000 -0.500000
v -0.400000 1.400000 -0.000000
v -0.400000 1.400000 -0.400000
v -0.300000 1.200000 -0.500000
v -0.300000 1.300000 0.600000
v -0.300000 1.300000 0.100000
v -0.100000 1.300000 0.100000
v -0.100000 1.300000 -0.500000
v -0.100000 1.400000 0.600000
v -0.100000 1.400000 0.100000
v -0.100000 1.400000 -0.700000
v -0.100000 1.500000 -0.400000
v -0.100000 1.600000 -0.400000
v 0.300000 1.500000 -0.000000
v 0.300000 1.600000 0.100000
v 0.700000 1.400000 0.200000
v 0.700000 1.400000 0.100000
v 0.700000 1.500000 0.100000
v 0.700000 1.500000 -0.000000
v 0.700000 1.600000 0.100000
v 1.000000 1.400000 0.200000
v 1.000000 1.400000 -0.400000
v 1.000000 1.500000 0.600000
v 1.000000 1.500000 -0.300000
v 1.000000 1.500000 -0.400000
v 1.000000 1.700000 -0.300000
v 1.200000 1.600000 -0.400000
v 1.300000 1.600000 0.300000
v 1.300000 1.600000 0.200000
v 1.300000 1.700000 0.200000
v 1.300000 1.900000 0.200000
v 1.300000 1.900000 -0.300000
v 1.400000 1.600000 0.300000
v 1.400000 1.600000 -0.700000
v 1.400000 1.700000 0.600000
v 1.400000 1.700000 0.200000
v 1.400000 1.700000 -0.400000
v 1.400000 1.800000 0.300000
v 1.400000 1.800000 -0.400000
v 1.500000 1.700000 0.600000
v 1.500000 1.800000 0.600000
v 1.500000 1.800000 -0.700000
v 1.500000 1.900000 0.300000
v 1.500000 1.900000 0.200000
v 1.600000 2.100000 -0.200000
v 1.700000 1.800000 0.300000
v 1.700000 1.800000 -0.300000
v 1.700000 1.800000 -0.700000
v 1.700000 1.900000 -0.200000
v 1.700000 2.000000 0.200000
v 1.800000 2.100000 0.200000
v 1.800000 2.200000 -0.200000
v 1.900000 1.900000 0.300000
v 1.900000 2.000000 0.600000
v 1.900000 2.100000 -0.200000
v -1.700000 1.200000 0.600000
v -1.700000 1.300000 0.200000
v -1.700000 1.300000 -0.400000
v -1.100000 1.000000 0.300000
v -1.100000 1.100000 -0.400000
v -1.100000 1.100000 -0.700000
v -0.700000 1.300000 0.200000
v -0.400000 1.200000 0.100000
v 0.600000 1.500000 -0.400000
v 0.600000 1.600000 -0.400000
v 2.000000 2.000000 -0.300000
v 2.000000 2.100000 0.200000
v 2.000000 2.100000 -0.300000
v 2.000000 2.200000 -0.200000
v -2.000000 1.200000 0.600000
v -0.700000 1.100000 0.600000
v 1.200000 1.500000 0.600000
v 1.400000 1.600000 0.600000
v 2.000000 2.000000 0.600000
v -2.000000 1.300000 0.300000
v -1.700000 1.100000 0.300000
v -1.700000 1.300000 0.300000
v -1.100000 1.100000 0.300000
v -1.100000 1.200000 0.300000
v -0.700000 1.100000 0.300000
v 1.400000 1.700000 0.300000
v 1.500000 1.700000 0.300000
v 1.700000 2.000000 0.300000
v 1.900000 2.100000 0.300000
v 2.000000 2.000000 0.300000
v 2.000000 2.100000 0.300000
v -2.000000 1.300000 0.200000
v -2.000000 1.400000 0.200000
v -1.700000 1.200000 0.200000
v -1.100000 1.100000 0.200000
v -1.100000 1.200000 0.200000
v -0.700000 1.200000 0.200000
v 1.000000 1.500000 0.200000
v 1.000000 1.600000 0.200000
v 1.200000 1.500000 0.200000
v 1.400000 1.800000 0.200000
v 1.400000 2.000000 0.200000
v 1.500000 1.800000 0.200000
v 1.700000 1.900000 0.200000
v 1.900000 2.000000 0.200000
v -0.700000 1.300000 0.100000
v -0.400000 1.300000 0.100000
v -0.300000 1.400000 0.100000
v -0.100000 1.500000 0.100000
v 0.300000 1.500000 0.100000
v 0.400000 1.500000 0.100000
v 0.400000 1.600000 0.100000
v 1.200000 1.700000 0.100000
v 1.200000 1.800000 0.100000
v 1.300000 1.700000 0.100000
v -0.300000 1.300000 -0.000000
v -0.300000 1.400000 -0.000000
v -0.300000 1.500000 -0.000000
v -0.100000 1.400000 -0.000000
v -0.100000 1.500000 -0.000000
v -0.100000 1.600000 -0.000000
v 0.400000 1.500000 -0.000000
v 0.700000 1.600000 -0.000000
v -0.700000 1.200000 -0.300000
v -0.500000 1.100000 -0.300000
v -0.700000 1.100000 0.100000
v -0.700000 1.200000 0.100000
v -0.500000 1.100000 0.100000
v -2.000000 1.400000 -0.200000
v 1.700000 2.000000 -0.200000
v -2.000000 1.300000 -0.300000
v -1.900000 1.200000 -0.300000
v -1.700000 1.300000 -0.300000
v -1.700000 1.400000 -0.300000
v 0.600000 1.600000 -0.300000
v 1.200000 1.700000 -0.300000
v 1.200000 1.800000 -0.300000
v 1.300000 1.800000 -0.300000
v 1.400000 1.700000 -0.300000
v 1.400000 1.800000 -0.300000
v 1.700000 1.900000 -0.300000
v 1.700000 2.000000 -0.300000
v 1.900000 1.900000 -0.300000
v 1.900000 2.100000 -0.300000
v -1.900000 1.200000 -0.400000
v -1.900000 1.300000 -0.400000
v -0.700000 1.100000 -0.400000
v -0.500000 1.300000 -0.400000
v -0.300000 1.400000 -0.400000
v -0.100000 1.400000 -0.400000
v 1.200000 1.700000 -0.400000
v 1.500000 1.700000 -0.400000
v 1.500000 1.800000 -0.400000
v -0.300000 1.400000 -0.500000
v -0.100000 1.400000 -0.500000
v -1.700000 1.100000 -0.700000
v -1.700000 1.200000 -0.700000
v -0.700000 1.100000 -0.700000
v -0.300000 1.200000 -0.700000
v -0.300000 1.300000 -0.700000
v 1.500000 1.700000 -0.700000
v 2.000000 2.000000 -0.700000
v 2.000000 0.000000 0.600000
v 2.000000 -0.000000 -0.700000
v -0.500000 1.200000 0.100000
v -0.500000 1.200000 -0.300000
v -1.100000 1.000000 0.600000
v -1.100000 1.000000 -0.400000
v -1.100000 1.000000 -0.700000
v -0.700000 1.000000 -0.700000
v -1.700000 1.100000 0.600000
v -1.100000 1.100000 0.600000
v -0.500000 1.100000 0.200000
v -0.700000 1.100000 -0.300000
v -1.700000 1.100000 -0.400000
v -0.500000 1.100000 -0.700000
v -0.500000 1.200000 0.600000
v -0.300000 1.200000 0.600000
v -1.700000 1.200000 0.300000
v -0.400000 1.200000 0.200000
v -0.300000 1.200000 0.100000
v -1.700000 1.200000 -0.300000
v -1.700000 1.200000 -0.400000
v -0.500000 1.200000 -0.400000
v -0.400000 1.200000 -0.400000
v -0.400000 1.200000 -0.500000
v -2.000000 1.200000 -0.700000
v -0.500000 1.200000 -0.700000
v -0.100000 1.300000 0.600000
v -0.500000 1.300000 0.200000
v -0.400000 1.300000 0.200000
v -0.500000 1.300000 -0.300000
v -0.400000 1.300000 -0.400000
v -0.300000 1.300000 -0.400000
v -0.300000 1.300000 -0.500000
v -0.100000 1.300000 -0.700000
v 1.000000 1.400000 0.600000
v -1.700000 1.400000 0.200000
v -1.900000 1.400000 -0.300000
v 0.600000 1.400000 -0.400000
v 0.600000 1.400000 -0.500000
v 1.000000 1.400000 -0.700000
v 0.700000 1.500000 0.200000
v 1.000000 1.500000 0.100000
v 0.600000 1.500000 -0.300000
v -0.300000 1.500000 -0.400000
v 1.200000 1.500000 -0.400000
v -0.100000 1.500000 -0.500000
v 0.600000 1.500000 -0.500000
v 1.000000 1.500000 -0.700000
v 1.200000 1.500000 -0.700000
v 1.200000 1.600000 0.600000
v 1.200000 1.600000 0.200000
v 1.000000 1.600000 0.100000
v 1.200000 1.600000 0.100000
v 0.300000 1.600000 -0.000000
v 0.400000 1.600000 -0.000000
v 1.000000 1.600000 -0.300000
v 1.200000 1.600000 -0.300000
v 1.000000 1.600000 -0.400000
v 1.400000 1.600000 -0.400000
v 1.200000 1.600000 -0.700000
v 1.300000 1.700000 0.300000
v 1.200000 1.700000 0.200000
v 1.000000 1.700000 0.100000
v 1.400000 1.700000 -0.700000
v 1.700000 1.800000 0.600000
v 1.500000 1.800000 0.300000
v 1.300000 1.800000 0.100000
v 1.700000 1.900000 0.600000
v 1.900000 1.900000 0.600000
v 1.700000 1.900000 0.300000
v 1.400000 1.900000 0.200000
v 1.400000 1.900000 -0.200000
v 1.700000 1.900000 -0.700000
v 1.900000 1.900000 -0.700000
v 1.900000 2.000000 0.300000
v 1.600000 2.000000 0.200000
v 1.400000 2.000000 -0.200000
v 1.600000 2.000000 -0.200000
v 1.900000 2.000000 -0.200000
v 1.900000 2.000000 -0.300000
v 1.900000 2.000000 -0.700000
v 1.600000 2.100000 0.200000
v 1.900000 2.100000 0.200000
v 1.800000 2.100000 -0.200000
v 2.000000 2.100000 -0.200000
v 1.800000 2.200000 0.200000
v 2.000000 2.200000 0.200000
vn -1.0000 -0.0000 -0.0000
vn 1.0000 -0.0000 -0.0000
vn -0.0000 -0.0000 1.0000
vn -0.0000 -0.0000 -1.0000
vn -0.0000 -1.0000 -0.0000
vn -0.0000 1.0000 -0.0000
vt 0.955078 0.500000
s 0
usemtl palette.006
f 86/1/1 2/1/1 1/1/1
f 3/1/1 2/1/1 86/1/1
f 4/1/1 2/1/1 3/1/1
f 198/1/1 2/1/1 4/1/1
f 91/1/1 4/1/1 3/1/1
f 103/1/1 4/1/1 91/1/1
f 5/1/1 4/1/1 103/1/1
f 142/1/1 4/1/1 5/1/1
f 104/1/1 5/1/1 103/1/1
f 140/1/1 5/1/1 104/1/1
f 7/1/1 156/1/1 143/1/1
f 157/1/1 156/1/1 7/1/1
f 8/1/1 7/1/1 6/1/1
f 210/1/1 7/1/1 8/1/1
f 87/1/1 10/1/1 9/1/1
f 96/1/1 10/1/1 87/1/1
f 158/1/1 181/1/1 11/1/1
f 169/1/1 181/1/1 158/1/1
f 188/1/1 184/1/1 12/1/1
f 14/1/1 184/1/1 188/1/1
f 176/1/1 136/1/1 139/1/1
f 177/1/1 136/1/1 176/1/1
f 195/1/1 187/1/1 13/1/1
f 199/1/1 187/1/1 195/1/1
f 201/1/1 176/1/1 14/1/1
f 15/1/1 176/1/1 201/1/1
f 203/1/1 195/1/1 177/1/1
f 159/1/1 195/1/1 203/1/1
f 204/1/1 197/1/1 196/1/1
f 17/1/1 197/1/1 204/1/1
f 18/1/1 204/1/1 16/1/1
f 19/1/1 204/1/1 18/1/1
f 21/1/1 192/1/1 189/1/1
f 22/1/1 192/1/1 21/1/1
f 206/1/1 170/1/1 20/1/1
f 171/1/1 170/1/1 206/1/1
f 119/1/1 127/1/1 22/1/1
f 128/1/1 127/1/1 119/1/1
f 160/1/1 206/1/1 205/1/1
f 165/1/1 206/1/1 160/1/1
f 129/1/1 160/1/1 128/1/1
f 217/1/1 160/1/1 129/1/1
f 25/1/1 23/1/1 200/1/1
f 26/1/1 23/1/1 25/1/1
f 166/1/1 207/1/1 24/1/1
f 27/1/1 207/1/1 166/1/1
f 120/1/1 130/1/1 26/1/1
f 131/1/1 130/1/1 120/1/1
f 28/1/1 166/1/1 161/1/1
f 219/1/1 166/1/1 28/1/1
f 132/1/1 28/1/1 131/1/1
f 29/1/1 28/1/1 132/1/1
f 31/1/1 30/1/1 121/1/1
f 227/1/1 30/1/1 31/1/1
f 214/1/1 33/1/1 32/1/1
f 34/1/1 33/1/1 214/1/1
f 36/1/1 35/1/1 34/1/1
f 134/1/1 35/1/1 36/1/1
f 39/1/1 37/1/1 208/1/1
f 109/1/1 37/1/1 39/1/1
f 41/1/1 213/1/1 38/1/1
f 221/1/1 213/1/1 41/1/1
f 110/1/1 215/1/1 109/1/1
f 225/1/1 215/1/1 110/1/1
f 229/1/1 41/1/1 40/1/1
f 231/1/1 41/1/1 229/1/1
f 236/1/1 229/1/1 225/1/1
f 42/1/1 229/1/1 236/1/1
f 223/1/1 111/1/1 88/1/1
f 224/1/1 111/1/1 223/1/1
f 43/1/1 222/1/1 218/1/1
f 233/1/1 222/1/1 43/1/1
f 235/1/1 226/1/1 224/1/1
f 124/1/1 226/1/1 235/1/1
f 147/1/1 43/1/1 230/1/1
f 162/1/1 43/1/1 147/1/1
f 125/1/1 147/1/1 124/1/1
f 148/1/1 147/1/1 125/1/1
f 234/1/1 45/1/1 44/1/1
f 46/1/1 45/1/1 234/1/1
f 240/1/1 126/1/1 46/1/1
f 47/1/1 240/1/1 46/1/1
f 47/1/1 149/1/1 240/1/1
f 48/1/1 149/1/1 47/1/1
f 51/1/1 49/1/1 89/1/1
f 97/1/1 49/1/1 51/1/1
f 53/1/1 50/1/1 232/1/1
f 237/1/1 50/1/1 53/1/1
f 54/1/1 52/1/1 97/1/1
f 112/1/1 52/1/1 54/1/1
f 151/1/1 53/1/1 150/1/1
f 55/1/1 53/1/1 151/1/1
f 113/1/1 245/1/1 244/1/1
f 250/1/1 245/1/1 113/1/1
f 57/1/1 98/1/1 56/1/1
f 239/1/1 98/1/1 57/1/1
f 164/1/1 172/1/1 163/1/1
f 58/1/1 172/1/1 164/1/1
f 59/1/1 114/1/1 239/1/1
f 60/1/1 114/1/1 59/1/1
f 255/1/1 251/1/1 249/1/1
f 61/1/1 251/1/1 255/1/1
f 241/1/1 62/1/1 238/1/1
f 243/1/1 62/1/1 241/1/1
f 152/1/1 64/1/1 63/1/1
f 246/1/1 64/1/1 152/1/1
f 99/1/1 115/1/1 243/1/1
f 66/1/1 115/1/1 99/1/1
f 141/1/1 152/1/1 65/1/1
f 153/1/1 152/1/1 141/1/1
f 259/1/1 257/1/1 67/1/1
f 68/1/1 257/1/1 259/1/1
f 70/1/1 69/1/1 242/1/1
f 248/1/1 69/1/1 70/1/1
f 253/1/1 247/1/1 154/1/1
f 254/1/1 247/1/1 253/1/1
f 100/1/1 116/1/1 248/1/1
f 256/1/1 116/1/1 100/1/1
f 71/1/1 253/1/1 252/1/1
f 155/1/1 253/1/1 71/1/1
f 182/1/2 92/1/2 72/1/2
f 72/1/2 92/1/2 190/1/2
f 186/1/2 167/1/2 194/1/2
f 194/1/2 167/1/2 168/1/2
f 190/1/2 105/1/2 93/1/2
f 93/1/2 105/1/2 73/1/2
f 193/1/2 194/1/2 144/1/2
f 144/1/2 194/1/2 74/1/2
f 73/1/2 144/1/2 209/1/2
f 209/1/2 144/1/2 145/1/2
f 178/1/2 75/1/2 183/1/2
f 183/1/2 75/1/2 94/1/2
f 179/1/2 180/1/2 76/1/2
f 76/1/2 180/1/2 77/1/2
f 94/1/2 106/1/2 95/1/2
f 95/1/2 106/1/2 107/1/2
f 137/1/2 185/1/2 138/1/2
f 138/1/2 185/1/2 135/1/2
f 108/1/2 138/1/2 78/1/2
f 78/1/2 138/1/2 117/1/2
f 191/1/2 79/1/2 202/1/2
f 202/1/2 79/1/2 118/1/2
f 122/1/2 133/1/2 123/1/2
f 123/1/2 133/1/2 228/1/2
f 211/1/2 212/1/2 80/1/2
f 80/1/2 212/1/2 220/1/2
f 216/1/2 80/1/2 146/1/2
f 146/1/2 80/1/2 81/1/2
f 174/1/2 175/1/2 90/1/2
f 90/1/2 175/1/2 101/1/2
f 101/1/2 175/1/2 82/1/2
f 82/1/2 175/1/2 173/1/2
f 101/1/2 82/1/2 102/1/2
f 102/1/2 82/1/2 83/1/2
f 83/1/2 82/1/2 258/1/2
f 258/1/2 82/1/2 84/1/2
f 83/1/2 258/1/2 260/1/2
f 260/1/2 258/1/2 85/1/2
f 182/1/3 86/1/3 1/1/3
f 72/1/3 86/1/3 182/1/3
f 178/1/3 182/1/3 1/1/3
f 183/1/3 182/1/3 178/1/3
f 9/1/3 178/1/3 1/1/3
f 12/1/3 87/1/3 9/1/3
f 189/1/3 188/1/3 12/1/3
f 200/1/3 21/1/3 189/1/3
f 208/1/3 25/1/3 200/1/3
f 88/1/3 39/1/3 208/1/3
f 89/1/3 223/1/3 88/1/3
f 56/1/3 51/1/3 89/1/3
f 238/1/3 57/1/3 56/1/3
f 242/1/3 241/1/3 238/1/3
f 174/1/3 189/1/3 12/1/3
f 174/1/3 70/1/3 242/1/3
f 174/1/3 242/1/3 238/1/3
f 174/1/3 238/1/3 56/1/3
f 174/1/3 56/1/3 89/1/3
f 174/1/3 89/1/3 88/1/3
f 174/1/3 88/1/3 208/1/3
f 174/1/3 208/1/3 200/1/3
f 174/1/3 200/1/3 189/1/3
f 174/1/3 9/1/3 1/1/3
f 174/1/3 12/1/3 9/1/3
f 90/1/3 70/1/3 174/1/3
f 190/1/3 91/1/3 3/1/3
f 93/1/3 91/1/3 190/1/3
f 94/1/3 190/1/3 92/1/3
f 95/1/3 190/1/3 94/1/3
f 10/1/3 94/1/3 75/1/3
f 96/1/3 94/1/3 10/1/3
f 49/1/3 234/1/3 44/1/3
f 97/1/3 234/1/3 49/1/3
f 98/1/3 54/1/3 97/1/3
f 239/1/3 54/1/3 98/1/3
f 62/1/3 59/1/3 239/1/3
f 243/1/3 59/1/3 62/1/3
f 69/1/3 99/1/3 243/1/3
f 248/1/3 99/1/3 69/1/3
f 101/1/3 100/1/3 248/1/3
f 102/1/3 100/1/3 101/1/3
f 73/1/3 104/1/3 103/1/3
f 209/1/3 104/1/3 73/1/3
f 107/1/3 73/1/3 105/1/3
f 108/1/3 73/1/3 107/1/3
f 108/1/3 107/1/3 106/1/3
f 78/1/3 73/1/3 108/1/3
f 184/1/3 108/1/3 106/1/3
f 14/1/3 108/1/3 184/1/3
f 191/1/3 201/1/3 14/1/3
f 202/1/3 201/1/3 191/1/3
f 37/1/3 214/1/3 32/1/3
f 109/1/3 214/1/3 37/1/3
f 111/1/3 110/1/3 109/1/3
f 224/1/3 110/1/3 111/1/3
f 45/1/3 235/1/3 224/1/3
f 46/1/3 235/1/3 45/1/3
f 52/1/3 47/1/3 46/1/3
f 112/1/3 47/1/3 52/1/3
f 244/1/3 47/1/3 112/1/3
f 114/1/3 113/1/3 244/1/3
f 114/1/3 244/1/3 112/1/3
f 60/1/3 113/1/3 114/1/3
f 249/1/3 113/1/3 60/1/3
f 115/1/3 249/1/3 60/1/3
f 115/1/3 255/1/3 249/1/3
f 66/1/3 255/1/3 115/1/3
f 67/1/3 255/1/3 66/1/3
f 116/1/3 67/1/3 66/1/3
f 116/1/3 259/1/3 67/1/3
f 256/1/3 259/1/3 116/1/3
f 83/1/3 259/1/3 256/1/3
f 260/1/3 259/1/3 83/1/3
f 176/1/3 117/1/3 138/1/3
f 15/1/3 117/1/3 176/1/3
f 192/1/3 118/1/3 79/1/3
f 22/1/3 118/1/3 192/1/3
f 23/1/3 119/1/3 22/1/3
f 26/1/3 119/1/3 23/1/3
f 121/1/3 120/1/3 26/1/3
f 122/1/3 121/1/3 26/1/3
f 122/1/3 31/1/3 121/1/3
f 123/1/3 31/1/3 122/1/3
f 33/1/3 122/1/3 26/1/3
f 34/1/3 122/1/3 33/1/3
f 215/1/3 36/1/3 34/1/3
f 225/1/3 36/1/3 215/1/3
f 226/1/3 236/1/3 225/1/3
f 124/1/3 236/1/3 226/1/3
f 126/1/3 125/1/3 124/1/3
f 240/1/3 125/1/3 126/1/3
f 127/1/3 18/1/3 16/1/3
f 128/1/3 18/1/3 127/1/3
f 130/1/3 129/1/3 128/1/3
f 131/1/3 129/1/3 130/1/3
f 30/1/3 132/1/3 131/1/3
f 227/1/3 132/1/3 30/1/3
f 35/1/3 228/1/3 133/1/3
f 134/1/3 228/1/3 35/1/3
f 136/1/3 135/1/3 185/1/3
f 177/1/3 135/1/3 136/1/3
f 137/1/4 138/1/4 139/1/4
f 139/1/4 138/1/4 176/1/4
f 5/1/4 140/1/4 6/1/4
f 6/1/4 140/1/4 8/1/4
f 245/1/4 250/1/4 251/1/4
f 245/1/4 251/1/4 65/1/4
f 251/1/4 61/1/4 65/1/4
f 65/1/4 61/1/4 141/1/4
f 141/1/4 61/1/4 257/1/4
f 141/1/4 257/1/4 252/1/4
f 257/1/4 68/1/4 252/1/4
f 252/1/4 68/1/4 71/1/4
f 71/1/4 68/1/4 258/1/4
f 258/1/4 68/1/4 85/1/4
f 4/1/4 142/1/4 143/1/4
f 143/1/4 142/1/4 7/1/4
f 7/1/4 210/1/4 144/1/4
f 144/1/4 210/1/4 145/1/4
f 193/1/4 144/1/4 177/1/4
f 177/1/4 144/1/4 203/1/4
f 216/1/4 146/1/4 40/1/4
f 40/1/4 146/1/4 229/1/4
f 229/1/4 42/1/4 230/1/4
f 230/1/4 42/1/4 147/1/4
f 147/1/4 148/1/4 149/1/4
f 147/1/4 149/1/4 150/1/4
f 149/1/4 48/1/4 150/1/4
f 150/1/4 48/1/4 151/1/4
f 151/1/4 48/1/4 63/1/4
f 63/1/4 48/1/4 152/1/4
f 152/1/4 153/1/4 154/1/4
f 154/1/4 153/1/4 253/1/4
f 253/1/4 155/1/4 82/1/4
f 82/1/4 155/1/4 84/1/4
f 156/1/4 157/1/4 194/1/4
f 194/1/4 157/1/4 74/1/4
f 186/1/4 194/1/4 76/1/4
f 179/1/4 76/1/4 11/1/4
f 76/1/4 194/1/4 158/1/4
f 11/1/4 76/1/4 158/1/4
f 158/1/4 194/1/4 13/1/4
f 13/1/4 194/1/4 195/1/4
f 195/1/4 159/1/4 196/1/4
f 196/1/4 159/1/4 204/1/4
f 204/1/4 19/1/4 205/1/4
f 205/1/4 19/1/4 160/1/4
f 160/1/4 217/1/4 161/1/4
f 161/1/4 217/1/4 28/1/4
f 28/1/4 29/1/4 80/1/4
f 80/1/4 29/1/4 81/1/4
f 211/1/4 80/1/4 38/1/4
f 38/1/4 80/1/4 41/1/4
f 41/1/4 231/1/4 218/1/4
f 218/1/4 231/1/4 43/1/4
f 43/1/4 162/1/4 232/1/4
f 232/1/4 162/1/4 53/1/4
f 53/1/4 55/1/4 163/1/4
f 163/1/4 55/1/4 164/1/4
f 197/1/4 17/1/4 20/1/4
f 20/1/4 17/1/4 206/1/4
f 206/1/4 165/1/4 24/1/4
f 24/1/4 165/1/4 166/1/4
f 166/1/4 219/1/4 212/1/4
f 212/1/4 219/1/4 220/1/4
f 2/1/4 198/1/4 167/1/4
f 167/1/4 198/1/4 168/1/4
f 2/1/4 167/1/4 180/1/4
f 180/1/4 167/1/4 77/1/4
f 2/1/4 180/1/4 181/1/4
f 181/1/4 169/1/4 187/1/4
f 187/1/4 199/1/4 170/1/4
f 170/1/4 171/1/4 207/1/4
f 207/1/4 27/1/4 213/1/4
f 213/1/4 221/1/4 222/1/4
f 222/1/4 233/1/4 50/1/4
f 50/1/4 237/1/4 172/1/4
f 172/1/4 58/1/4 64/1/4
f 64/1/4 246/1/4 247/1/4
f 187/1/4 170/1/4 175/1/4
f 247/1/4 254/1/4 175/1/4
f 64/1/4 247/1/4 175/1/4
f 172/1/4 64/1/4 175/1/4
f 50/1/4 172/1/4 175/1/4
f 222/1/4 50/1/4 175/1/4
f 213/1/4 222/1/4 175/1/4
f 207/1/4 213/1/4 175/1/4
f 170/1/4 207/1/4 175/1/4
f 2/1/4 181/1/4 175/1/4
f 181/1/4 187/1/4 175/1/4
f 175/1/4 254/1/4 173/1/4
f 2/1/5 174/1/5 1/1/5
f 175/1/5 174/1/5 2/1/5
f 135/1/5 176/1/5 138/1/5
f 177/1/5 176/1/5 135/1/5
f 178/1/6 9/1/6 75/1/6
f 75/1/6 9/1/6 10/1/6
f 179/1/6 11/1/6 180/1/6
f 180/1/6 11/1/6 181/1/6
f 182/1/6 183/1/6 92/1/6
f 92/1/6 183/1/6 94/1/6
f 87/1/6 12/1/6 96/1/6
f 94/1/6 96/1/6 106/1/6
f 96/1/6 12/1/6 184/1/6
f 106/1/6 96/1/6 184/1/6
f 137/1/6 139/1/6 185/1/6
f 185/1/6 139/1/6 136/1/6
f 186/1/6 76/1/6 167/1/6
f 167/1/6 76/1/6 77/1/6
f 158/1/6 13/1/6 169/1/6
f 169/1/6 13/1/6 187/1/6
f 86/1/6 72/1/6 3/1/6
f 3/1/6 72/1/6 190/1/6
f 190/1/6 95/1/6 105/1/6
f 105/1/6 95/1/6 107/1/6
f 188/1/6 189/1/6 14/1/6
f 14/1/6 189/1/6 191/1/6
f 108/1/6 14/1/6 138/1/6
f 138/1/6 14/1/6 176/1/6
f 191/1/6 189/1/6 79/1/6
f 79/1/6 189/1/6 192/1/6
f 4/1/6 143/1/6 156/1/6
f 193/1/6 177/1/6 194/1/6
f 194/1/6 177/1/6 195/1/6
f 195/1/6 196/1/6 197/1/6
f 4/1/6 156/1/6 198/1/6
f 156/1/6 194/1/6 198/1/6
f 198/1/6 194/1/6 168/1/6
f 197/1/6 20/1/6 199/1/6
f 195/1/6 197/1/6 199/1/6
f 199/1/6 20/1/6 170/1/6
f 91/1/6 93/1/6 103/1/6
f 103/1/6 93/1/6 73/1/6
f 73/1/6 78/1/6 117/1/6
f 201/1/6 202/1/6 15/1/6
f 15/1/6 202/1/6 118/1/6
f 21/1/6 200/1/6 22/1/6
f 22/1/6 200/1/6 23/1/6
f 15/1/6 118/1/6 16/1/6
f 117/1/6 15/1/6 16/1/6
f 118/1/6 22/1/6 16/1/6
f 16/1/6 22/1/6 127/1/6
f 5/1/6 6/1/6 142/1/6
f 142/1/6 6/1/6 7/1/6
f 73/1/6 117/1/6 144/1/6
f 117/1/6 16/1/6 144/1/6
f 144/1/6 16/1/6 203/1/6
f 7/1/6 144/1/6 157/1/6
f 157/1/6 144/1/6 74/1/6
f 203/1/6 16/1/6 159/1/6
f 159/1/6 16/1/6 204/1/6
f 204/1/6 205/1/6 17/1/6
f 17/1/6 205/1/6 206/1/6
f 206/1/6 24/1/6 171/1/6
f 171/1/6 24/1/6 207/1/6
f 25/1/6 208/1/6 32/1/6
f 32/1/6 208/1/6 37/1/6
f 25/1/6 32/1/6 26/1/6
f 26/1/6 32/1/6 33/1/6
f 119/1/6 26/1/6 128/1/6
f 128/1/6 26/1/6 130/1/6
f 104/1/6 209/1/6 140/1/6
f 140/1/6 209/1/6 8/1/6
f 8/1/6 209/1/6 210/1/6
f 210/1/6 209/1/6 145/1/6
f 18/1/6 128/1/6 19/1/6
f 19/1/6 128/1/6 160/1/6
f 160/1/6 161/1/6 165/1/6
f 165/1/6 161/1/6 166/1/6
f 211/1/6 38/1/6 212/1/6
f 166/1/6 212/1/6 27/1/6
f 212/1/6 38/1/6 213/1/6
f 27/1/6 212/1/6 213/1/6
f 39/1/6 88/1/6 109/1/6
f 109/1/6 88/1/6 111/1/6
f 214/1/6 109/1/6 34/1/6
f 34/1/6 109/1/6 215/1/6
f 120/1/6 121/1/6 131/1/6
f 131/1/6 121/1/6 30/1/6
f 122/1/6 34/1/6 133/1/6
f 133/1/6 34/1/6 35/1/6
f 129/1/6 131/1/6 217/1/6
f 217/1/6 131/1/6 28/1/6
f 216/1/6 40/1/6 80/1/6
f 80/1/6 40/1/6 41/1/6
f 28/1/6 80/1/6 219/1/6
f 219/1/6 80/1/6 220/1/6
f 41/1/6 218/1/6 221/1/6
f 221/1/6 218/1/6 222/1/6
f 223/1/6 89/1/6 44/1/6
f 44/1/6 89/1/6 49/1/6
f 223/1/6 44/1/6 224/1/6
f 224/1/6 44/1/6 45/1/6
f 110/1/6 224/1/6 225/1/6
f 225/1/6 224/1/6 226/1/6
f 31/1/6 123/1/6 227/1/6
f 227/1/6 123/1/6 228/1/6
f 36/1/6 225/1/6 134/1/6
f 227/1/6 228/1/6 146/1/6
f 228/1/6 134/1/6 146/1/6
f 132/1/6 227/1/6 146/1/6
f 134/1/6 225/1/6 229/1/6
f 146/1/6 134/1/6 229/1/6
f 132/1/6 146/1/6 29/1/6
f 29/1/6 146/1/6 81/1/6
f 229/1/6 230/1/6 231/1/6
f 231/1/6 230/1/6 43/1/6
f 43/1/6 232/1/6 233/1/6
f 233/1/6 232/1/6 50/1/6
f 51/1/6 56/1/6 97/1/6
f 97/1/6 56/1/6 98/1/6
f 234/1/6 97/1/6 46/1/6
f 46/1/6 97/1/6 52/1/6
f 235/1/6 46/1/6 124/1/6
f 124/1/6 46/1/6 126/1/6
f 236/1/6 124/1/6 42/1/6
f 42/1/6 124/1/6 147/1/6
f 147/1/6 150/1/6 162/1/6
f 162/1/6 150/1/6 53/1/6
f 53/1/6 163/1/6 237/1/6
f 237/1/6 163/1/6 172/1/6
f 57/1/6 238/1/6 239/1/6
f 239/1/6 238/1/6 62/1/6
f 54/1/6 239/1/6 112/1/6
f 112/1/6 239/1/6 114/1/6
f 125/1/6 240/1/6 148/1/6
f 148/1/6 240/1/6 149/1/6
f 151/1/6 63/1/6 55/1/6
f 55/1/6 63/1/6 164/1/6
f 164/1/6 63/1/6 58/1/6
f 58/1/6 63/1/6 64/1/6
f 241/1/6 242/1/6 243/1/6
f 243/1/6 242/1/6 69/1/6
f 59/1/6 243/1/6 60/1/6
f 60/1/6 243/1/6 115/1/6
f 47/1/6 244/1/6 245/1/6
f 47/1/6 245/1/6 48/1/6
f 245/1/6 65/1/6 48/1/6
f 48/1/6 65/1/6 152/1/6
f 152/1/6 154/1/6 246/1/6
f 246/1/6 154/1/6 247/1/6
f 70/1/6 90/1/6 248/1/6
f 248/1/6 90/1/6 101/1/6
f 99/1/6 248/1/6 66/1/6
f 66/1/6 248/1/6 116/1/6
f 113/1/6 249/1/6 250/1/6
f 250/1/6 249/1/6 251/1/6
f 141/1/6 252/1/6 153/1/6
f 153/1/6 252/1/6 253/1/6
f 253/1/6 82/1/6 254/1/6
f 254/1/6 82/1/6 173/1/6
f 100/1/6 102/1/6 256/1/6
f 256/1/6 102/1/6 83/1/6
f 255/1/6 67/1/6 61/1/6
f 61/1/6 67/1/6 257/1/6
f 71/1/6 258/1/6 155/1/6
f 155/1/6 258/1/6 84/1/6
f 259/1/6 260/1/6 68/1/6
f 68/1/6 260/1/6 85/1/6
