# Blender 3.6.1
# www.blender.org
mtllib Stone Pillar 1.mtl
o Stone_Pillar_1
v -0.300000 1.300000 0.500000
v -0.300000 1.300000 0.400000
v -0.300000 1.300000 -0.300000
v -0.300000 1.300000 -0.400000
v -0.300000 1.300000 -0.500000
v -0.200000 1.300000 -0.400000
v -0.200000 1.700000 -0.200000
v -0.200000 1.700000 -0.300000
v -0.200000 2.200000 0.200000
v -0.200000 2.200000 -0.200000
v -0.100000 1.700000 0.300000
v -0.100000 1.700000 0.200000
v -0.100000 1.700000 -0.200000
v 0.400000 1.300000 -0.300000
v 0.500000 1.300000 -0.300000
v 0.500000 1.300000 -0.400000
v 0.500000 1.700000 0.300000
v 0.500000 1.700000 -0.300000
v 0.600000 0.000000 0.400000
v 0.500000 1.300000 0.500000
v 0.400000 1.300000 0.400000
v 0.400000 1.700000 0.400000
v -0.300000 1.300000 0.300000
v -0.200000 1.300000 0.300000
v -0.100000 2.200000 0.300000
v 0.400000 2.200000 0.200000
v -0.100000 2.200000 -0.200000
v 0.300000 2.200000 -0.200000
v 0.400000 1.700000 -0.200000
v -0.200000 1.300000 -0.300000
v -0.100000 2.200000 -0.300000
v 0.300000 1.700000 -0.300000
v 0.300000 2.200000 -0.300000
v -0.300000 -0.000000 -0.400000
v 0.400000 1.700000 -0.400000
v 0.600000 1.300000 -0.400000
v -0.300000 -0.000000 -0.500000
v 0.500000 -0.000000 -0.500000
v -0.300000 0.000000 0.500000
v 0.500000 0.000000 0.500000
v -0.400000 0.000000 0.400000
v -0.300000 0.000000 0.400000
v 0.500000 0.000000 0.400000
v -0.400000 -0.000000 -0.400000
v 0.500000 -0.000000 -0.400000
v 0.600000 -0.000000 -0.400000
v -0.400000 1.300000 0.400000
v -0.200000 1.300000 0.400000
v 0.500000 1.300000 0.400000
v 0.600000 1.300000 0.400000
v 0.400000 1.300000 0.300000
v 0.500000 1.300000 0.300000
v -0.400000 1.300000 -0.400000
v 0.400000 1.300000 -0.400000
v 0.500000 1.300000 -0.500000
v -0.200000 1.700000 0.400000
v -0.300000 1.700000 0.300000
v -0.200000 1.700000 0.300000
v 0.300000 1.700000 0.300000
v 0.400000 1.700000 0.300000
v -0.200000 1.700000 0.200000
v 0.300000 1.700000 0.200000
v 0.400000 1.700000 0.200000
v 0.300000 1.700000 -0.200000
v -0.300000 1.700000 -0.300000
v -0.100000 1.700000 -0.300000
v 0.400000 1.700000 -0.300000
v -0.200000 1.700000 -0.400000
v 0.300000 2.200000 0.300000
v -0.100000 2.200000 0.200000
v 0.300000 2.200000 0.200000
v 0.400000 2.200000 -0.200000
vn -1.0000 -0.0000 -0.0000
vn 1.0000 -0.0000 -0.0000
vn -0.0000 -0.0000 1.0000
vn -0.0000 -0.0000 -1.0000
vn -0.0000 -1.0000 -0.0000
vn -0.0000 1.0000 -0.0000
vt 0.955078 0.500000
s 0
usemtl palette.003
f 47/1/1 44/1/1 41/1/1
f 53/1/1 44/1/1 47/1/1
f 1/1/1 42/1/1 39/1/1
f 2/1/1 42/1/1 1/1/1
f 4/1/1 37/1/1 34/1/1
f 5/1/1 37/1/1 4/1/1
f 57/1/1 3/1/1 23/1/1
f 65/1/1 3/1/1 57/1/1
f 56/1/1 24/1/1 48/1/1
f 58/1/1 24/1/1 56/1/1
f 8/1/1 6/1/1 30/1/1
f 68/1/1 6/1/1 8/1/1
f 9/1/1 7/1/1 61/1/1
f 10/1/1 7/1/1 9/1/1
f 25/1/1 12/1/1 11/1/1
f 70/1/1 12/1/1 25/1/1
f 27/1/1 66/1/1 13/1/1
f 31/1/1 66/1/1 27/1/1
f 59/1/2 62/1/2 69/1/2
f 69/1/2 62/1/2 71/1/2
f 64/1/2 32/1/2 28/1/2
f 28/1/2 32/1/2 33/1/2
f 21/1/2 51/1/2 22/1/2
f 22/1/2 51/1/2 60/1/2
f 14/1/2 54/1/2 67/1/2
f 67/1/2 54/1/2 35/1/2
f 63/1/2 29/1/2 26/1/2
f 26/1/2 29/1/2 72/1/2
f 40/1/2 43/1/2 20/1/2
f 20/1/2 43/1/2 49/1/2
f 45/1/2 38/1/2 16/1/2
f 16/1/2 38/1/2 55/1/2
f 52/1/2 15/1/2 17/1/2
f 17/1/2 15/1/2 18/1/2
f 19/1/2 46/1/2 50/1/2
f 50/1/2 46/1/2 36/1/2
f 40/1/3 1/1/3 39/1/3
f 20/1/3 1/1/3 40/1/3
f 42/1/3 47/1/3 41/1/3
f 2/1/3 47/1/3 42/1/3
f 21/1/3 56/1/3 48/1/3
f 22/1/3 56/1/3 21/1/3
f 19/1/3 49/1/3 43/1/3
f 50/1/3 49/1/3 19/1/3
f 24/1/3 57/1/3 23/1/3
f 58/1/3 57/1/3 24/1/3
f 59/1/3 25/1/3 11/1/3
f 69/1/3 25/1/3 59/1/3
f 52/1/3 60/1/3 51/1/3
f 17/1/3 60/1/3 52/1/3
f 12/1/3 9/1/3 61/1/3
f 70/1/3 9/1/3 12/1/3
f 63/1/3 71/1/3 62/1/3
f 26/1/3 71/1/3 63/1/3
f 7/1/4 10/1/4 13/1/4
f 13/1/4 10/1/4 27/1/4
f 64/1/4 28/1/4 29/1/4
f 29/1/4 28/1/4 72/1/4
f 3/1/4 65/1/4 30/1/4
f 30/1/4 65/1/4 8/1/4
f 66/1/4 31/1/4 32/1/4
f 32/1/4 31/1/4 33/1/4
f 14/1/4 67/1/4 15/1/4
f 15/1/4 67/1/4 18/1/4
f 44/1/4 53/1/4 34/1/4
f 34/1/4 53/1/4 4/1/4
f 6/1/4 68/1/4 54/1/4
f 54/1/4 68/1/4 35/1/4
f 45/1/4 16/1/4 46/1/4
f 46/1/4 16/1/4 36/1/4
f 37/1/4 5/1/4 38/1/4
f 38/1/4 5/1/4 55/1/4
f 42/1/5 40/1/5 39/1/5
f 43/1/5 40/1/5 42/1/5
f 44/1/5 42/1/5 41/1/5
f 44/1/5 19/1/5 43/1/5
f 44/1/5 43/1/5 42/1/5
f 34/1/5 19/1/5 44/1/5
f 45/1/5 19/1/5 34/1/5
f 46/1/5 19/1/5 45/1/5
f 37/1/5 45/1/5 34/1/5
f 38/1/5 45/1/5 37/1/5
f 1/1/6 20/1/6 2/1/6
f 2/1/6 20/1/6 48/1/6
f 48/1/6 20/1/6 21/1/6
f 21/1/6 20/1/6 49/1/6
f 47/1/6 2/1/6 23/1/6
f 2/1/6 48/1/6 23/1/6
f 23/1/6 48/1/6 24/1/6
f 49/1/6 50/1/6 51/1/6
f 21/1/6 49/1/6 51/1/6
f 51/1/6 50/1/6 52/1/6
f 47/1/6 23/1/6 3/1/6
f 52/1/6 50/1/6 15/1/6
f 3/1/6 30/1/6 53/1/6
f 47/1/6 3/1/6 53/1/6
f 53/1/6 30/1/6 4/1/6
f 4/1/6 30/1/6 6/1/6
f 14/1/6 15/1/6 54/1/6
f 15/1/6 50/1/6 16/1/6
f 54/1/6 15/1/6 16/1/6
f 16/1/6 50/1/6 36/1/6
f 4/1/6 6/1/6 5/1/6
f 6/1/6 54/1/6 5/1/6
f 54/1/6 16/1/6 5/1/6
f 5/1/6 16/1/6 55/1/6
f 56/1/6 22/1/6 58/1/6
f 58/1/6 22/1/6 11/1/6
f 11/1/6 22/1/6 59/1/6
f 59/1/6 22/1/6 60/1/6
f 57/1/6 58/1/6 61/1/6
f 58/1/6 11/1/6 61/1/6
f 61/1/6 11/1/6 12/1/6
f 60/1/6 17/1/6 62/1/6
f 59/1/6 60/1/6 62/1/6
f 62/1/6 17/1/6 63/1/6
f 57/1/6 61/1/6 7/1/6
f 63/1/6 17/1/6 29/1/6
f 7/1/6 13/1/6 65/1/6
f 57/1/6 7/1/6 65/1/6
f 65/1/6 13/1/6 8/1/6
f 8/1/6 13/1/6 66/1/6
f 64/1/6 29/1/6 32/1/6
f 29/1/6 17/1/6 67/1/6
f 32/1/6 29/1/6 67/1/6
f 67/1/6 17/1/6 18/1/6
f 8/1/6 66/1/6 68/1/6
f 66/1/6 32/1/6 68/1/6
f 32/1/6 67/1/6 68/1/6
f 68/1/6 67/1/6 35/1/6
f 25/1/6 69/1/6 70/1/6
f 70/1/6 69/1/6 71/1/6
f 9/1/6 70/1/6 10/1/6
f 71/1/6 26/1/6 10/1/6
f 70/1/6 71/1/6 10/1/6
f 10/1/6 26/1/6 27/1/6
f 27/1/6 26/1/6 28/1/6
f 28/1/6 26/1/6 72/1/6
f 27/1/6 28/1/6 31/1/6
f 31/1/6 28/1/6 33/1/6
