# MagicaVoxel @ Ephtracy

# group
o 

# material
mtllib Alter.mtl
usemtl palette

# normals
vn -1 0 0
vn 1 0 0
vn 0 0 1
vn 0 0 -1
vn 0 -1 0
vn 0 1 0

# texcoords
vt 0.583984 0.5
vt 0.955078 0.5
vt 0.958984 0.5
vt 0.962891 0.5

# verts
v -1.5 2.6 1.5
v -1.5 2.6 -1.5
v -1.5 2.7 1.5
v -1.5 2.7 -1.5
v -1.4 2.5 1.4
v -1.4 2.5 -1.4
v -1.4 2.6 1.4
v -1.4 2.6 -1.4
v -1.4 2.7 1.4
v -1.4 2.7 -1.4
v -1.4 2.8 1.4
v -1.4 2.8 0
v -1.4 3.7 0
v -1.4 3.7 -1.4
v -1.3 2.4 1.3
v -1.3 2.4 -1.3
v -1.3 2.5 1.3
v -1.3 2.5 -1.3
v -1.1 3.2 -0.3
v -1.1 3.2 -0.5
v -1.1 3.3 -0.3
v -1.1 3.3 -0.5
v -1.1 3.7 -0.6
v -1.1 3.7 -0.9
v -1.1 3.8 -0.6
v -1.1 3.8 -0.9
v -1 3.2 -0.5
v -1 3.2 -0.7
v -1 3.3 -0.5
v -1 3.3 -0.6
v -1 3.7 -0.6
v -1 3.7 -0.7
v -1 3.7 -0.9
v -1 3.7 -1
v -1 3.8 -0.9
v -1 3.8 -1
v -0.9 3.7 -1
v -0.9 3.7 -1.1
v -0.9 3.8 -1
v -0.9 3.8 -1.1
v -0.8 2.6 -0.6
v -0.8 2.6 -0.8
v -0.8 3.2 -0.6
v -0.8 3.2 -0.7
v -0.8 3.3 -0.7
v -0.8 3.3 -0.8
v -0.7 3.2 -0.8
v -0.7 3.2 -1
v -0.7 3.3 -0.8
v -0.7 3.3 -0.9
v -0.7 3.7 -0.9
v -0.7 3.7 -1
v -0.5 0 0.5
v -0.5 0 -0.5
v -0.5 0.1 0.5
v -0.5 0.1 -0.5
v -0.5 3.2 -1
v -0.5 3.2 -1.1
v -0.5 3.3 -1
v -0.5 3.3 -1.1
v -0.4 0.1 0.4
v -0.4 0.1 -0.4
v -0.4 0.2 0.4
v -0.4 0.2 -0.4
v -0.3 0.2 0.3
v -0.3 0.2 -0.3
v -0.3 0.3 0.3
v -0.3 0.3 -0.3
v -0.2 0.3 0.2
v -0.2 0.3 -0.2
v -0.2 2.4 0.2
v -0.2 2.4 -0.2
v 1.1 2.6 1.1
v 1.1 2.6 -1.1
v 1.1 2.7 1.1
v 1.1 2.7 -1.1
v 1.2 2.7 1.2
v 1.2 2.7 -1.2
v 1.2 2.8 1.2
v 1.2 2.8 0
v 1.2 3.7 0
v 1.2 3.7 -1.2
v -1.2 2.7 1.2
v -1.2 2.7 -1.2
v -1.2 2.8 1.2
v -1.2 2.8 0
v -1.2 3.7 0
v -1.2 3.7 -1.2
v -1.1 2.6 1.1
v -1.1 2.6 -1.1
v -1.1 2.7 1.1
v -1.1 2.7 -1.1
v -1 3.7 -0.6
v -1 3.7 -0.7
v -1 3.7 -0.8
v -1 3.8 -0.6
v -1 3.8 -0.8
v -0.9 3.2 -0.3
v -0.9 3.2 -0.4
v -0.9 3.3 -0.3
v -0.9 3.3 -0.4
v -0.9 3.3 -0.6
v -0.9 3.3 -0.7
v -0.9 3.7 -0.6
v -0.9 3.7 -0.7
v -0.9 3.7 -0.8
v -0.9 3.7 -0.9
v -0.9 3.8 -0.8
v -0.9 3.8 -0.9
v -0.8 3.2 -0.4
v -0.8 3.2 -0.5
v -0.8 3.3 -0.4
v -0.8 3.3 -0.5
v -0.8 3.7 -0.9
v -0.8 3.7 -1
v -0.8 3.8 -0.9
v -0.8 3.8 -1
v -0.7 3.2 -0.5
v -0.7 3.2 -0.6
v -0.7 3.3 -0.5
v -0.7 3.3 -0.6
v -0.6 2.6 -0.6
v -0.6 2.6 -0.8
v -0.6 3.2 -0.7
v -0.6 3.2 -0.8
v -0.6 3.3 -0.6
v -0.6 3.3 -0.7
v -0.6 3.3 -0.9
v -0.6 3.3 -1
v -0.6 3.7 -0.9
v -0.6 3.7 -1
v -0.6 3.7 -1.1
v -0.6 3.8 -1
v -0.6 3.8 -1.1
v -0.5 3.2 -0.7
v -0.5 3.2 -0.8
v -0.5 3.3 -0.7
v -0.5 3.3 -0.8
v -0.4 3.2 -0.8
v -0.4 3.2 -0.9
v -0.4 3.3 -0.8
v -0.4 3.3 -0.9
v -0.3 3.2 -0.9
v -0.3 3.2 -1.1
v -0.3 3.3 -0.9
v -0.3 3.3 -1.1
v 0.2 0.3 0.2
v 0.2 0.3 -0.2
v 0.2 2.4 0.2
v 0.2 2.4 -0.2
v 0.3 0.2 0.3
v 0.3 0.2 -0.3
v 0.3 0.3 0.3
v 0.3 0.3 -0.3
v 0.4 0.1 0.4
v 0.4 0.1 -0.4
v 0.4 0.2 0.4
v 0.4 0.2 -0.4
v 0.5 0 0.5
v 0.5 0 -0.5
v 0.5 0.1 0.5
v 0.5 0.1 -0.5
v 1.3 2.4 1.3
v 1.3 2.4 -1.3
v 1.3 2.5 1.3
v 1.3 2.5 -1.3
v 1.4 2.5 1.4
v 1.4 2.5 -1.4
v 1.4 2.6 1.4
v 1.4 2.6 -1.4
v 1.4 2.7 1.4
v 1.4 2.7 -1.4
v 1.4 2.8 1.4
v 1.4 2.8 0
v 1.4 3.7 0
v 1.4 3.7 -1.4
v 1.5 2.6 1.5
v 1.5 2.6 -1.5
v 1.5 2.7 1.5
v 1.5 2.7 -1.5
v -1.5 2.6 1.5
v -1.5 2.7 1.5
v 1.5 2.6 1.5
v 1.5 2.7 1.5
v -1.4 2.5 1.4
v -1.4 2.6 1.4
v -1.4 2.7 1.4
v -1.4 2.8 1.4
v 1.4 2.5 1.4
v 1.4 2.6 1.4
v 1.4 2.7 1.4
v 1.4 2.8 1.4
v -1.3 2.4 1.3
v -1.3 2.5 1.3
v 1.3 2.4 1.3
v 1.3 2.5 1.3
v -0.5 0 0.5
v -0.5 0.1 0.5
v 0.5 0 0.5
v 0.5 0.1 0.5
v -0.4 0.1 0.4
v -0.4 0.2 0.4
v 0.4 0.1 0.4
v 0.4 0.2 0.4
v -0.3 0.2 0.3
v -0.3 0.3 0.3
v 0.3 0.2 0.3
v 0.3 0.3 0.3
v -0.2 0.3 0.2
v -0.2 2.4 0.2
v 0.2 0.3 0.2
v 0.2 2.4 0.2
v -1.4 2.8 0
v -1.4 3.7 0
v -1.2 2.8 0
v -1.2 3.7 0
v 1.2 2.8 0
v 1.2 3.7 0
v 1.4 2.8 0
v 1.4 3.7 0
v -1.1 3.2 -0.3
v -1.1 3.3 -0.3
v -0.9 3.2 -0.3
v -0.9 3.3 -0.3
v -0.9 3.2 -0.4
v -0.9 3.3 -0.4
v -0.8 3.2 -0.4
v -0.8 3.3 -0.4
v -0.8 3.2 -0.5
v -0.8 3.3 -0.5
v -0.7 3.2 -0.5
v -0.7 3.3 -0.5
v -1.1 3.7 -0.6
v -1.1 3.8 -0.6
v -1 3.3 -0.6
v -1 3.7 -0.6
v -1 3.8 -0.6
v -0.9 3.3 -0.6
v -0.9 3.7 -0.6
v -0.8 2.6 -0.6
v -0.8 3.2 -0.6
v -0.7 3.2 -0.6
v -0.7 3.3 -0.6
v -0.6 2.6 -0.6
v -0.6 3.3 -0.6
v -0.6 3.2 -0.7
v -0.6 3.3 -0.7
v -0.5 3.2 -0.7
v -0.5 3.3 -0.7
v -1 3.7 -0.8
v -1 3.8 -0.8
v -0.9 3.7 -0.8
v -0.9 3.8 -0.8
v -0.5 3.2 -0.8
v -0.5 3.3 -0.8
v -0.4 3.2 -0.8
v -0.4 3.3 -0.8
v -0.9 3.7 -0.9
v -0.9 3.8 -0.9
v -0.8 3.7 -0.9
v -0.8 3.8 -0.9
v -0.7 3.3 -0.9
v -0.7 3.7 -0.9
v -0.6 3.3 -0.9
v -0.6 3.7 -0.9
v -0.4 3.2 -0.9
v -0.4 3.3 -0.9
v -0.3 3.2 -0.9
v -0.3 3.3 -0.9
v -0.8 3.7 -1
v -0.8 3.8 -1
v -0.7 3.7 -1
v -0.6 3.7 -1
v -0.6 3.8 -1
v -1.1 2.6 -1.1
v -1.1 2.7 -1.1
v 1.1 2.6 -1.1
v 1.1 2.7 -1.1
v -1.2 2.7 -1.2
v -1.2 3.7 -1.2
v 1.2 2.7 -1.2
v 1.2 3.7 -1.2
v -1.2 2.7 1.2
v -1.2 2.8 1.2
v 1.2 2.7 1.2
v 1.2 2.8 1.2
v -1.1 2.6 1.1
v -1.1 2.7 1.1
v 1.1 2.6 1.1
v 1.1 2.7 1.1
v -0.2 0.3 -0.2
v -0.2 2.4 -0.2
v 0.2 0.3 -0.2
v 0.2 2.4 -0.2
v -0.3 0.2 -0.3
v -0.3 0.3 -0.3
v 0.3 0.2 -0.3
v 0.3 0.3 -0.3
v -0.4 0.1 -0.4
v -0.4 0.2 -0.4
v 0.4 0.1 -0.4
v 0.4 0.2 -0.4
v -1.1 3.2 -0.5
v -1.1 3.3 -0.5
v -1 3.2 -0.5
v -1 3.3 -0.5
v -0.5 0 -0.5
v -0.5 0.1 -0.5
v 0.5 0 -0.5
v 0.5 0.1 -0.5
v -1 3.2 -0.7
v -1 3.7 -0.7
v -0.9 3.3 -0.7
v -0.9 3.7 -0.7
v -0.8 3.2 -0.7
v -0.8 3.3 -0.7
v -0.8 2.6 -0.8
v -0.8 3.3 -0.8
v -0.7 3.2 -0.8
v -0.7 3.3 -0.8
v -0.6 2.6 -0.8
v -0.6 3.2 -0.8
v -1.1 3.7 -0.9
v -1.1 3.8 -0.9
v -1 3.7 -0.9
v -1 3.8 -0.9
v -1 3.7 -1
v -1 3.8 -1
v -0.9 3.7 -1
v -0.9 3.8 -1
v -0.7 3.2 -1
v -0.7 3.7 -1
v -0.6 3.3 -1
v -0.6 3.7 -1
v -0.5 3.2 -1
v -0.5 3.3 -1
v -0.9 3.7 -1.1
v -0.9 3.8 -1.1
v -0.6 3.7 -1.1
v -0.6 3.8 -1.1
v -0.5 3.2 -1.1
v -0.5 3.3 -1.1
v -0.3 3.2 -1.1
v -0.3 3.3 -1.1
v -1.3 2.4 -1.3
v -1.3 2.5 -1.3
v 1.3 2.4 -1.3
v 1.3 2.5 -1.3
v -1.4 2.5 -1.4
v -1.4 2.6 -1.4
v -1.4 2.7 -1.4
v -1.4 3.7 -1.4
v 1.4 2.5 -1.4
v 1.4 2.6 -1.4
v 1.4 2.7 -1.4
v 1.4 3.7 -1.4
v -1.5 2.6 -1.5
v -1.5 2.7 -1.5
v 1.5 2.6 -1.5
v 1.5 2.7 -1.5
v -0.5 0 0.5
v 0.5 0 0.5
v -0.5 0 -0.5
v 0.5 0 -0.5
v -1.3 2.4 1.3
v 1.3 2.4 1.3
v -0.2 2.4 0.2
v 0.2 2.4 0.2
v -0.2 2.4 -0.2
v 0.2 2.4 -0.2
v -1.3 2.4 -1.3
v 1.3 2.4 -1.3
v -1.4 2.5 1.4
v 1.4 2.5 1.4
v -1.3 2.5 1.3
v 1.3 2.5 1.3
v -1.3 2.5 -1.3
v 1.3 2.5 -1.3
v -1.4 2.5 -1.4
v 1.4 2.5 -1.4
v -1.5 2.6 1.5
v 1.5 2.6 1.5
v -1.4 2.6 1.4
v 1.4 2.6 1.4
v -1.4 2.6 -1.4
v 1.4 2.6 -1.4
v -1.5 2.6 -1.5
v 1.5 2.6 -1.5
v -1.1 3.2 -0.3
v -0.9 3.2 -0.3
v -0.9 3.2 -0.4
v -0.8 3.2 -0.4
v -1.1 3.2 -0.5
v -1 3.2 -0.5
v -0.8 3.2 -0.5
v -0.7 3.2 -0.5
v -0.8 3.2 -0.6
v -0.7 3.2 -0.6
v -1 3.2 -0.7
v -0.8 3.2 -0.7
v -0.6 3.2 -0.7
v -0.5 3.2 -0.7
v -0.7 3.2 -0.8
v -0.6 3.2 -0.8
v -0.5 3.2 -0.8
v -0.4 3.2 -0.8
v -0.4 3.2 -0.9
v -0.3 3.2 -0.9
v -0.7 3.2 -1
v -0.5 3.2 -1
v -0.5 3.2 -1.1
v -0.3 3.2 -1.1
v -1.1 3.7 -0.6
v -1 3.7 -0.6
v -1 3.7 -0.7
v -1 3.7 -0.8
v -0.9 3.7 -0.8
v -1.1 3.7 -0.9
v -1 3.7 -0.9
v -0.9 3.7 -0.9
v -0.8 3.7 -0.9
v -1 3.7 -1
v -0.9 3.7 -1
v -0.8 3.7 -1
v -0.7 3.7 -1
v -0.6 3.7 -1
v -0.9 3.7 -1.1
v -0.6 3.7 -1.1
v -0.5 0.1 0.5
v 0.5 0.1 0.5
v -0.4 0.1 0.4
v 0.4 0.1 0.4
v -0.4 0.1 -0.4
v 0.4 0.1 -0.4
v -0.5 0.1 -0.5
v 0.5 0.1 -0.5
v -0.4 0.2 0.4
v 0.4 0.2 0.4
v -0.3 0.2 0.3
v 0.3 0.2 0.3
v -0.3 0.2 -0.3
v 0.3 0.2 -0.3
v -0.4 0.2 -0.4
v 0.4 0.2 -0.4
v -0.3 0.3 0.3
v 0.3 0.3 0.3
v -0.2 0.3 0.2
v 0.2 0.3 0.2
v -0.2 0.3 -0.2
v 0.2 0.3 -0.2
v -0.3 0.3 -0.3
v 0.3 0.3 -0.3
v -1.1 2.6 1.1
v 1.1 2.6 1.1
v -0.4 2.6 0.9
v 0.4 2.6 0.9
v -0.5 2.6 0.8
v -0.4 2.6 0.8
v -0.2 2.6 0.8
v -0.1 2.6 0.8
v 0.4 2.6 0.8
v 0.5 2.6 0.8
v -0.6 2.6 0.7
v -0.5 2.6 0.7
v -0.2 2.6 0.7
v -0.1 2.6 0.7
v 0.2 2.6 0.7
v 0.3 2.6 0.7
v 0.5 2.6 0.7
v 0.6 2.6 0.7
v -0.7 2.6 0.6
v -0.6 2.6 0.6
v -0.4 2.6 0.6
v -0.3 2.6 0.6
v -0.2 2.6 0.6
v -0.1 2.6 0.6
v 0.1 2.6 0.6
v 0.2 2.6 0.6
v 0.3 2.6 0.6
v 0.4 2.6 0.6
v 0.5 2.6 0.6
v 0.6 2.6 0.6
v 0.7 2.6 0.6
v -0.4 2.6 0.5
v -0.3 2.6 0.5
v -0.2 2.6 0.5
v 0.2 2.6 0.5
v 0.3 2.6 0.5
v 0.4 2.6 0.5
v 0.5 2.6 0.5
v 0.6 2.6 0.5
v -0.5 2.6 0.4
v -0.3 2.6 0.4
v -0.2 2.6 0.4
v -0.1 2.6 0.4
v 0.1 2.6 0.4
v 0.2 2.6 0.4
v 0.3 2.6 0.4
v 0.5 2.6 0.4
v -0.5 2.6 0.3
v -0.3 2.6 0.3
v -0.2 2.6 0.3
v -0.1 2.6 0.3
v 0.1 2.6 0.3
v 0.2 2.6 0.3
v 0.4 2.6 0.3
v 0.6 2.6 0.3
v -0.5 2.6 0.2
v -0.4 2.6 0.2
v -0.3 2.6 0.2
v -0.2 2.6 0.2
v 0.3 2.6 0.2
v 0.4 2.6 0.2
v 0.6 2.6 0.2
v -0.3 2.6 0.1
v -0.2 2.6 0.1
v -0.1 2.6 0.1
v 0.1 2.6 0.1
v 0.2 2.6 0.1
v -0.5 2.6 0
v -0.4 2.6 0
v -0.3 2.6 0
v -0.2 2.6 0
v -0.1 2.6 0
v 0.1 2.6 0
v 0.2 2.6 0
v 0.3 2.6 0
v 0.4 2.6 0
v -0.4 2.6 -0.1
v -0.3 2.6 -0.1
v -0.2 2.6 -0.1
v -0.1 2.6 -0.1
v 0.1 2.6 -0.1
v 0.2 2.6 -0.1
v 0.3 2.6 -0.1
v 0.4 2.6 -0.1
v 0.5 2.6 -0.1
v 0.6 2.6 -0.1
v -0.7 2.6 -0.2
v -0.6 2.6 -0.2
v -0.4 2.6 -0.2
v -0.3 2.6 -0.2
v -0.1 2.6 -0.2
v 0 2.6 -0.2
v 0.3 2.6 -0.2
v 0.4 2.6 -0.2
v 0.5 2.6 -0.2
v 0.6 2.6 -0.2
v 0.7 2.6 -0.2
v -0.6 2.6 -0.3
v -0.5 2.6 -0.3
v 0.5 2.6 -0.3
v 0.6 2.6 -0.3
v -0.5 2.6 -0.4
v -0.4 2.6 -0.4
v -0.1 2.6 -0.4
v 0 2.6 -0.4
v 0.4 2.6 -0.4
v 0.5 2.6 -0.4
v -0.4 2.6 -0.5
v 0.4 2.6 -0.5
v -0.8 2.6 -0.6
v -0.6 2.6 -0.6
v -0.8 2.6 -0.8
v -0.6 2.6 -0.8
v -1.1 2.6 -1.1
v 1.1 2.6 -1.1
v -1.5 2.7 1.5
v 1.5 2.7 1.5
v -1.4 2.7 1.4
v 1.4 2.7 1.4
v -1.2 2.7 1.2
v 1.2 2.7 1.2
v -1.1 2.7 1.1
v 1.1 2.7 1.1
v -1.1 2.7 -1.1
v 1.1 2.7 -1.1
v -1.2 2.7 -1.2
v 1.2 2.7 -1.2
v -1.4 2.7 -1.4
v 1.4 2.7 -1.4
v -1.5 2.7 -1.5
v 1.5 2.7 -1.5
v -1.4 2.8 1.4
v 1.4 2.8 1.4
v -1.2 2.8 1.2
v 1.2 2.8 1.2
v -1.4 2.8 0
v -1.2 2.8 0
v 1.2 2.8 0
v 1.4 2.8 0
v -1.1 3.3 -0.3
v -0.9 3.3 -0.3
v -0.9 3.3 -0.4
v -0.8 3.3 -0.4
v -1.1 3.3 -0.5
v -1 3.3 -0.5
v -0.8 3.3 -0.5
v -0.7 3.3 -0.5
v -1 3.3 -0.6
v -0.9 3.3 -0.6
v -0.7 3.3 -0.6
v -0.6 3.3 -0.6
v -0.9 3.3 -0.7
v -0.8 3.3 -0.7
v -0.6 3.3 -0.7
v -0.5 3.3 -0.7
v -0.8 3.3 -0.8
v -0.7 3.3 -0.8
v -0.5 3.3 -0.8
v -0.4 3.3 -0.8
v -0.7 3.3 -0.9
v -0.6 3.3 -0.9
v -0.4 3.3 -0.9
v -0.3 3.3 -0.9
v -0.6 3.3 -1
v -0.5 3.3 -1
v -0.5 3.3 -1.1
v -0.3 3.3 -1.1
v -1.4 3.7 0
v -1.2 3.7 0
v 1.2 3.7 0
v 1.4 3.7 0
v -1 3.7 -0.6
v -0.9 3.7 -0.6
v -1 3.7 -0.7
v -0.9 3.7 -0.7
v -0.7 3.7 -0.9
v -0.6 3.7 -0.9
v -0.7 3.7 -1
v -0.6 3.7 -1
v -1.2 3.7 -1.2
v 1.2 3.7 -1.2
v -1.4 3.7 -1.4
v 1.4 3.7 -1.4
v -1.1 3.8 -0.6
v -1 3.8 -0.6
v -1 3.8 -0.8
v -0.9 3.8 -0.8
v -1.1 3.8 -0.9
v -1 3.8 -0.9
v -0.9 3.8 -0.9
v -0.8 3.8 -0.9
v -1 3.8 -1
v -0.9 3.8 -1
v -0.8 3.8 -1
v -0.6 3.8 -1
v -0.9 3.8 -1.1
v -0.6 3.8 -1.1

# faces
f 3/3/1 2/3/1 1/3/1
f 4/3/1 2/3/1 3/3/1
f 7/3/1 6/3/1 5/3/1
f 8/3/1 6/3/1 7/3/1
f 11/3/1 10/3/1 9/3/1
f 12/3/1 10/3/1 11/3/1
f 13/3/1 10/3/1 12/3/1
f 14/3/1 10/3/1 13/3/1
f 17/3/1 16/3/1 15/3/1
f 18/3/1 16/3/1 17/3/1
f 21/2/1 20/2/1 19/2/1
f 22/2/1 20/2/1 21/2/1
f 25/2/1 24/2/1 23/2/1
f 26/2/1 24/2/1 25/2/1
f 29/2/1 28/2/1 27/2/1
f 30/2/1 28/2/1 29/2/1
f 31/2/1 28/2/1 30/2/1
f 32/2/1 28/2/1 31/2/1
f 35/2/1 34/2/1 33/2/1
f 36/2/1 34/2/1 35/2/1
f 39/2/1 38/2/1 37/2/1
f 40/2/1 38/2/1 39/2/1
f 43/2/1 42/2/1 41/2/1
f 44/2/1 42/2/1 43/2/1
f 45/2/1 42/2/1 44/2/1
f 46/2/1 42/2/1 45/2/1
f 49/2/1 48/2/1 47/2/1
f 50/2/1 48/2/1 49/2/1
f 51/2/1 48/2/1 50/2/1
f 52/2/1 48/2/1 51/2/1
f 55/3/1 54/3/1 53/3/1
f 56/3/1 54/3/1 55/3/1
f 59/2/1 58/2/1 57/2/1
f 60/2/1 58/2/1 59/2/1
f 63/3/1 62/3/1 61/3/1
f 64/3/1 62/3/1 63/3/1
f 67/3/1 66/3/1 65/3/1
f 68/3/1 66/3/1 67/3/1
f 71/3/1 70/3/1 69/3/1
f 72/3/1 70/3/1 71/3/1
f 75/3/1 74/3/1 73/3/1
f 76/3/1 74/3/1 75/3/1
f 79/3/1 78/3/1 77/3/1
f 80/3/1 78/3/1 79/3/1
f 81/3/1 78/3/1 80/3/1
f 82/3/1 78/3/1 81/3/1
f 83/3/2 84/3/2 85/3/2
f 85/3/2 84/3/2 86/3/2
f 86/3/2 84/3/2 87/3/2
f 87/3/2 84/3/2 88/3/2
f 89/3/2 90/3/2 91/3/2
f 91/3/2 90/3/2 92/3/2
f 93/2/2 94/2/2 96/2/2
f 94/2/2 95/2/2 96/2/2
f 96/2/2 95/2/2 97/2/2
f 98/2/2 99/2/2 100/2/2
f 100/2/2 99/2/2 101/2/2
f 102/2/2 103/2/2 104/2/2
f 104/2/2 103/2/2 105/2/2
f 106/2/2 107/2/2 108/2/2
f 108/2/2 107/2/2 109/2/2
f 110/2/2 111/2/2 112/2/2
f 112/2/2 111/2/2 113/2/2
f 114/2/2 115/2/2 116/2/2
f 116/2/2 115/2/2 117/2/2
f 118/2/2 119/2/2 120/2/2
f 120/2/2 119/2/2 121/2/2
f 122/2/2 123/2/2 124/2/2
f 124/2/2 123/2/2 125/2/2
f 122/2/2 124/2/2 126/2/2
f 126/2/2 124/2/2 127/2/2
f 128/2/2 129/2/2 130/2/2
f 130/2/2 129/2/2 131/2/2
f 131/2/2 132/2/2 133/2/2
f 133/2/2 132/2/2 134/2/2
f 135/2/2 136/2/2 137/2/2
f 137/2/2 136/2/2 138/2/2
f 139/2/2 140/2/2 141/2/2
f 141/2/2 140/2/2 142/2/2
f 143/2/2 144/2/2 145/2/2
f 145/2/2 144/2/2 146/2/2
f 147/3/2 148/3/2 149/3/2
f 149/3/2 148/3/2 150/3/2
f 151/3/2 152/3/2 153/3/2
f 153/3/2 152/3/2 154/3/2
f 155/3/2 156/3/2 157/3/2
f 157/3/2 156/3/2 158/3/2
f 159/3/2 160/3/2 161/3/2
f 161/3/2 160/3/2 162/3/2
f 163/3/2 164/3/2 165/3/2
f 165/3/2 164/3/2 166/3/2
f 167/3/2 168/3/2 169/3/2
f 169/3/2 168/3/2 170/3/2
f 171/3/2 172/3/2 173/3/2
f 173/3/2 172/3/2 174/3/2
f 174/3/2 172/3/2 175/3/2
f 175/3/2 172/3/2 176/3/2
f 177/3/2 178/3/2 179/3/2
f 179/3/2 178/3/2 180/3/2
f 183/3/3 182/3/3 181/3/3
f 184/3/3 182/3/3 183/3/3
f 189/3/3 186/3/3 185/3/3
f 190/3/3 186/3/3 189/3/3
f 191/3/3 188/3/3 187/3/3
f 192/3/3 188/3/3 191/3/3
f 195/3/3 194/3/3 193/3/3
f 196/3/3 194/3/3 195/3/3
f 199/3/3 198/3/3 197/3/3
f 200/3/3 198/3/3 199/3/3
f 203/3/3 202/3/3 201/3/3
f 204/3/3 202/3/3 203/3/3
f 207/3/3 206/3/3 205/3/3
f 208/3/3 206/3/3 207/3/3
f 211/3/3 210/3/3 209/3/3
f 212/3/3 210/3/3 211/3/3
f 215/3/3 214/3/3 213/3/3
f 216/3/3 214/3/3 215/3/3
f 219/3/3 218/3/3 217/3/3
f 220/3/3 218/3/3 219/3/3
f 223/2/3 222/2/3 221/2/3
f 224/2/3 222/2/3 223/2/3
f 227/2/3 226/2/3 225/2/3
f 228/2/3 226/2/3 227/2/3
f 231/2/3 230/2/3 229/2/3
f 232/2/3 230/2/3 231/2/3
f 236/2/3 234/2/3 233/2/3
f 237/2/3 234/2/3 236/2/3
f 238/2/3 236/2/3 235/2/3
f 239/2/3 236/2/3 238/2/3
f 242/2/3 241/2/3 240/2/3
f 244/2/3 242/2/3 240/2/3
f 244/2/3 243/2/3 242/2/3
f 245/2/3 243/2/3 244/2/3
f 248/2/3 247/2/3 246/2/3
f 249/2/3 247/2/3 248/2/3
f 252/2/3 251/2/3 250/2/3
f 253/2/3 251/2/3 252/2/3
f 256/2/3 255/2/3 254/2/3
f 257/2/3 255/2/3 256/2/3
f 260/2/3 259/2/3 258/2/3
f 261/2/3 259/2/3 260/2/3
f 264/2/3 263/2/3 262/2/3
f 265/2/3 263/2/3 264/2/3
f 268/2/3 267/2/3 266/2/3
f 269/2/3 267/2/3 268/2/3
f 272/2/3 271/2/3 270/2/3
f 273/2/3 271/2/3 272/2/3
f 274/2/3 271/2/3 273/2/3
f 277/3/3 276/3/3 275/3/3
f 278/3/3 276/3/3 277/3/3
f 281/3/3 280/3/3 279/3/3
f 282/3/3 280/3/3 281/3/3
f 283/3/4 284/3/4 285/3/4
f 285/3/4 284/3/4 286/3/4
f 287/3/4 288/3/4 289/3/4
f 289/3/4 288/3/4 290/3/4
f 291/3/4 292/3/4 293/3/4
f 293/3/4 292/3/4 294/3/4
f 295/3/4 296/3/4 297/3/4
f 297/3/4 296/3/4 298/3/4
f 299/3/4 300/3/4 301/3/4
f 301/3/4 300/3/4 302/3/4
f 303/2/4 304/2/4 305/2/4
f 305/2/4 304/2/4 306/2/4
f 307/3/4 308/3/4 309/3/4
f 309/3/4 308/3/4 310/3/4
f 311/2/4 312/2/4 313/2/4
f 313/2/4 312/2/4 314/2/4
f 311/2/4 313/2/4 315/2/4
f 315/2/4 313/2/4 316/2/4
f 317/2/4 318/2/4 319/2/4
f 319/2/4 318/2/4 320/2/4
f 317/2/4 319/2/4 321/2/4
f 321/2/4 319/2/4 322/2/4
f 323/2/4 324/2/4 325/2/4
f 325/2/4 324/2/4 326/2/4
f 327/2/4 328/2/4 329/2/4
f 329/2/4 328/2/4 330/2/4
f 331/2/4 332/2/4 333/2/4
f 333/2/4 332/2/4 334/2/4
f 331/2/4 333/2/4 335/2/4
f 335/2/4 333/2/4 336/2/4
f 337/2/4 338/2/4 339/2/4
f 339/2/4 338/2/4 340/2/4
f 341/2/4 342/2/4 343/2/4
f 343/2/4 342/2/4 344/2/4
f 345/3/4 346/3/4 347/3/4
f 347/3/4 346/3/4 348/3/4
f 349/3/4 350/3/4 353/3/4
f 353/3/4 350/3/4 354/3/4
f 351/3/4 352/3/4 355/3/4
f 355/3/4 352/3/4 356/3/4
f 357/3/4 358/3/4 359/3/4
f 359/3/4 358/3/4 360/3/4
f 363/3/5 362/3/5 361/3/5
f 364/3/5 362/3/5 363/3/5
f 367/3/5 366/3/5 365/3/5
f 368/3/5 366/3/5 367/3/5
f 369/3/5 367/3/5 365/3/5
f 370/3/5 366/3/5 368/3/5
f 371/3/5 369/3/5 365/3/5
f 371/3/5 370/3/5 369/3/5
f 372/3/5 366/3/5 370/3/5
f 372/3/5 370/3/5 371/3/5
f 375/3/5 374/3/5 373/3/5
f 376/3/5 374/3/5 375/3/5
f 377/3/5 375/3/5 373/3/5
f 378/3/5 374/3/5 376/3/5
f 379/3/5 377/3/5 373/3/5
f 379/3/5 378/3/5 377/3/5
f 380/3/5 374/3/5 378/3/5
f 380/3/5 378/3/5 379/3/5
f 383/3/5 382/3/5 381/3/5
f 384/3/5 382/3/5 383/3/5
f 385/3/5 383/3/5 381/3/5
f 386/3/5 382/3/5 384/3/5
f 387/3/5 385/3/5 381/3/5
f 387/3/5 386/3/5 385/3/5
f 388/3/5 382/3/5 386/3/5
f 388/3/5 386/3/5 387/3/5
f 391/2/5 390/2/5 389/2/5
f 393/2/5 391/2/5 389/2/5
f 393/2/5 392/2/5 391/2/5
f 394/2/5 392/2/5 393/2/5
f 395/2/5 392/2/5 394/2/5
f 397/2/5 396/2/5 395/2/5
f 397/2/5 395/2/5 394/2/5
f 398/2/5 396/2/5 397/2/5
f 399/2/5 397/2/5 394/2/5
f 400/2/5 397/2/5 399/2/5
f 404/2/5 402/2/5 401/2/5
f 405/2/5 402/2/5 404/2/5
f 407/2/5 404/2/5 403/2/5
f 407/2/5 406/2/5 405/2/5
f 407/2/5 405/2/5 404/2/5
f 409/2/5 407/2/5 403/2/5
f 409/2/5 408/2/5 407/2/5
f 410/2/5 408/2/5 409/2/5
f 411/2/5 408/2/5 410/2/5
f 412/2/5 408/2/5 411/2/5
f 415/2/5 414/2/5 413/2/5
f 416/2/5 415/2/5 413/2/5
f 418/2/5 416/2/5 413/2/5
f 418/2/5 417/2/5 416/2/5
f 419/2/5 417/2/5 418/2/5
f 420/2/5 417/2/5 419/2/5
f 422/2/5 421/2/5 420/2/5
f 422/2/5 420/2/5 419/2/5
f 423/2/5 421/2/5 422/2/5
f 424/2/5 421/2/5 423/2/5
f 427/2/5 426/2/5 425/2/5
f 427/2/5 425/2/5 424/2/5
f 427/2/5 424/2/5 423/2/5
f 428/2/5 426/2/5 427/2/5
f 429/3/6 430/3/6 431/3/6
f 431/3/6 430/3/6 432/3/6
f 429/3/6 431/3/6 433/3/6
f 432/3/6 430/3/6 434/3/6
f 429/3/6 433/3/6 435/3/6
f 433/3/6 434/3/6 435/3/6
f 434/3/6 430/3/6 436/3/6
f 435/3/6 434/3/6 436/3/6
f 437/3/6 438/3/6 439/3/6
f 439/3/6 438/3/6 440/3/6
f 437/3/6 439/3/6 441/3/6
f 440/3/6 438/3/6 442/3/6
f 437/3/6 441/3/6 443/3/6
f 441/3/6 442/3/6 443/3/6
f 442/3/6 438/3/6 444/3/6
f 443/3/6 442/3/6 444/3/6
f 445/3/6 446/3/6 447/3/6
f 447/3/6 446/3/6 448/3/6
f 445/3/6 447/3/6 449/3/6
f 448/3/6 446/3/6 450/3/6
f 445/3/6 449/3/6 451/3/6
f 449/3/6 450/3/6 451/3/6
f 450/3/6 446/3/6 452/3/6
f 451/3/6 450/3/6 452/3/6
f 453/3/6 454/3/6 455/3/6
f 455/3/6 454/3/6 456/3/6
f 453/3/6 455/3/6 457/3/6
f 455/4/6 456/4/6 458/4/6
f 457/3/6 455/3/6 458/3/6
f 458/4/6 456/4/6 459/4/6
f 459/4/6 456/4/6 460/4/6
f 456/3/6 454/3/6 461/3/6
f 460/4/6 456/4/6 461/4/6
f 461/3/6 454/3/6 462/3/6
f 453/3/6 457/3/6 463/3/6
f 457/4/6 458/4/6 464/4/6
f 463/3/6 457/3/6 464/3/6
f 459/1/6 460/1/6 465/1/6
f 458/3/6 459/3/6 465/3/6
f 460/3/6 461/3/6 466/3/6
f 465/1/6 460/1/6 466/1/6
f 466/3/6 461/3/6 467/3/6
f 467/3/6 461/3/6 468/3/6
f 462/3/6 454/3/6 469/3/6
f 461/4/6 462/4/6 469/4/6
f 469/3/6 454/3/6 470/3/6
f 453/3/6 463/3/6 471/3/6
f 463/4/6 464/4/6 472/4/6
f 471/3/6 463/3/6 472/3/6
f 464/4/6 458/4/6 473/4/6
f 472/4/6 464/4/6 473/4/6
f 458/3/6 465/3/6 473/3/6
f 465/3/6 466/3/6 473/3/6
f 466/3/6 467/3/6 473/3/6
f 473/3/6 467/3/6 474/3/6
f 474/3/6 467/3/6 475/3/6
f 475/3/6 467/3/6 476/3/6
f 476/3/6 467/3/6 477/3/6
f 467/1/6 468/1/6 478/1/6
f 477/3/6 467/3/6 478/3/6
f 468/3/6 461/3/6 479/3/6
f 478/1/6 468/1/6 479/1/6
f 469/4/6 470/4/6 480/4/6
f 479/3/6 461/3/6 480/3/6
f 461/4/6 469/4/6 480/4/6
f 480/4/6 470/4/6 481/4/6
f 470/3/6 454/3/6 482/3/6
f 481/4/6 470/4/6 482/4/6
f 482/3/6 454/3/6 483/3/6
f 472/3/6 473/3/6 484/3/6
f 473/4/6 474/4/6 484/4/6
f 474/3/6 475/3/6 485/3/6
f 484/4/6 474/4/6 485/4/6
f 475/1/6 476/1/6 486/1/6
f 485/3/6 475/3/6 486/3/6
f 477/1/6 478/1/6 487/1/6
f 478/3/6 479/3/6 487/3/6
f 479/4/6 480/4/6 488/4/6
f 487/3/6 479/3/6 488/3/6
f 480/3/6 481/3/6 489/3/6
f 488/4/6 480/4/6 489/4/6
f 481/1/6 482/1/6 490/1/6
f 489/3/6 481/3/6 490/3/6
f 482/4/6 483/4/6 491/4/6
f 490/1/6 482/1/6 491/1/6
f 484/3/6 485/3/6 492/3/6
f 472/3/6 484/3/6 492/3/6
f 485/4/6 486/4/6 493/4/6
f 492/3/6 485/3/6 493/3/6
f 486/1/6 476/1/6 494/1/6
f 493/4/6 486/4/6 494/4/6
f 476/3/6 477/3/6 495/3/6
f 494/1/6 476/1/6 495/1/6
f 477/1/6 487/1/6 496/1/6
f 495/3/6 477/3/6 496/3/6
f 487/4/6 488/4/6 497/4/6
f 496/1/6 487/1/6 497/1/6
f 489/1/6 490/1/6 498/1/6
f 497/4/6 488/4/6 498/4/6
f 488/1/6 489/1/6 498/1/6
f 490/3/6 491/3/6 499/3/6
f 498/1/6 490/1/6 499/1/6
f 492/1/6 493/1/6 500/1/6
f 472/3/6 492/3/6 500/3/6
f 493/3/6 494/3/6 501/3/6
f 500/1/6 493/1/6 501/1/6
f 494/4/6 495/4/6 502/4/6
f 501/3/6 494/3/6 502/3/6
f 495/3/6 496/3/6 503/3/6
f 502/4/6 495/4/6 503/4/6
f 496/4/6 497/4/6 504/4/6
f 503/3/6 496/3/6 504/3/6
f 498/3/6 499/3/6 505/3/6
f 504/4/6 497/4/6 505/4/6
f 497/3/6 498/3/6 505/3/6
f 505/3/6 499/3/6 506/3/6
f 499/3/6 491/3/6 507/3/6
f 506/3/6 499/3/6 507/3/6
f 491/4/6 483/4/6 507/4/6
f 501/3/6 502/3/6 508/3/6
f 472/3/6 500/3/6 508/3/6
f 502/3/6 503/3/6 508/3/6
f 500/3/6 501/3/6 508/3/6
f 508/3/6 503/3/6 509/3/6
f 509/3/6 503/3/6 510/3/6
f 510/3/6 503/3/6 511/3/6
f 505/3/6 506/3/6 512/3/6
f 504/3/6 505/3/6 512/3/6
f 506/1/6 507/1/6 513/1/6
f 512/3/6 506/3/6 513/3/6
f 507/4/6 483/4/6 514/4/6
f 513/1/6 507/1/6 514/1/6
f 510/1/6 511/1/6 515/1/6
f 509/3/6 510/3/6 515/3/6
f 511/3/6 503/3/6 516/3/6
f 515/1/6 511/1/6 516/1/6
f 503/4/6 504/4/6 517/4/6
f 516/3/6 503/3/6 517/3/6
f 504/3/6 512/3/6 518/3/6
f 517/4/6 504/4/6 518/4/6
f 518/3/6 512/3/6 519/3/6
f 472/3/6 508/3/6 520/3/6
f 508/1/6 509/1/6 520/1/6
f 509/3/6 515/3/6 521/3/6
f 520/1/6 509/1/6 521/1/6
f 515/3/6 516/3/6 521/3/6
f 521/3/6 516/3/6 522/3/6
f 516/4/6 517/4/6 523/4/6
f 522/3/6 516/3/6 523/3/6
f 517/3/6 518/3/6 524/3/6
f 523/4/6 517/4/6 524/4/6
f 518/4/6 519/4/6 525/4/6
f 524/3/6 518/3/6 525/3/6
f 519/3/6 512/3/6 526/3/6
f 525/4/6 519/4/6 526/4/6
f 512/1/6 513/1/6 527/1/6
f 526/3/6 512/3/6 527/3/6
f 513/3/6 514/3/6 528/3/6
f 527/1/6 513/1/6 528/1/6
f 521/3/6 522/3/6 529/3/6
f 520/3/6 521/3/6 529/3/6
f 522/4/6 523/4/6 530/4/6
f 529/3/6 522/3/6 530/3/6
f 523/3/6 524/3/6 531/3/6
f 530/4/6 523/4/6 531/4/6
f 524/1/6 525/1/6 532/1/6
f 531/3/6 524/3/6 532/3/6
f 525/3/6 526/3/6 533/3/6
f 532/1/6 525/1/6 533/1/6
f 526/4/6 527/4/6 534/4/6
f 533/3/6 526/3/6 534/3/6
f 527/3/6 528/3/6 535/3/6
f 534/4/6 527/4/6 535/4/6
f 528/3/6 514/3/6 536/3/6
f 535/3/6 528/3/6 536/3/6
f 536/3/6 514/3/6 537/3/6
f 514/4/6 483/4/6 538/4/6
f 537/3/6 514/3/6 538/3/6
f 471/4/6 472/4/6 539/4/6
f 453/3/6 471/3/6 539/3/6
f 472/3/6 520/3/6 540/3/6
f 539/4/6 472/4/6 540/4/6
f 520/3/6 529/3/6 540/3/6
f 529/4/6 530/4/6 541/4/6
f 540/3/6 529/3/6 541/3/6
f 531/3/6 532/3/6 542/3/6
f 541/4/6 530/4/6 542/4/6
f 534/3/6 535/3/6 542/3/6
f 533/3/6 534/3/6 542/3/6
f 532/3/6 533/3/6 542/3/6
f 530/3/6 531/3/6 542/3/6
f 542/3/6 535/3/6 543/3/6
f 543/3/6 535/3/6 544/3/6
f 535/4/6 536/4/6 545/4/6
f 544/3/6 535/3/6 545/3/6
f 536/3/6 537/3/6 546/3/6
f 545/4/6 536/4/6 546/4/6
f 537/1/6 538/1/6 547/1/6
f 546/3/6 537/3/6 547/3/6
f 538/4/6 483/4/6 548/4/6
f 547/1/6 538/1/6 548/1/6
f 483/3/6 454/3/6 549/3/6
f 548/4/6 483/4/6 549/4/6
f 540/4/6 541/4/6 550/4/6
f 539/3/6 540/3/6 550/3/6
f 550/4/6 541/4/6 551/4/6
f 546/4/6 547/4/6 552/4/6
f 547/4/6 548/4/6 552/4/6
f 548/3/6 549/3/6 553/3/6
f 552/4/6 548/4/6 553/4/6
f 551/4/6 541/4/6 554/4/6
f 550/3/6 551/3/6 554/3/6
f 541/3/6 542/3/6 555/3/6
f 554/4/6 541/4/6 555/4/6
f 542/3/6 543/3/6 555/3/6
f 543/1/6 544/1/6 556/1/6
f 555/3/6 543/3/6 556/3/6
f 545/3/6 546/3/6 557/3/6
f 556/1/6 544/1/6 557/1/6
f 544/3/6 545/3/6 557/3/6
f 546/4/6 552/4/6 558/4/6
f 557/3/6 546/3/6 558/3/6
f 552/3/6 553/3/6 559/3/6
f 558/4/6 552/4/6 559/4/6
f 555/4/6 556/4/6 560/4/6
f 554/3/6 555/3/6 560/3/6
f 556/4/6 557/4/6 560/4/6
f 557/4/6 558/4/6 560/4/6
f 558/3/6 559/3/6 561/3/6
f 560/4/6 558/4/6 561/4/6
f 453/3/6 539/3/6 562/3/6
f 554/3/6 560/3/6 562/3/6
f 560/3/6 561/3/6 562/3/6
f 539/3/6 550/3/6 562/3/6
f 550/3/6 554/3/6 562/3/6
f 562/3/6 561/3/6 563/3/6
f 453/3/6 562/3/6 564/3/6
f 563/3/6 561/3/6 565/3/6
f 453/3/6 564/3/6 566/3/6
f 564/3/6 565/3/6 566/3/6
f 553/3/6 549/3/6 567/3/6
f 566/3/6 565/3/6 567/3/6
f 561/3/6 559/3/6 567/3/6
f 549/3/6 454/3/6 567/3/6
f 565/3/6 561/3/6 567/3/6
f 559/3/6 553/3/6 567/3/6
f 568/3/6 569/3/6 570/3/6
f 570/3/6 569/3/6 571/3/6
f 572/3/6 573/3/6 574/3/6
f 574/3/6 573/3/6 575/3/6
f 572/3/6 574/3/6 576/3/6
f 575/3/6 573/3/6 577/3/6
f 572/3/6 576/3/6 578/3/6
f 576/3/6 577/3/6 578/3/6
f 577/3/6 573/3/6 579/3/6
f 578/3/6 577/3/6 579/3/6
f 568/3/6 570/3/6 580/3/6
f 571/3/6 569/3/6 581/3/6
f 568/3/6 580/3/6 582/3/6
f 580/3/6 581/3/6 582/3/6
f 581/3/6 569/3/6 583/3/6
f 582/3/6 581/3/6 583/3/6
f 584/3/6 585/3/6 586/3/6
f 586/3/6 585/3/6 587/3/6
f 584/3/6 586/3/6 588/3/6
f 588/3/6 586/3/6 589/3/6
f 587/3/6 585/3/6 590/3/6
f 590/3/6 585/3/6 591/3/6
f 592/2/6 593/2/6 594/2/6
f 592/2/6 594/2/6 596/2/6
f 594/2/6 595/2/6 596/2/6
f 596/2/6 595/2/6 597/2/6
f 597/2/6 595/2/6 598/2/6
f 598/2/6 599/2/6 600/2/6
f 597/2/6 598/2/6 600/2/6
f 600/2/6 599/2/6 601/2/6
f 601/2/6 599/2/6 602/2/6
f 602/2/6 603/2/6 604/2/6
f 601/2/6 602/2/6 604/2/6
f 604/2/6 603/2/6 605/2/6
f 605/2/6 603/2/6 606/2/6
f 606/2/6 607/2/6 608/2/6
f 605/2/6 606/2/6 608/2/6
f 608/2/6 607/2/6 609/2/6
f 609/2/6 607/2/6 610/2/6
f 610/2/6 611/2/6 612/2/6
f 609/2/6 610/2/6 612/2/6
f 612/2/6 611/2/6 613/2/6
f 613/2/6 611/2/6 614/2/6
f 614/2/6 615/2/6 616/2/6
f 613/2/6 614/2/6 616/2/6
f 616/2/6 615/2/6 617/2/6
f 617/2/6 615/2/6 618/2/6
f 618/2/6 615/2/6 619/2/6
f 624/2/6 625/2/6 626/2/6
f 626/2/6 625/2/6 627/2/6
f 628/2/6 629/2/6 630/2/6
f 630/2/6 629/2/6 631/2/6
f 620/3/6 621/3/6 632/3/6
f 622/3/6 623/3/6 633/3/6
f 620/3/6 632/3/6 634/3/6
f 632/3/6 633/3/6 634/3/6
f 633/3/6 623/3/6 635/3/6
f 634/3/6 633/3/6 635/3/6
f 636/2/6 637/2/6 638/2/6
f 636/2/6 638/2/6 640/2/6
f 638/2/6 639/2/6 640/2/6
f 640/2/6 639/2/6 641/2/6
f 641/2/6 639/2/6 642/2/6
f 642/2/6 643/2/6 644/2/6
f 641/2/6 642/2/6 644/2/6
f 644/2/6 643/2/6 645/2/6
f 645/2/6 643/2/6 646/2/6
f 646/2/6 647/2/6 648/2/6
f 645/2/6 646/2/6 648/2/6
f 648/2/6 647/2/6 649/2/6
